<?xml version="1.0" encoding="UTF-8" standalone="no"?>
<!-- Created with Inkscape (http://www.inkscape.org/) -->

<svg
   xmlns:dc="http://purl.org/dc/elements/1.1/"
   xmlns:cc="http://creativecommons.org/ns#"
   xmlns:rdf="http://www.w3.org/1999/02/22-rdf-syntax-ns#"
   xmlns:svg="http://www.w3.org/2000/svg"
   xmlns="http://www.w3.org/2000/svg"
   xmlns:sodipodi="http://sodipodi.sourceforge.net/DTD/sodipodi-0.dtd"
   xmlns:inkscape="http://www.inkscape.org/namespaces/inkscape"
   width="24"
   height="24"
   viewBox="0 0 24 24"
   id="svg9687"
   version="1.1"
   inkscape:version="0.92.1 r15371"
   sodipodi:docname="gwy_fft_filter_1d-24.svg"
   inkscape:export-filename="gwy_graph_function-24.png"
   inkscape:export-xdpi="96"
   inkscape:export-ydpi="96">
  <sodipodi:namedview
     id="base"
     pagecolor="#ffffff"
     bordercolor="#666666"
     borderopacity="1.0"
     inkscape:pageopacity="0.0"
     inkscape:pageshadow="2"
     inkscape:zoom="3.6356752"
     inkscape:cx="46.155931"
     inkscape:cy="29.736001"
     inkscape:document-units="px"
     inkscape:current-layer="layer1"
     showgrid="true"
     units="px"
     inkscape:window-width="1920"
     inkscape:window-height="1016"
     inkscape:window-x="0"
     inkscape:window-y="27"
     inkscape:window-maximized="1"
     inkscape:object-nodes="true"
     inkscape:snap-global="true">
                        <inkscape:grid
                       type="xygrid"
                       id="grid1px"
                       originx="0"
                       originy="0"
                       dotted="false"
                       snapvisiblegridlinesonly="false"
                       spacingx="1.0"
                       spacingy="1.0"
                       enabled="true"
                       visible="true" />
                         </sodipodi:namedview>
  <defs
     id="defs9689" />
  <metadata
     id="metadata9692">
    <rdf:RDF>
      <cc:Work
         rdf:about="">
        <dc:format>image/svg+xml</dc:format>
        <dc:type
           rdf:resource="http://purl.org/dc/dcmitype/StillImage" />
        <dc:title />
      </cc:Work>
    </rdf:RDF>
  </metadata>
  <g
     inkscape:label="Layer 1"
     inkscape:groupmode="layer"
     id="layer1"
     transform="translate(-306.29821,-648.57531)">
    <path
       sodipodi:nodetypes="cc"
       inkscape:connector-curvature="0"
       id="path8537"
       d="m 318.29821,672.57531 v -12"
       style="fill:none;fill-rule:evenodd;stroke:#808080;stroke-width:2;stroke-linecap:butt;stroke-linejoin:miter;stroke-miterlimit:4;stroke-dasharray:none;stroke-opacity:1" />
    <path
       style="fill:none;fill-rule:evenodd;stroke:#808080;stroke-width:2;stroke-linecap:butt;stroke-linejoin:miter;stroke-miterlimit:4;stroke-dasharray:none;stroke-opacity:1"
       d="m 306.29821,671.57531 h 24"
       id="path8539"
       inkscape:connector-curvature="0"
       sodipodi:nodetypes="cc" />
    <path
       sodipodi:nodetypes="cc"
       inkscape:connector-curvature="0"
       id="path8529"
       d="m 314.29821,662.57531 v 10"
       style="fill:none;fill-rule:evenodd;stroke:#000000;stroke-width:2;stroke-linecap:butt;stroke-linejoin:miter;stroke-miterlimit:4;stroke-dasharray:none;stroke-opacity:1" />
    <path
       style="fill:none;fill-rule:evenodd;stroke:#000000;stroke-width:2;stroke-linecap:butt;stroke-linejoin:miter;stroke-miterlimit:4;stroke-dasharray:none;stroke-opacity:1"
       d="m 309.29821,662.57531 v 10"
       id="path8535"
       inkscape:connector-curvature="0"
       sodipodi:nodetypes="cc" />
    <path
       style="fill:none;fill-rule:evenodd;stroke:#000000;stroke-width:2;stroke-linecap:butt;stroke-linejoin:miter;stroke-miterlimit:4;stroke-dasharray:none;stroke-opacity:1"
       d="m 322.29821,662.57531 v 10"
       id="path8531"
       inkscape:connector-curvature="0"
       sodipodi:nodetypes="cc" />
    <path
       sodipodi:nodetypes="cc"
       inkscape:connector-curvature="0"
       id="path8533"
       d="m 327.29821,662.57531 v 10"
       style="fill:none;fill-rule:evenodd;stroke:#000000;stroke-width:2;stroke-linecap:butt;stroke-linejoin:miter;stroke-miterlimit:4;stroke-dasharray:none;stroke-opacity:1" />
    <g
       style="stroke:#db2424;stroke-width:1.21908247;stroke-opacity:1"
       transform="matrix(1.2304337,0,0,1.2304337,-134.67046,19.736605)"
       id="g8484">
      <path
         inkscape:connector-curvature="0"
         id="path8480"
         d="m 373.44052,524.5011 4.02276,4.02277"
         style="fill:none;fill-rule:evenodd;stroke:#db2424;stroke-width:1.82862377;stroke-linecap:butt;stroke-linejoin:miter;stroke-miterlimit:4;stroke-dasharray:none;stroke-opacity:1" />
      <path
         style="fill:none;fill-rule:evenodd;stroke:#db2424;stroke-width:1.82862377;stroke-linecap:butt;stroke-linejoin:miter;stroke-miterlimit:4;stroke-dasharray:none;stroke-opacity:1"
         d="m 373.44052,528.52387 4.02276,-4.02277"
         id="path8482"
         inkscape:connector-curvature="0" />
    </g>
    <path
       id="path8520"
       title="sin(x)"
       d="m 307.23798,654.5753 c 0.0776,-0.20987 0.15523,-0.41973 0.23285,-0.62549 0.0776,-0.20576 0.15523,-0.40737 0.23284,-0.60095 0.0776,-0.19356 0.15523,-0.37903 0.23285,-0.55281 0.0776,-0.17379 0.15524,-0.33583 0.23285,-0.48301 0.0776,-0.14718 0.15523,-0.27942 0.23285,-0.39423 0.0776,-0.1148 0.15523,-0.21207 0.23284,-0.28999 0.0776,-0.078 0.15524,-0.13638 0.23285,-0.17437 0.0776,-0.038 0.15523,-0.0554 0.23285,-0.052 0.0776,0.004 0.15523,0.0278 0.23284,0.0726 0.0776,0.0448 0.15524,0.10995 0.23286,0.19423 0.0776,0.0843 0.15523,0.18776 0.23284,0.30828 0.0776,0.12051 0.15523,0.25818 0.23285,0.4102 0.0776,0.15202 0.15523,0.31848 0.23284,0.49604 0.0776,0.17756 0.15523,0.36628 0.23285,0.56241 0.0776,0.19613 0.15523,0.3997 0.23285,0.60671 0.0776,0.207 0.15523,0.41745 0.23285,0.62721 0.0776,0.20976 0.15523,0.41881 0.23285,0.62309 0.0776,0.20428 0.15523,0.40374 0.23284,0.59453 0.0776,0.19078 0.15523,0.37282 0.23285,0.54262 0.0776,0.1698 0.15523,0.32728 0.23284,0.46943 0.0776,0.14216 0.15523,0.2689 0.23285,0.37783 0.0776,0.10894 0.15523,0.19996 0.23285,0.2714 0.0776,0.0714 0.15523,0.12317 0.23285,0.15431 0.0776,0.0311 0.15523,0.0415 0.23285,0.0312 0.0776,-0.0103 0.15523,-0.0417 0.23284,-0.0932 0.0776,-0.0515 0.15523,-0.12331 0.23285,-0.2139 0.0776,-0.0906 0.15523,-0.20008 0.23284,-0.32621 0.0776,-0.12614 0.15523,-0.269 0.23285,-0.42572 0.0776,-0.15673 0.15524,-0.32738 0.23285,-0.50854 0.0776,-0.18116 0.15523,-0.3729 0.23285,-0.57138 0.0776,-0.1985 0.15523,-0.40379 0.23285,-0.61182 0.0776,-0.20804 0.15523,-0.41883 0.23284,-0.62824 0.0776,-0.20941 0.15523,-0.41743 0.23285,-0.62001 0.0776,-0.20257 0.15523,-0.39966 0.23284,-0.58744 0.0776,-0.18779 0.15523,-0.36622 0.23286,-0.53184 0.0776,-0.16563 0.15523,-0.31839 0.23284,-0.45536 0.0776,-0.13698 0.15523,-0.25807 0.23285,-0.36101 0.0776,-0.10295 0.15523,-0.18763 0.23284,-0.25251 0.0776,-0.0649 0.15524,-0.10982 0.23285,-0.13407 0.0776,-0.0243 0.15523,-0.0277 0.23285,-0.0104 0.0776,0.0173 0.15523,0.0555 0.23284,0.1137 0.0776,0.0582 0.15524,0.13653 0.23286,0.23333 0.0776,0.0968 0.15523,0.2122 0.23284,0.34381 0.0776,0.1316 0.15523,0.27953 0.23285,0.44078 0.0776,0.16125 0.15523,0.3359 0.23284,0.52047 0.0776,0.18457 0.15523,0.37909 0.23285,0.57973 0.0776,0.20065 0.15523,0.40742 0.23285,0.61625 0.0776,0.20884 0.15524,0.41974 0.23285,0.62858 0.0776,0.20885 0.15523,0.4156 0.23285,0.61626 0.0776,0.20064 0.15523,0.39514 0.23284,0.57973 0.0776,0.18458 0.15523,0.35919 0.23285,0.52047 0.0776,0.16128 0.15523,0.30914 0.23284,0.44078 0.0776,0.13164 0.15523,0.24697 0.23285,0.3438 0.0776,0.0968 0.15523,0.17509 0.23285,0.23333 0.0776,0.0582 0.15523,0.0963 0.23285,0.1137 0.0776,0.0173 0.15523,0.0138 0.23285,-0.0104 0.0776,-0.0242 0.15523,-0.0693 0.23284,-0.13408 0.0776,-0.0648 0.15523,-0.14959 0.23285,-0.2525 0.0776,-0.1029 0.15523,-0.22406 0.23284,-0.36101 0.0776,-0.13694 0.15523,-0.28975 0.23285,-0.45536 0.0776,-0.16561 0.15524,-0.34407 0.23285,-0.53184 0.0776,-0.18777 0.15523,-0.38488 0.23285,-0.58745 0.0776,-0.20256 0.15523,-0.41059 0.23284,-0.62 0.0776,-0.20942 0.15524,-0.42021 0.23285,-0.62824 0.0776,-0.20804 0.15523,-0.41331 0.23285,-0.61182 0.0776,-0.19851 0.15523,-0.3902 0.23284,-0.57138 0.0776,-0.18118 0.15524,-0.35178 0.23286,-0.50854 0.0776,-0.15675 0.15523,-0.29956 0.23284,-0.42572 0.0776,-0.12617 0.15523,-0.23558 0.23285,-0.32622 0.0776,-0.0907 0.15523,-0.16236 0.23284,-0.2139 0.0776,-0.0515 0.15523,-0.0828 0.23285,-0.0932 0.0776,-0.0104 0.15523,6e-5 0.23285,0.0312 0.0776,0.0311 0.15523,0.0829 0.23285,0.15431 0.0776,0.0713 0.15523,0.16249 0.23285,0.2714 0.0776,0.10889 0.15523,0.23569 0.23284,0.37782 0.0776,0.14213 0.15523,0.29966 0.23285,0.46944 0.0776,0.16977 0.15523,0.35186 0.23284,0.54262 0.0776,0.19077 0.15523,0.39026 0.23285,0.59453 0.0776,0.20426 0.15523,0.41333 0.23285,0.62309 0.0776,0.20976 0.15523,0.42019 0.23285,0.6272 0.0776,0.20701 0.15523,0.41057 0.23285,0.60672 0.0776,0.19615 0.15523,0.38482 0.23284,0.5624 0.0776,0.17759 0.15523,0.344 0.23285,0.49605 0.0776,0.15205 0.15523,0.28965 0.23284,0.4102 0.0776,0.12055 0.15523,0.22395 0.23285,0.30827 0.0776,0.0843 0.15524,0.14946 0.23285,0.19424 0.0776,0.0448 0.15523,0.0691 0.23285,0.0726 0.0776,0.004 0.15523,-0.014 0.23285,-0.0519 0.0776,-0.038 0.15523,-0.0965 0.23284,-0.17437 0.0776,-0.0779 0.15523,-0.17523 0.23285,-0.29 0.0776,-0.11477 0.15523,-0.24707 0.23284,-0.39422 0.0776,-0.14716 0.15523,-0.30925 0.23286,-0.48301 0.0776,-0.17376 0.15523,-0.35926 0.23284,-0.55281 0.0776,-0.19356 0.15523,-0.3952 0.23285,-0.60095 0.0776,-0.20575 0.15523,-0.41562 0.23284,-0.62549"
       style="color:#000000;display:inline;overflow:visible;visibility:visible;opacity:1;vector-effect:none;fill:none;fill-opacity:1;fill-rule:evenodd;stroke:#db2424;stroke-width:2;stroke-linecap:butt;stroke-linejoin:round;stroke-miterlimit:4;stroke-dasharray:none;stroke-dashoffset:1.5;stroke-opacity:1;marker:none;marker-start:none;marker-mid:none;marker-end:none;enable-background:accumulate"
       inkscape:connector-curvature="0" />
    <g
       id="g8432"
       transform="matrix(1.2304337,0,0,1.2304337,-152.67046,19.736605)"
       style="stroke:#db2424;stroke-width:1.21908247;stroke-opacity:1">
      <path
         style="fill:none;fill-rule:evenodd;stroke:#db2424;stroke-width:1.82862377;stroke-linecap:butt;stroke-linejoin:miter;stroke-miterlimit:4;stroke-dasharray:none;stroke-opacity:1"
         d="m 373.44052,524.5011 4.02276,4.02277"
         id="path8428"
         inkscape:connector-curvature="0" />
      <path
         inkscape:connector-curvature="0"
         id="path8430"
         d="m 373.44052,528.52387 4.02276,-4.02277"
         style="fill:none;fill-rule:evenodd;stroke:#db2424;stroke-width:1.82862377;stroke-linecap:butt;stroke-linejoin:miter;stroke-miterlimit:4;stroke-dasharray:none;stroke-opacity:1" />
    </g>
  </g>
</svg>
