<?xml version="1.0" encoding="UTF-8" standalone="no"?>
<!-- Created with Inkscape (http://www.inkscape.org/) -->

<svg
   xmlns:dc="http://purl.org/dc/elements/1.1/"
   xmlns:cc="http://creativecommons.org/ns#"
   xmlns:rdf="http://www.w3.org/1999/02/22-rdf-syntax-ns#"
   xmlns:svg="http://www.w3.org/2000/svg"
   xmlns="http://www.w3.org/2000/svg"
   xmlns:sodipodi="http://sodipodi.sourceforge.net/DTD/sodipodi-0.dtd"
   xmlns:inkscape="http://www.inkscape.org/namespaces/inkscape"
   width="24"
   height="24"
   viewBox="0 0 24 24"
   id="svg9100"
   version="1.1"
   inkscape:version="0.92.1 r15371"
   sodipodi:docname="gwy_fractal_correction-24.svg">
  <defs
     id="defs9102" />
  <sodipodi:namedview
     id="base"
     pagecolor="#ffffff"
     bordercolor="#666666"
     borderopacity="1.0"
     inkscape:pageopacity="0.0"
     inkscape:pageshadow="2"
     inkscape:zoom="16.775663"
     inkscape:cx="-21.984552"
     inkscape:cy="7.9284822"
     inkscape:document-units="px"
     inkscape:current-layer="layer1"
     showgrid="true"
     inkscape:window-width="1920"
     inkscape:window-height="1016"
     inkscape:window-x="0"
     inkscape:window-y="27"
     inkscape:window-maximized="1">
                        <inkscape:grid
                       type="xygrid"
                       id="grid1px"
                       originx="0"
                       originy="0"
                       dotted="false"
                       snapvisiblegridlinesonly="false"
                       spacingx="1.0"
                       spacingy="1.0"
                       enabled="true"
                       visible="true" />
                         </sodipodi:namedview>
  <metadata
     id="metadata9105">
    <rdf:RDF>
      <cc:Work
         rdf:about="">
        <dc:format>image/svg+xml</dc:format>
        <dc:type
           rdf:resource="http://purl.org/dc/dcmitype/StillImage" />
        <dc:title />
      </cc:Work>
    </rdf:RDF>
  </metadata>
  <g
     inkscape:label="Layer 1"
     inkscape:groupmode="layer"
     id="layer1"
     transform="translate(-442.76529,-683.29364)">
    <rect
       style="color:#000000;display:inline;overflow:visible;visibility:visible;opacity:1;fill:#d0e2f2;fill-opacity:1;fill-rule:evenodd;stroke:#000000;stroke-width:1.00000012;stroke-linecap:round;stroke-linejoin:round;stroke-miterlimit:4;stroke-dasharray:none;stroke-dashoffset:0;stroke-opacity:1;marker:none;marker-start:none;marker-mid:none;marker-end:none;enable-background:accumulate"
       id="rect11370-6"
       width="23.000002"
       height="23.000002"
       x="443.26529"
       y="683.79364" />
    <path
       style="color:#000000;display:inline;overflow:visible;visibility:visible;opacity:1;fill:#daa39c;fill-opacity:1;fill-rule:evenodd;stroke:#000000;stroke-width:1.00000012;stroke-linecap:butt;stroke-linejoin:round;stroke-miterlimit:4;stroke-dasharray:3.00000018, 3.00000017999999979;stroke-dashoffset:1.50000012;stroke-opacity:1;marker:none;marker-start:none;marker-mid:none;marker-end:none;enable-background:accumulate;font-variant-east_asian:normal;vector-effect:none"
       d="M 2.5 2.5 L 2.5 13.5 L 10.5 13.5 L 10.5 21.5 L 21.5 21.5 L 21.5 10.5 L 13.5 10.5 L 13.5 2.5 L 2.5 2.5 z "
       transform="translate(442.76529,683.29364)"
       id="rect11972" />
    <g
       id="g8437"
       transform="matrix(1.5,0,0,1.5,-104.3997,-90.510326)"
       style="stroke:#db2424;stroke-opacity:1">
      <path
         style="fill:none;fill-rule:evenodd;stroke:#db2424;stroke-width:1.50000012;stroke-linecap:butt;stroke-linejoin:miter;stroke-miterlimit:4;stroke-dasharray:none;stroke-opacity:1"
         d="m 373.44052,524.5011 4.02276,4.02277"
         id="path8433"
         inkscape:connector-curvature="0" />
      <path
         inkscape:connector-curvature="0"
         id="path8435"
         d="m 373.44052,528.52387 4.02276,-4.02277"
         style="fill:none;fill-rule:evenodd;stroke:#db2424;stroke-width:1.50000012;stroke-linecap:butt;stroke-linejoin:miter;stroke-miterlimit:4;stroke-dasharray:none;stroke-opacity:1" />
    </g>
    <g
       style="stroke:#db2424;stroke-opacity:1"
       transform="matrix(1.5,0,0,1.5,-112.3997,-98.510326)"
       id="g8083">
      <path
         inkscape:connector-curvature="0"
         id="path8085"
         d="m 373.44052,524.5011 4.02276,4.02277"
         style="fill:none;fill-rule:evenodd;stroke:#db2424;stroke-width:1.50000012;stroke-linecap:butt;stroke-linejoin:miter;stroke-miterlimit:4;stroke-dasharray:none;stroke-opacity:1" />
      <path
         style="fill:none;fill-rule:evenodd;stroke:#db2424;stroke-width:1.50000012;stroke-linecap:butt;stroke-linejoin:miter;stroke-miterlimit:4;stroke-dasharray:none;stroke-opacity:1"
         d="m 373.44052,528.52387 4.02276,-4.02277"
         id="path8087"
         inkscape:connector-curvature="0" />
    </g>
    <path
       style="fill:none;fill-rule:evenodd;stroke:#000000;stroke-width:2;stroke-linecap:butt;stroke-linejoin:miter;stroke-miterlimit:4;stroke-dasharray:none;stroke-opacity:1"
       d="m 457.17859,702.02627 c -0.0183,-0.0772 -0.0329,-0.13919 -0.0547,-0.21875 -0.39553,-1.44599 -1.06043,-1.33656 -1.14034,-2.82804 -0.42549,1.48234 -0.7642,1.56111 -1.3019,2.93937 m 2.4969,0.10742 c 0.69617,2.93038 1.44529,3.5918 1.44529,3.5918 0,0 0.63269,-1.52319 1.73873,-2.28516 0.50287,-0.34643 1.06639,-0.91115 1.74806,0.32685 1.10603,1.43926 0.55328,1.86276 1.10629,1.43945 0.55302,-0.42331 0.70979,-1.83273 0.70979,-1.83273 l 0.0699,-0.95001 c 0,0 0.895,-3.0166 2.02959,-0.59264 m -22.4913,2.90641 c 0,0 0.68138,-1.81528 1.52956,-2.09772 0.84818,-0.28243 2.09634,2.19246 3.22988,1.82665 1.13354,-0.36582 1.79739,-3.27599 2.07582,-2.3731 0.76283,2.4737 2.26479,-0.15316 2.26479,-0.15316 0,0 0.51869,2.0923 0.69621,2.59961 0.16672,0.47644 0.84031,-1.19531 1.35052,-2.51367"
       id="path8538"
       inkscape:connector-curvature="0"
       sodipodi:nodetypes="csccccscsccccssscsc" />
  </g>
</svg>
