<?xml version="1.0" encoding="UTF-8" standalone="no"?>
<!-- Created with Inkscape (http://www.inkscape.org/) -->

<svg
     xmlns:dc="http://purl.org/dc/elements/1.1/"
     xmlns:cc="http://creativecommons.org/ns#"
     xmlns:rdf="http://www.w3.org/1999/02/22-rdf-syntax-ns#"
     xmlns:svg="http://www.w3.org/2000/svg"
     xmlns="http://www.w3.org/2000/svg"
     xmlns:sodipodi="http://sodipodi.sourceforge.net/DTD/sodipodi-0.dtd"
     xmlns:inkscape="http://www.inkscape.org/namespaces/inkscape"
     width="18"
     height="18"
     viewBox="0 0 18 18"
     id="svg8950"
     version="1.1"
     inkscape:version="0.92.2 (5c3e80d, 2017-08-06)"
     sodipodi:docname="gwy_scientific_number_format-18.svg"
     inkscape:export-filename="gwy_stat_quantities-24.png"
     inkscape:export-xdpi="96"
     inkscape:export-ydpi="96">
    <defs
         id="defs8952" />
    <sodipodi:namedview
         id="base"
         pagecolor="#ffffff"
         bordercolor="#666666"
         borderopacity="1.0"
         inkscape:pageopacity="0.0"
         inkscape:pageshadow="2"
         inkscape:zoom="50.166667"
         inkscape:cx="10.337191"
         inkscape:cy="9.6269689"
         inkscape:document-units="px"
         inkscape:current-layer="layer1"
         showgrid="true"
         units="px"
         inkscape:window-width="1920"
         inkscape:window-height="1028"
         inkscape:window-x="0"
         inkscape:window-y="33"
         inkscape:window-maximized="1"
         inkscape:snap-global="true"
         inkscape:snap-object-midpoints="true"
         showguides="false">
        <inkscape:grid
             type="xygrid"
             id="grid1px"
             originx="0"
             originy="0"
             dotted="false"
             snapvisiblegridlinesonly="false"
             spacingx="0.5"
             spacingy="0.5"
             enabled="true"
             visible="true"
             units="px"
             empspacing="2" />
    </sodipodi:namedview>
    <metadata
         id="metadata8955">
        <rdf:RDF>
            <cc:Work
                 rdf:about="">
                <dc:format>image/svg+xml</dc:format>
                <dc:type
                     rdf:resource="http://purl.org/dc/dcmitype/StillImage" />
                <dc:title />
            </cc:Work>
        </rdf:RDF>
    </metadata>
    <g
         inkscape:label="Layer 1"
         inkscape:groupmode="layer"
         id="layer1"
         transform="translate(-158.35629,-498.34575)">
        <g
             aria-label="2e6"
             style="color:#000000;font-weight:bold;font-size:10.55108261px;line-height:129.99999523%;font-family:'Liberation Mono';-inkscape-font-specification:'Liberation Mono Bold';text-decoration:none;text-decoration-line:none;text-decoration-color:#000000;writing-mode:lr-tb;shape-padding:0;overflow:visible;vector-effect:none;fill:#000000;fill-opacity:1;stroke:none;stroke-width:0.494582;stroke-miterlimit:4;stroke-dasharray:none;stroke-opacity:1;paint-order:fill markers stroke"
             id="text22">
            <path
                 d="m 158.46439,506.37665 v -1.00462 q 0.18547,-0.407 0.43276,-0.75218 0.25244,-0.34518 0.53064,-0.64399 0.28336,-0.30396 0.57701,-0.56155 0.29881,-0.2576 0.57702,-0.48428 0.28335,-0.23184 0.53579,-0.44306 0.25245,-0.21123 0.43791,-0.41216 0.18547,-0.20092 0.29366,-0.39669 0.11334,-0.20092 0.11334,-0.41215 0,-0.37094 -0.24213,-0.58217 -0.24214,-0.21122 -0.71097,-0.21122 -0.46367,0 -0.71096,0.25244 -0.24214,0.24729 -0.31426,0.74702 l -1.45799,-0.0824 q 0.0515,-0.4276 0.21123,-0.80369 0.15971,-0.37609 0.45336,-0.65945 0.29881,-0.28335 0.74188,-0.44306 0.44821,-0.16486 1.06644,-0.16486 0.58732,0 1.04068,0.14425 0.45337,0.1391 0.76248,0.39155 0.30912,0.25244 0.46883,0.59762 0.1597,0.34517 0.1597,0.75217 0,0.45852 -0.20092,0.83976 -0.20092,0.37609 -0.51519,0.71097 -0.31426,0.32972 -0.70066,0.62853 -0.38124,0.29881 -0.74187,0.58731 -0.36063,0.28851 -0.65944,0.58732 -0.29366,0.29366 -0.43791,0.62853 h 3.36934 v 1.19009 z"
                 style="stroke-width:0.494582"
                 id="path840" />
            <path
                 d="m 167.38232,506.47969 q -0.60277,0 -1.10251,-0.17517 -0.49973,-0.18031 -0.85521,-0.54095 -0.35548,-0.36578 -0.55641,-0.91188 -0.19577,-0.55126 -0.19577,-1.28798 0,-0.79854 0.22668,-1.34464 0.23184,-0.5461 0.61308,-0.88098 0.38124,-0.34002 0.87067,-0.48943 0.49458,-0.1494 1.02008,-0.1494 0.65944,0 1.13857,0.23183 0.48427,0.22669 0.80369,0.63884 0.31942,0.41215 0.47398,0.98916 0.15455,0.57186 0.15455,1.26737 v 0.0412 h -3.78149 q 0,0.35033 0.0773,0.6543 0.0824,0.29881 0.23699,0.52034 0.15971,0.21638 0.39669,0.34517 0.23699,0.12365 0.55126,0.12365 0.38124,0 0.67489,-0.15971 0.29366,-0.16486 0.3967,-0.50489 l 1.36525,0.1185 q -0.0927,0.23699 -0.2782,0.50488 -0.18032,0.2679 -0.47913,0.49459 -0.29881,0.22153 -0.73157,0.37093 -0.4276,0.14426 -1.02007,0.14426 z m 0,-4.86855 q -0.22153,0 -0.43276,0.0773 -0.20608,0.0721 -0.37094,0.23699 -0.15971,0.15971 -0.26274,0.4173 -0.10304,0.2576 -0.11335,0.61823 h 2.36988 q -0.0206,-0.33487 -0.12365,-0.58732 -0.0979,-0.25244 -0.25759,-0.42245 -0.15456,-0.17001 -0.36579,-0.25244 -0.20607,-0.0876 -0.44306,-0.0876 z"
                 style="stroke-width:0.494582;fill:#db2424;fill-opacity:1"
                 id="path842" />
            <path
                 d="m 176.22812,504.0789 q 0,0.52034 -0.15455,0.96341 -0.15456,0.43791 -0.46367,0.75733 -0.30397,0.31941 -0.76248,0.49973 -0.45852,0.18032 -1.06129,0.18032 -0.63884,0 -1.13857,-0.2473 -0.49459,-0.24729 -0.83461,-0.71096 -0.33487,-0.46367 -0.51004,-1.12311 -0.17516,-0.65944 -0.17516,-1.48375 0,-1.82377 0.6955,-2.70989 0.70066,-0.88613 1.99894,-0.88613 0.43276,0 0.78824,0.0927 0.35548,0.0876 0.63368,0.28851 0.2782,0.20092 0.47398,0.52034 0.19577,0.31427 0.31426,0.76763 l -1.36525,0.19063 q -0.10304,-0.38125 -0.33487,-0.54611 -0.23184,-0.17001 -0.54095,-0.17001 -0.58732,0 -0.91704,0.56156 -0.32972,0.5564 -0.32972,1.63315 0.23183,-0.38639 0.64399,-0.59247 0.41215,-0.20607 0.93249,-0.20607 0.47912,0 0.86552,0.1597 0.39154,0.15456 0.66459,0.44307 0.2782,0.2885 0.42761,0.70065 0.1494,0.407 0.1494,0.91704 z m -1.45283,0.0412 q 0,-0.26275 -0.067,-0.47913 -0.067,-0.22153 -0.20607,-0.38124 -0.13395,-0.15971 -0.33487,-0.24729 -0.20093,-0.0876 -0.46368,-0.0876 -0.19062,0 -0.38124,0.0618 -0.19062,0.0618 -0.34002,0.19062 -0.14941,0.1288 -0.24214,0.32457 -0.0927,0.19577 -0.0927,0.46367 0,0.28335 0.0773,0.5358 0.0773,0.24729 0.21638,0.43791 0.14426,0.19062 0.34518,0.30396 0.20093,0.10819 0.45337,0.10819 0.24214,0 0.43276,-0.0876 0.19577,-0.0876 0.32972,-0.24729 0.13395,-0.16486 0.20092,-0.39155 0.0721,-0.22668 0.0721,-0.50488 z"
                 style="stroke-width:0.494582"
                 id="path844" />
        </g>
        <g
             aria-label="1.5"
             style="color:#000000;font-weight:bold;font-size:10.55108261px;line-height:129.99999523%;font-family:'Liberation Mono';-inkscape-font-specification:'Liberation Mono Bold';text-decoration:none;text-decoration-line:none;text-decoration-color:#000000;writing-mode:lr-tb;shape-padding:0;overflow:visible;vector-effect:none;fill:#000000;fill-opacity:1;stroke:none;stroke-width:0.494582;stroke-miterlimit:4;stroke-dasharray:none;stroke-opacity:1;paint-order:fill markers stroke"
             id="text831">
            <path
                 d="m 158.59834,515.36957 v -1.07675 h 2.00408 v -4.59034 q -0.0979,0.20608 -0.30911,0.39155 -0.20608,0.18031 -0.48428,0.31426 -0.27305,0.13395 -0.60277,0.21638 -0.32457,0.0773 -0.66459,0.0773 v -1.10251 q 0.38124,0 0.71096,-0.0876 0.32972,-0.0876 0.60277,-0.24214 0.27305,-0.15971 0.47913,-0.37609 0.21122,-0.21637 0.34517,-0.47397 h 1.37041 v 5.87316 h 1.66406 v 1.07675 z"
                 style="stroke-width:0.494582"
                 id="path833" />
            <path
                 d="m 166.57862,515.36957 v -1.57133 h 1.4889 v 1.57133 z"
                 style="stroke-width:0.494582;fill:#db2424;fill-opacity:1"
                 id="path835" />
            <path
                 d="m 176.26934,513.03061 q 0,0.51519 -0.17517,0.9634 -0.17001,0.44822 -0.51003,0.77794 -0.34003,0.32457 -0.84491,0.51519 -0.49974,0.18547 -1.15918,0.18547 -0.60792,0 -1.06129,-0.14426 -0.45337,-0.1494 -0.76763,-0.407 -0.30912,-0.26274 -0.48943,-0.61307 -0.17517,-0.35033 -0.24214,-0.75218 l 1.44768,-0.11849 q 0.0412,0.17001 0.11334,0.32972 0.0773,0.15971 0.21123,0.28335 0.13395,0.12365 0.32972,0.20093 0.19577,0.0721 0.47397,0.0721 0.27306,0 0.48944,-0.0824 0.22153,-0.0824 0.37608,-0.24214 0.15456,-0.15971 0.23699,-0.39669 0.0824,-0.23699 0.0824,-0.54095 0,-0.2679 -0.0824,-0.48428 -0.0773,-0.22153 -0.22668,-0.37609 -0.14426,-0.15455 -0.36064,-0.23699 -0.21122,-0.0824 -0.48427,-0.0824 -0.36064,0 -0.59247,0.13911 -0.23184,0.13394 -0.39155,0.32972 h -1.41162 l 0.25245,-3.9309 h 4.36365 v 1.07675 h -3.04992 l -0.11849,1.67951 q 0.21638,-0.19062 0.5461,-0.32456 0.32972,-0.13911 0.76763,-0.13911 0.5358,0 0.95825,0.17517 0.42246,0.17001 0.71612,0.47912 0.29366,0.30912 0.44821,0.73673 0.15456,0.42245 0.15456,0.92734 z"
                 style="stroke-width:0.494582"
                 id="path837" />
        </g>
    </g>
</svg>
