<?xml version="1.0" encoding="UTF-8" standalone="no"?>
<!-- Created with Inkscape (http://www.inkscape.org/) -->

<svg
   xmlns:dc="http://purl.org/dc/elements/1.1/"
   xmlns:cc="http://creativecommons.org/ns#"
   xmlns:rdf="http://www.w3.org/1999/02/22-rdf-syntax-ns#"
   xmlns:svg="http://www.w3.org/2000/svg"
   xmlns="http://www.w3.org/2000/svg"
   xmlns:xlink="http://www.w3.org/1999/xlink"
   xmlns:sodipodi="http://sodipodi.sourceforge.net/DTD/sodipodi-0.dtd"
   xmlns:inkscape="http://www.inkscape.org/namespaces/inkscape"
   width="20"
   height="20"
   viewBox="0 0 20 20"
   id="svg8833"
   version="1.1"
   inkscape:version="0.92+devel unknown"
   sodipodi:docname="gwy_load_debug-20.svg">
  <defs
     id="defs8835">
    <linearGradient
       inkscape:collect="always"
       id="linearGradient980">
      <stop
         id="stop978"
         offset="0"
         style="stop-color:#e7e78e;stop-opacity:1" />
      <stop
         style="stop-color:#e8d665;stop-opacity:1"
         offset="0.5"
         id="stop976" />
      <stop
         id="stop974"
         offset="1"
         style="stop-color:#d4ad1c;stop-opacity:1" />
    </linearGradient>
    <linearGradient
       gradientTransform="translate(-11.142957,824.89612)"
       xlink:href="#linearGradient4140"
       id="linearGradient4171"
       gradientUnits="userSpaceOnUse"
       x1="207.50029"
       y1="247.92804"
       x2="272.91217"
       y2="361.22473" />
    <linearGradient
       id="linearGradient4140">
      <stop
         style="stop-color:#d7e3f4;stop-opacity:1;"
         offset="0"
         id="stop4142" />
      <stop
         style="stop-color:#f1f5fb;stop-opacity:1"
         offset="1"
         id="stop4144" />
    </linearGradient>
    <radialGradient
       inkscape:collect="always"
       xlink:href="#linearGradient980"
       id="radialGradient972"
       cx="206.41296"
       cy="502.06705"
       fx="206.41296"
       fy="502.06705"
       r="10"
       gradientUnits="userSpaceOnUse"
       gradientTransform="matrix(1.5000009,1.7594542e-6,-1.8767497e-6,1.6,-102.97495,-301.24055)" />
  </defs>
  <sodipodi:namedview
     id="base"
     pagecolor="#ffffff"
     bordercolor="#666666"
     borderopacity="1.0"
     inkscape:pageopacity="0.0"
     inkscape:pageshadow="2"
     inkscape:zoom="12.895588"
     inkscape:cx="10.235174"
     inkscape:cy="12.528501"
     inkscape:document-units="px"
     inkscape:current-layer="layer1"
     showgrid="false"
     units="px"
     inkscape:window-width="1920"
     inkscape:window-height="1149"
     inkscape:window-x="0"
     inkscape:window-y="32"
     inkscape:window-maximized="1"
     inkscape:document-rotation="0">
    <inkscape:grid
       type="xygrid"
       id="grid1px"
       originx="0"
       originy="0"
       dotted="false"
       snapvisiblegridlinesonly="false"
       spacingx="0.5"
       spacingy="0.5"
       enabled="true"
       visible="true"
       units="px"
       empspacing="2" />
  </sodipodi:namedview>
  <metadata
     id="metadata8838">
    <rdf:RDF>
      <cc:Work
         rdf:about="">
        <dc:format>image/svg+xml</dc:format>
        <dc:type
           rdf:resource="http://purl.org/dc/dcmitype/StillImage" />
        <dc:title></dc:title>
      </cc:Work>
    </rdf:RDF>
  </metadata>
  <g
     inkscape:label="Layer 1"
     inkscape:groupmode="layer"
     id="layer1"
     transform="translate(-199.64375,-494.06708)">
    <circle
       style="color:#000000;overflow:visible;vector-effect:none;fill:url(#radialGradient972);fill-rule:evenodd;stroke:none;stroke-width:1.00000012;fill-opacity:1"
       id="path101"
       cx="209.64375"
       cy="504.06708"
       r="10" />
    <path
       style="fill:#000000;stroke-width:0.08205362"
       d="m 212.59869,510.41856 c -1.06373,0.287 -2.25786,0.20514 -3.27268,-0.22433 -0.26885,-0.11378 -0.50132,-0.18223 -0.51659,-0.15209 -0.0153,0.0301 0.002,0.57048 0.0376,1.20076 0.0573,1.00248 0.0423,1.1691 -0.11912,1.33056 -0.2104,0.2104 -0.59971,0.2696 -0.75456,0.11475 -0.0575,-0.0575 -0.16104,-0.89257 -0.23009,-1.8557 l -0.12555,-1.75117 -0.31496,-0.31826 c -0.28017,-0.28266 -0.54887,-0.67016 -0.73569,-1.06018 -0.0461,-0.0964 -0.22245,0.27119 -0.66983,1.39671 -0.74984,1.88643 -0.92242,2.09039 -1.38086,1.63193 l -0.20541,-0.20539 0.86225,-2.15661 c 0.83451,-2.08721 0.86069,-2.17346 0.81402,-2.68096 l -0.0482,-0.52437 -1.1075,0.29295 c -1.83123,0.48439 -1.95751,0.50582 -2.10593,0.35741 -0.16189,-0.1619 -0.14748,-0.5518 0.0269,-0.72614 0.0696,-0.0696 0.84839,-0.32087 1.7308,-0.55854 l 1.60438,-0.43212 -0.38752,-0.16555 c -0.21314,-0.091 -0.44999,-0.22618 -0.52632,-0.30027 -0.2592,-0.25173 -0.57804,-0.95367 -0.63088,-1.38938 l -0.0527,-0.43412 -0.33922,-0.13077 c -0.48562,-0.18723 -1.18691,-0.25609 -1.56765,-0.15394 -0.18021,0.0484 -0.46986,0.19758 -0.64367,0.33164 -0.37506,0.28928 -0.59976,0.32274 -0.80291,0.11959 -0.24754,-0.24754 -0.15771,-0.53817 0.27938,-0.90391 0.7369,-0.6166 1.63017,-0.78515 2.70856,-0.51106 0.53141,0.13506 0.55707,0.13191 0.7007,-0.0859 0.082,-0.12434 0.32046,-0.41011 0.52991,-0.6351 l 0.38082,-0.40903 -0.0956,-0.53236 c -0.14,-0.7801 -0.0656,-1.54945 0.20014,-2.06767 0.41306,-0.80579 0.84793,-1.05756 1.20678,-0.69871 0.19878,0.19878 0.17987,0.3384 -0.0969,0.71586 -0.30957,0.42207 -0.40735,0.83249 -0.33117,1.38999 0.10351,0.7576 0.11988,0.77636 0.67194,0.77031 1.00004,-0.0112 1.82332,0.44351 2.14368,1.18338 0.0855,0.19756 0.16179,0.36547 0.16946,0.37313 0.008,0.008 0.20428,-0.7064 0.43693,-1.5868 0.23265,-0.8804 0.4838,-1.66153 0.55814,-1.73585 0.21914,-0.21915 0.55996,-0.18093 0.78727,0.0883 0.0452,0.0535 -0.0907,0.74651 -0.30975,1.58078 -0.21458,0.81706 -0.37936,1.49633 -0.36621,1.5095 0.0132,0.0132 0.25054,0.0444 0.52752,0.0695 0.47991,0.0433 0.60054,0.007 2.56253,-0.78249 1.23687,-0.4974 2.16246,-0.82329 2.31826,-0.81619 0.23832,0.0112 0.26347,0.0313 0.31046,0.25187 0.0918,0.43068 -0.14918,0.60071 -1.7562,1.23938 -0.79765,0.317 -1.4521,0.60076 -1.45432,0.63056 -0.002,0.0298 0.11903,0.11739 0.26956,0.19452 0.15048,0.0772 0.48376,0.31313 0.74064,0.52437 l 0.46701,0.38405 1.66239,0.11888 c 1.74042,0.12445 1.97317,0.19919 1.92136,0.61689 -0.0516,0.41582 -0.34395,0.53265 -1.24111,0.49593 -0.45517,-0.0187 -0.98509,-0.0401 -1.1776,-0.0478 l -0.35001,-0.014 0.20576,0.54734 c 0.11316,0.30105 0.24697,0.74102 0.29735,0.97773 0.12723,0.59775 0.0455,1.94871 -0.15087,2.4913 l -0.16365,0.45237 -0.50941,0.0173 c -0.28017,0.01 -0.68349,-0.0352 -0.89626,-0.0993 -0.37423,-0.11284 -0.46027,-0.18904 -2.63692,-2.33547 -1.23754,-1.22034 -2.31379,-2.2558 -2.39174,-2.30096 -0.29101,-0.16869 -0.81752,0.26644 -0.76523,0.63243 0.0101,0.068 1.05755,1.19162 2.32853,2.49698 2.25416,2.31516 2.31293,2.3822 2.3948,2.73271 0.10061,0.43053 0.11459,0.96935 0.031,1.19565 -0.0471,0.12775 -0.19303,0.2005 -0.65613,0.32504 z"
       id="path2113"
       inkscape:connector-curvature="0" />
  </g>
</svg>
