<?xml version="1.0" encoding="UTF-8" standalone="no"?>
<!-- Created with Inkscape (http://www.inkscape.org/) -->

<svg
     xmlns:dc="http://purl.org/dc/elements/1.1/"
     xmlns:cc="http://creativecommons.org/ns#"
     xmlns:rdf="http://www.w3.org/1999/02/22-rdf-syntax-ns#"
     xmlns:svg="http://www.w3.org/2000/svg"
     xmlns="http://www.w3.org/2000/svg"
     xmlns:sodipodi="http://sodipodi.sourceforge.net/DTD/sodipodi-0.dtd"
     xmlns:inkscape="http://www.inkscape.org/namespaces/inkscape"
     width="24"
     height="24"
     id="svg2160"
     sodipodi:version="0.32"
     inkscape:version="0.92+devel unknown"
     sodipodi:docname="gwy_rotate_3d-24.svg"
     inkscape:output_extension="org.inkscape.output.svg.inkscape"
     version="1.1"
     inkscape:export-filename="gwy_rotate-24.png"
     inkscape:export-xdpi="90"
     inkscape:export-ydpi="90">
    <defs
         id="defs2162">
        <filter
             height="1.2250096"
             y="-0.11250482"
             width="1.2571303"
             x="-0.12856513"
             id="filter8458"
             style="color-interpolation-filters:sRGB"
             inkscape:collect="always">
            <feGaussianBlur
                 id="feGaussianBlur8460"
                 stdDeviation="0.16275744"
                 inkscape:collect="always" />
        </filter>
    </defs>
    <sodipodi:namedview
         id="base"
         pagecolor="#ffffff"
         bordercolor="#666666"
         borderopacity="1.0"
         inkscape:pageopacity="0.0"
         inkscape:pageshadow="2"
         inkscape:zoom="47.363944"
         inkscape:cx="19.277578"
         inkscape:cy="15.259717"
         inkscape:current-layer="layer1"
         showgrid="true"
         inkscape:grid-bbox="true"
         inkscape:document-units="px"
         showguides="true"
         inkscape:guide-bbox="true"
         inkscape:window-width="1920"
         inkscape:window-height="1028"
         inkscape:window-x="0"
         inkscape:window-y="33"
         inkscape:window-maximized="1"
         inkscape:snap-global="false"
         inkscape:document-rotation="0">
        <inkscape:grid
             type="xygrid"
             id="grid1px"
             originx="0"
             originy="0"
             dotted="false"
             snapvisiblegridlinesonly="false"
             spacingx="1.0"
             spacingy="1.0"
             enabled="true"
             visible="true" />
    </sodipodi:namedview>
    <metadata
         id="metadata2165">
        <rdf:RDF>
            <cc:Work
                 rdf:about="">
                <dc:format>image/svg+xml</dc:format>
                <dc:type
                     rdf:resource="http://purl.org/dc/dcmitype/StillImage" />
                <dc:title />
            </cc:Work>
        </rdf:RDF>
    </metadata>
    <g
         id="layer1"
         inkscape:label="Layer 1"
         inkscape:groupmode="layer"
         transform="translate(0,-8)">
        <path
             inkscape:connector-curvature="0"
             id="path5078-9-4"
             d="M 12.447848,30.287736 C 6.092987,30.529213 3.177894,25.557506 3.177894,25.557506 L 1.56122,26.63564 1.458793,19.650228 l 6.22188,2.462267 -1.619935,1.131449 c 0,0 1.584955,3.703396 5.828871,3.710719 4.243915,0.0073 6.625638,-4.330941 6.625638,-4.330941 l 2.841489,2.002139 c 0,0 -2.551927,5.420317 -8.908888,5.661875 z"
             style="fill:#7db846;fill-opacity:1;stroke:none;stroke-width:0.99998635;stroke-linejoin:round;stroke-miterlimit:4;stroke-dasharray:none;stroke-dashoffset:0;stroke-opacity:1"
             sodipodi:nodetypes="cccccczccz" />
        <path
             inkscape:connector-curvature="0"
             id="path5078-9-4-0"
             d="m 11.622249,9.712265 c 6.35486,-0.2414776 9.269953,4.73023 9.269953,4.73023 l 1.616674,-1.078134 0.102427,6.985412 -6.221878,-2.462267 1.619934,-1.13145 c 0,0 -1.584954,-3.703395 -5.82887,-3.710718 -4.243917,-0.0073 -6.625639,4.330941 -6.625639,4.330941 L 2.71336,15.37414 c 0,0 2.551927,-5.4203174 8.908889,-5.661875 z"
             style="fill:#7db846;fill-opacity:1;stroke:none;stroke-width:1;stroke-linejoin:round;stroke-miterlimit:4;stroke-dasharray:none;stroke-dashoffset:0;stroke-opacity:1"
             sodipodi:nodetypes="cccccczccz" />
        <path
             style="opacity:0.75;fill:#ffffff;fill-rule:evenodd;stroke:none;stroke-width:1px;stroke-linecap:butt;stroke-linejoin:miter;stroke-opacity:1;filter:url(#filter8458)"
             d="m 247.77811,607.10722 2.04551,-1.97639 c 3.72195,-2.30129 6.47029,-2.33894 10.11737,-0.82586 -1.41374,-0.11516 -7.27065,-0.71672 -10.04431,1.95056 -1.09475,1.05276 -1.29524,1.31798 -1.29524,1.31798 z"
             id="path8400"
             inkscape:connector-curvature="0"
             sodipodi:nodetypes="cccscc"
             transform="matrix(0.98991494,-0.116798,0.11794146,0.98031758,-313.41287,-551.17548)" />
        <path
             transform="matrix(-0.98991494,0.116798,-0.11794146,-0.98031758,336.35983,590.1318)"
             sodipodi:nodetypes="cccscc"
             inkscape:connector-curvature="0"
             id="path8135"
             d="m 247.77811,607.10722 2.04551,-1.97639 c 3.39429,-1.62998 4.14901,-2.07894 8.56625,0.0722 -4.22982,-1.42329 -5.35674,-1.07715 -8.49319,1.0525 -1.25447,0.85178 -1.29524,1.31798 -1.29524,1.31798 z"
             style="opacity:0.75;fill:#ffffff;fill-rule:evenodd;stroke:none;stroke-width:1px;stroke-linecap:butt;stroke-linejoin:miter;stroke-opacity:1;filter:url(#filter8458)" />
        <path
             style="opacity:0.75;fill:#ffffff;fill-rule:evenodd;stroke:none;stroke-width:1px;stroke-linecap:butt;stroke-linejoin:miter;stroke-opacity:1;filter:url(#filter8458)"
             d="m 248.73043,606.36076 1.78592,-1.69521 1.77753,-0.51768 c -1.4472,1.33053 -2.85561,2.58935 -4.307,3.89445 z"
             id="path8139"
             inkscape:connector-curvature="0"
             sodipodi:nodetypes="ccccc"
             transform="matrix(-0.67958389,-0.72765417,-0.71798959,0.67947199,607.19723,-206.93713)" />
        <path
             transform="matrix(-0.76463182,-0.63347005,-0.63967175,0.75721861,584.89484,-273.87936)"
             style="opacity:0.26000001;fill:#000000;fill-opacity:1;fill-rule:evenodd;stroke:none;stroke-width:1px;stroke-linecap:butt;stroke-linejoin:miter;stroke-opacity:1;filter:url(#filter8458)"
             d="m 253.47872,607.61144 1.81198,-1.81975 0.89043,-1.02933 c 0,0 0.0967,0.57698 -0.92284,1.70274 -1.01955,1.12575 -1.31704,1.26648 -1.31704,1.26648 z"
             id="path8141"
             inkscape:connector-curvature="0"
             sodipodi:nodetypes="cccscc" />
        <path
             sodipodi:nodetypes="cccccczccz"
             style="fill:none;fill-opacity:1;stroke:#000000;stroke-width:0.99998635;stroke-linejoin:round;stroke-miterlimit:4;stroke-dasharray:none;stroke-dashoffset:0;stroke-opacity:1"
             d="M 12.447848,30.287736 C 6.092987,30.529213 3.177894,25.557506 3.177894,25.557506 L 1.56122,26.63564 1.458793,19.650228 l 6.22188,2.462267 -1.619935,1.131449 c 0,0 1.584955,3.703396 5.828871,3.710719 4.243915,0.0073 6.625638,-4.330941 6.625638,-4.330941 l 2.841489,2.002139 c 0,0 -2.551927,5.420317 -8.908888,5.661875 z"
             id="path4285"
             inkscape:connector-curvature="0" />
        <path
             style="color:#000000;overflow:visible;opacity:0.75;vector-effect:none;fill:#ffffff;fill-opacity:1;stroke:none;stroke-width:0.99207175px;stroke-linecap:butt;stroke-linejoin:miter;stroke-miterlimit:4;stroke-dasharray:none;stroke-dashoffset:0;stroke-opacity:1;paint-order:fill markers stroke;filter:url(#filter8458)"
             d="m 17.452727,17.820721 1.233912,-0.808572 0.404229,0.439379 -0.658214,0.57998 z"
             id="path194"
             inkscape:connector-curvature="0"
             sodipodi:nodetypes="ccccc" />
        <path
             style="color:#000000;overflow:visible;opacity:0.75;vector-effect:none;fill:#ffffff;fill-opacity:1;stroke:none;stroke-width:0.99207175px;stroke-linecap:butt;stroke-linejoin:miter;stroke-miterlimit:4;stroke-dasharray:none;stroke-dashoffset:0;stroke-opacity:1;paint-order:fill markers stroke;filter:url(#filter8458)"
             d="m 21.085852,15.103565 1.008974,-0.857874 -0.200522,1.033625 -0.316352,0.281203 z"
             id="path216"
             inkscape:connector-curvature="0"
             sodipodi:nodetypes="ccccc" />
        <path
             sodipodi:nodetypes="cccccczccz"
             style="fill:none;fill-opacity:1;stroke:#000000;stroke-width:0.99998635;stroke-linejoin:round;stroke-miterlimit:4;stroke-dasharray:none;stroke-dashoffset:0;stroke-opacity:1"
             d="m 11.622249,9.712265 c 6.35486,-0.2414776 9.269953,4.73023 9.269953,4.73023 l 1.616674,-1.078134 0.102427,6.985412 -6.221878,-2.462267 1.619934,-1.13145 c 0,0 -1.584954,-3.703395 -5.82887,-3.710718 -4.243917,-0.0073 -6.625639,4.330941 -6.625639,4.330941 L 2.71336,15.37414 c 0,0 2.551927,-5.4203174 8.908889,-5.661875 z"
             id="path4283"
             inkscape:connector-curvature="0" />
    </g>
</svg>
