<?xml version="1.0" encoding="UTF-8" standalone="no"?>
<!-- Created with Inkscape (http://www.inkscape.org/) -->

<svg
   xmlns:dc="http://purl.org/dc/elements/1.1/"
   xmlns:cc="http://creativecommons.org/ns#"
   xmlns:rdf="http://www.w3.org/1999/02/22-rdf-syntax-ns#"
   xmlns:svg="http://www.w3.org/2000/svg"
   xmlns="http://www.w3.org/2000/svg"
   xmlns:sodipodi="http://sodipodi.sourceforge.net/DTD/sodipodi-0.dtd"
   xmlns:inkscape="http://www.inkscape.org/namespaces/inkscape"
   width="24"
   height="24"
   id="svg2160"
   sodipodi:version="0.32"
   inkscape:version="0.92+devel unknown"
   sodipodi:docname="gwy_rotate_180-24.svg"
   inkscape:output_extension="org.inkscape.output.svg.inkscape"
   version="1.1"
   inkscape:export-filename="gwy_rotate-24.png"
   inkscape:export-xdpi="90"
   inkscape:export-ydpi="90">
  <defs
     id="defs2162">
    <filter
       height="1.2250096"
       y="-0.11250482"
       width="1.2571303"
       x="-0.12856513"
       id="filter8458"
       style="color-interpolation-filters:sRGB"
       inkscape:collect="always">
      <feGaussianBlur
         id="feGaussianBlur8460"
         stdDeviation="0.16275744"
         inkscape:collect="always" />
    </filter>
  </defs>
  <sodipodi:namedview
     id="base"
     pagecolor="#ffffff"
     bordercolor="#666666"
     borderopacity="1.0"
     inkscape:pageopacity="0.0"
     inkscape:pageshadow="2"
     inkscape:zoom="34.840211"
     inkscape:cx="11.685488"
     inkscape:cy="12.618414"
     inkscape:current-layer="layer1"
     showgrid="true"
     inkscape:grid-bbox="true"
     inkscape:document-units="px"
     showguides="true"
     inkscape:guide-bbox="true"
     inkscape:window-width="1920"
     inkscape:window-height="1149"
     inkscape:window-x="0"
     inkscape:window-y="32"
     inkscape:window-maximized="1"
     inkscape:snap-global="false"
     inkscape:document-rotation="0">
    <inkscape:grid
       type="xygrid"
       id="grid1px"
       originx="0"
       originy="0"
       dotted="false"
       snapvisiblegridlinesonly="false"
       spacingx="1.0"
       spacingy="1.0"
       enabled="true"
       visible="true" />
  </sodipodi:namedview>
  <metadata
     id="metadata2165">
    <rdf:RDF>
      <cc:Work
         rdf:about="">
        <dc:format>image/svg+xml</dc:format>
        <dc:type
           rdf:resource="http://purl.org/dc/dcmitype/StillImage" />
        <dc:title />
      </cc:Work>
    </rdf:RDF>
  </metadata>
  <g
     id="layer1"
     inkscape:label="Layer 1"
     inkscape:groupmode="layer"
     transform="translate(0,-8)">
    <path
       inkscape:connector-curvature="0"
       id="path5078-9-4"
       d="m 22.322784,19.5872 c 0.241477,6.354861 -4.73023,9.269954 -4.73023,9.269954 l 1.078134,1.616674 -6.985412,0.102427 2.462267,-6.22188 1.131449,1.619935 c 0,0 3.703396,-1.584955 3.710719,-5.828871 0.0073,-4.243915 -4.330941,-6.625638 -4.330941,-6.625638 l 2.002139,-2.841489 c 0,0 5.420317,2.551927 5.661875,8.908888 z"
       style="fill:#7db846;fill-opacity:1;stroke:none;stroke-width:0.99998635;stroke-linejoin:round;stroke-miterlimit:4;stroke-dasharray:none;stroke-dashoffset:0;stroke-opacity:1"
       sodipodi:nodetypes="cccccczccz" />
    <path
       inkscape:connector-curvature="0"
       id="path5078-9-4-0"
       d="M 1.747313,20.412799 C 1.5058354,14.057939 6.4775431,11.142846 6.4775431,11.142846 L 5.3994088,9.5261721 12.384821,9.423745 9.9225541,15.645623 8.7911044,14.025689 c 0,0 -3.7033954,1.584954 -3.7107188,5.82887 -0.00731,4.243917 4.3309414,6.625639 4.3309414,6.625639 l -2.0021389,2.84149 c 0,0 -5.4203175,-2.551927 -5.6618751,-8.908889 z"
       style="fill:#7db846;fill-opacity:1;stroke:none;stroke-width:1;stroke-linejoin:round;stroke-miterlimit:4;stroke-dasharray:none;stroke-dashoffset:0;stroke-opacity:1"
       sodipodi:nodetypes="cccccczccz" />
    <path
       style="opacity:0.75;fill:#ffffff;fill-rule:evenodd;stroke:none;stroke-width:1px;stroke-linecap:butt;stroke-linejoin:miter;stroke-opacity:1;filter:url(#filter8458)"
       d="m 247.77811,607.10722 2.04551,-1.97639 c 3.084,-2.18671 7.16485,-2.19754 10.11737,-0.82586 -1.41374,-0.11516 -7.27065,-0.71672 -10.04431,1.95056 -1.09475,1.05276 -1.29524,1.31798 -1.29524,1.31798 z"
       id="path8400"
       inkscape:connector-curvature="0"
       sodipodi:nodetypes="cccscc"
       transform="matrix(-0.116798,0.98991494,0.98031758,0.11794146,-559.3106,-305.38616)" />
    <path
       transform="matrix(0.116798,-0.98991494,-0.98031758,-0.11794146,582.15756,344.47789)"
       sodipodi:nodetypes="cccscc"
       inkscape:connector-curvature="0"
       id="path8135"
       d="m 247.77811,607.10722 2.04551,-1.97639 c 3.084,-2.18671 6.53572,-2.30166 9.97068,1.1396 -3.7021,-2.69151 -7.12396,-2.68218 -9.89762,-0.0149 -1.09475,1.05276 -1.29524,1.31798 -1.29524,1.31798 z"
       style="opacity:0.75;fill:#ffffff;fill-rule:evenodd;stroke:none;stroke-width:1px;stroke-linecap:butt;stroke-linejoin:miter;stroke-opacity:1;filter:url(#filter8458)" />
    <path
       transform="matrix(0.71872527,-0.6834558,-0.6768296,-0.72576163,239.28,620.73618)"
       sodipodi:nodetypes="ccccc"
       inkscape:connector-curvature="0"
       id="path8137"
       d="m 248.50329,606.59306 1.32033,-1.46223 2.39304,-1.06565 c -1.38665,1.37707 -2.63431,2.57028 -4.14575,3.81106 z"
       style="opacity:0.75;fill:#ffffff;fill-rule:evenodd;stroke:none;stroke-width:1px;stroke-linecap:butt;stroke-linejoin:miter;stroke-opacity:1;filter:url(#filter8458)" />
    <path
       style="opacity:0.75;fill:#ffffff;fill-rule:evenodd;stroke:none;stroke-width:1px;stroke-linecap:butt;stroke-linejoin:miter;stroke-opacity:1;filter:url(#filter8458)"
       d="m 248.50329,606.59306 1.32033,-1.46223 2.39304,-1.06565 c -1.38665,1.37707 -2.63431,2.57028 -4.14575,3.81106 z"
       id="path8139"
       inkscape:connector-curvature="0"
       sodipodi:nodetypes="ccccc"
       transform="matrix(-0.35836628,-0.92891791,-0.91991192,0.3618747,660.45559,40.942038)" />
    <path
       transform="matrix(-0.63347005,0.76463182,0.75721861,0.63967175,-281.84431,-552.85979)"
       style="opacity:0.26000001;fill:#000000;fill-opacity:1;fill-rule:evenodd;stroke:none;stroke-width:1px;stroke-linecap:butt;stroke-linejoin:miter;stroke-opacity:1;filter:url(#filter8458)"
       d="m 253.47872,607.61144 1.81198,-1.81975 0.89043,-1.02933 c 0,0 0.0967,0.57698 -0.92284,1.70274 -1.01955,1.12575 -1.31704,1.26648 -1.31704,1.26648 z"
       id="path8141"
       inkscape:connector-curvature="0"
       sodipodi:nodetypes="cccscc" />
    <path
       sodipodi:nodetypes="cccccczccz"
       style="fill:none;fill-opacity:1;stroke:#000000;stroke-width:0.99998635;stroke-linejoin:round;stroke-miterlimit:4;stroke-dasharray:none;stroke-dashoffset:0;stroke-opacity:1"
       d="M 1.747313,20.412799 C 1.5058354,14.057939 6.4775431,11.142846 6.4775431,11.142846 L 5.3994088,9.5261721 12.384821,9.423745 9.9225541,15.645623 8.7911044,14.025689 c 0,0 -3.7033954,1.584954 -3.7107188,5.82887 -0.00731,4.243917 4.3309414,6.625639 4.3309414,6.625639 l -2.0021389,2.84149 c 0,0 -5.4203175,-2.551927 -5.6618751,-8.908889 z"
       id="path4283"
       inkscape:connector-curvature="0" />
    <path
       sodipodi:nodetypes="cccccczccz"
       style="fill:none;fill-opacity:1;stroke:#000000;stroke-width:0.99998635;stroke-linejoin:round;stroke-miterlimit:4;stroke-dasharray:none;stroke-dashoffset:0;stroke-opacity:1"
       d="m 22.322784,19.5872 c 0.241477,6.354861 -4.73023,9.269954 -4.73023,9.269954 l 1.078134,1.616674 -6.985412,0.102427 2.462267,-6.22188 1.131449,1.619935 c 0,0 3.703396,-1.584955 3.710719,-5.828871 0.0073,-4.243915 -4.330941,-6.625638 -4.330941,-6.625638 l 2.002139,-2.841489 c 0,0 5.420317,2.551927 5.661875,8.908888 z"
       id="path4285"
       inkscape:connector-curvature="0" />
  </g>
</svg>
