<?xml version="1.0" encoding="UTF-8" standalone="no"?>
<!-- Created with Inkscape (http://www.inkscape.org/) -->

<svg
     xmlns:dc="http://purl.org/dc/elements/1.1/"
     xmlns:cc="http://creativecommons.org/ns#"
     xmlns:rdf="http://www.w3.org/1999/02/22-rdf-syntax-ns#"
     xmlns:svg="http://www.w3.org/2000/svg"
     xmlns="http://www.w3.org/2000/svg"
     xmlns:sodipodi="http://sodipodi.sourceforge.net/DTD/sodipodi-0.dtd"
     xmlns:inkscape="http://www.inkscape.org/namespaces/inkscape"
     width="24"
     height="24"
     viewBox="0 0 24 24"
     id="svg8798"
     version="1.1"
     inkscape:version="0.92+devel unknown"
     sodipodi:docname="gwy_fractal_measure-24.svg">
    <defs
         id="defs8800" />
    <sodipodi:namedview
         id="base"
         pagecolor="#ffffff"
         bordercolor="#666666"
         borderopacity="1.0"
         inkscape:pageopacity="0.0"
         inkscape:pageshadow="2"
         inkscape:zoom="30.228461"
         inkscape:cx="12.720968"
         inkscape:cy="10.017425"
         inkscape:document-units="px"
         inkscape:current-layer="layer1"
         showgrid="true"
         inkscape:window-width="1920"
         inkscape:window-height="1028"
         inkscape:window-x="0"
         inkscape:window-y="33"
         inkscape:window-maximized="1"
         inkscape:document-rotation="0"
         inkscape:snap-nodes="true"
         inkscape:snap-bbox="true"
         inkscape:snap-global="false">
        <inkscape:grid
             type="xygrid"
             id="grid1px"
             originx="0"
             originy="0"
             dotted="false"
             snapvisiblegridlinesonly="false"
             spacingx="1.0"
             spacingy="1.0"
             enabled="true"
             visible="true" />
    </sodipodi:namedview>
    <metadata
         id="metadata8803">
        <rdf:RDF>
            <cc:Work
                 rdf:about="">
                <dc:format>image/svg+xml</dc:format>
                <dc:type
                     rdf:resource="http://purl.org/dc/dcmitype/StillImage" />
                <dc:title></dc:title>
            </cc:Work>
        </rdf:RDF>
    </metadata>
    <g
         inkscape:label="Layer 1"
         inkscape:groupmode="layer"
         id="layer1"
         transform="translate(-18.260046,-413.54694)">
        <path
             style="fill:#000000;stroke:#000000;stroke-width:0.29388463;stroke-miterlimit:4;stroke-dasharray:none;stroke-opacity:1"
             d="m 34.979779,436.19982 c -0.274935,-0.11051 -0.433852,-0.33636 -0.433852,-0.61656 0,-0.15387 0.03091,-0.24406 0.147179,-0.42925 0.09086,-0.14472 0.09231,-0.15061 0.09003,-0.36372 -0.0025,-0.24994 0.02089,-0.34016 0.128469,-0.49185 l 0.0775,-0.10927 -0.18044,-0.009 c -0.212196,-0.0107 -0.325895,-0.0588 -0.461474,-0.19475 -0.05198,-0.0522 -0.121064,-0.10877 -0.153519,-0.12582 -0.115784,-0.0608 -0.301948,-0.21913 -0.358627,-0.30495 -0.08834,-0.13377 -0.118074,-0.25114 -0.10751,-0.42443 0.01079,-0.17682 0.05514,-0.28421 0.175521,-0.42484 0.07614,-0.089 0.08085,-0.10295 0.05728,-0.17055 -0.01412,-0.0406 -0.02569,-0.0985 -0.02569,-0.12893 0,-0.0549 -0.0025,-0.0553 -0.266868,-0.0553 -0.290109,0 -0.375496,-0.0196 -0.524291,-0.12081 -0.07933,-0.0539 -0.100092,-0.0598 -0.110967,-0.0314 -0.0167,0.0435 -0.37482,0.27564 -0.482647,0.31281 -0.171284,0.0591 -0.431256,0.0266 -0.571861,-0.0712 -0.05541,-0.0386 -0.07615,-0.041 -0.154376,-0.0174 -0.182514,0.0547 -0.62602,-0.035 -0.8147,-0.1649 -0.262741,-0.18076 -0.348286,-0.54987 -0.195633,-0.8441 0.05336,-0.10285 0.05888,-0.13113 0.03756,-0.1923 -0.0379,-0.10873 -0.01437,-0.34938 0.0454,-0.46403 0.02845,-0.0546 0.04059,-0.0993 0.02698,-0.0993 -0.01361,0 -0.07217,-0.0326 -0.130107,-0.0725 -0.05794,-0.0399 -0.17093,-0.0943 -0.251103,-0.12117 -0.260354,-0.087 -0.412745,-0.22795 -0.485533,-0.44918 -0.03754,-0.11407 -0.0229,-0.37658 0.02704,-0.48569 0.06701,-0.14637 0.06596,-0.1779 -0.0073,-0.22121 -0.08097,-0.0479 -0.191208,-0.20384 -0.231609,-0.32775 -0.02861,-0.0878 -0.02417,-0.34087 0.0073,-0.415 0.0082,-0.0195 0.0059,-0.0496 -0.0052,-0.0669 -0.01575,-0.0248 -0.04515,-0.0136 -0.135144,0.051 -0.06325,0.0455 -0.144559,0.09 -0.180681,0.0991 -0.0479,0.012 -0.07939,0.0457 -0.116361,0.12432 -0.06154,0.13092 -0.186484,0.25992 -0.312069,0.32219 -0.07233,0.0359 -0.141369,0.0461 -0.307486,0.046 -0.206257,-2.9e-4 -0.215193,0.002 -0.240363,0.0588 -0.04112,0.0929 -0.280879,0.36681 -0.376051,0.42966 -0.04746,0.0314 -0.12701,0.0704 -0.176782,0.0868 -0.11917,0.0392 -0.355596,0.0218 -0.472992,-0.0347 -0.115883,-0.0558 -0.248442,-0.18627 -0.300224,-0.2954 -0.02159,-0.0455 -0.0606,-0.10205 -0.08669,-0.12566 -0.04592,-0.0415 -0.05023,-0.0415 -0.136285,8.8e-4 -0.06391,0.0317 -0.140027,0.0442 -0.271027,0.0442 -0.16938,0 -0.182162,0.004 -0.182209,0.0494 -9.4e-5,0.14439 -0.134851,0.36758 -0.27969,0.46343 -0.05241,0.0347 -0.145833,0.0759 -0.207595,0.0916 -0.06176,0.0158 -0.154614,0.0565 -0.206338,0.0907 -0.137637,0.091 -0.256129,0.12245 -0.419644,0.1114 -0.239319,-0.0162 -0.44019,-0.14905 -0.545085,-0.36062 -0.05433,-0.10959 -0.06327,-0.4601 -0.01528,-0.60042 0.02363,-0.0691 0.0224,-0.10186 -0.007,-0.18517 -0.04218,-0.11954 -0.04619,-0.3017 -0.0094,-0.42467 0.0145,-0.0484 0.0727,-0.14991 0.12931,-0.22562 0.05662,-0.0757 0.10295,-0.14652 0.10295,-0.15737 0,-0.0109 0.03079,-0.0645 0.06844,-0.11922 l 0.06845,-0.0995 -0.104344,-0.0659 c -0.11487,-0.0727 -0.221718,-0.21278 -0.266083,-0.3489 -0.03171,-0.0973 -0.03196,-0.0975 -0.09006,-0.0661 -0.232805,0.12576 -0.327272,0.15428 -0.511043,0.15428 -0.216095,0 -0.323406,-0.0413 -0.458465,-0.17634 -0.151064,-0.15106 -0.176754,-0.23319 -0.173109,-0.55345 l 0.0032,-0.28307 -0.114852,-0.0273 c -0.124722,-0.0296 -0.31146,-0.14558 -0.349792,-0.21721 -0.02121,-0.0396 -0.0434,-0.0433 -0.194317,-0.0321 -0.0937,0.007 -0.226305,0.0328 -0.294677,0.0574 -0.215482,0.0775 -0.468951,0.0488 -0.639096,-0.0723 -0.12005,-0.0855 -0.280831,-0.0428 -0.363043,0.0964 -0.04776,0.0808 -0.20383,0.19111 -0.327673,0.23148 -0.119324,0.0389 -0.355996,0.0214 -0.472992,-0.0351 -0.121076,-0.0584 -0.254587,-0.19302 -0.305323,-0.30797 l -0.04026,-0.0912 -0.791548,-0.007 c -0.481989,-0.005 -0.823732,-0.0172 -0.873838,-0.0328 -0.264369,-0.0821 -0.446706,-0.3344 -0.446706,-0.61827 0,-0.28451 0.180758,-0.53458 0.446706,-0.618 0.05074,-0.016 0.385745,-0.0286 0.873838,-0.0331 l 0.791548,-0.007 0.04026,-0.0912 c 0.05074,-0.11494 0.184247,-0.2496 0.305323,-0.30794 0.116996,-0.0563 0.353668,-0.0739 0.472992,-0.0351 0.123843,0.0404 0.279912,0.15063 0.327673,0.23148 0.08221,0.13917 0.242993,0.18186 0.363043,0.0964 0.170145,-0.12116 0.423614,-0.14985 0.639096,-0.0724 0.06837,0.0246 0.200978,0.0505 0.294677,0.0574 0.150914,0.0113 0.173097,0.008 0.194317,-0.0321 0.03833,-0.0716 0.22507,-0.18758 0.349792,-0.2172 l 0.114852,-0.0273 -0.0032,-0.28308 c -0.0037,-0.32026 0.02206,-0.40239 0.173109,-0.55346 0.135059,-0.13505 0.24237,-0.17633 0.458465,-0.17633 0.183771,0 0.278238,0.0286 0.511043,0.15427 0.0581,0.0315 0.05835,0.0312 0.09006,-0.066 0.04437,-0.13612 0.151213,-0.27623 0.266083,-0.3489 l 0.104344,-0.0659 -0.06845,-0.0995 c -0.03765,-0.0548 -0.06844,-0.10837 -0.06844,-0.11923 0,-0.0109 -0.04633,-0.0816 -0.10295,-0.15738 -0.05662,-0.0757 -0.114811,-0.17723 -0.12931,-0.22561 -0.03683,-0.12297 -0.03284,-0.30513 0.0094,-0.42467 0.0294,-0.0834 0.03063,-0.11605 0.007,-0.18517 -0.04797,-0.14031 -0.03904,-0.49083 0.01528,-0.60043 0.104895,-0.21155 0.305766,-0.34445 0.545085,-0.36061 0.163515,-0.0111 0.282007,0.0205 0.419644,0.11141 0.05173,0.0342 0.145411,0.0752 0.208193,0.0912 0.254644,0.0648 0.485197,0.32816 0.48543,0.55454 4.7e-5,0.046 0.01282,0.0494 0.182209,0.0494 0.131,0 0.20712,0.0123 0.271027,0.0442 0.08606,0.0428 0.09036,0.0428 0.136285,8.9e-4 0.02609,-0.0236 0.06509,-0.0801 0.08669,-0.12567 0.05177,-0.10912 0.184341,-0.23954 0.300224,-0.29539 0.117396,-0.0565 0.353822,-0.074 0.472992,-0.0347 0.04978,0.0164 0.129323,0.0554 0.176782,0.0868 0.09517,0.0628 0.334926,0.33679 0.376051,0.42966 0.02518,0.0568 0.0341,0.059 0.240363,0.0587 0.166117,-1.9e-4 0.235165,0.0101 0.307486,0.046 0.125585,0.0623 0.250524,0.19127 0.312069,0.3222 0.03697,0.0787 0.06846,0.11229 0.116361,0.12431 0.03612,0.009 0.117429,0.0537 0.180681,0.0991 0.09,0.0646 0.119384,0.0757 0.135144,0.051 0.01106,-0.0173 0.01339,-0.0475 0.0052,-0.0669 -0.03145,-0.0742 -0.03585,-0.32723 -0.0073,-0.41498 0.0404,-0.12393 0.150639,-0.27993 0.231609,-0.32776 0.07332,-0.0433 0.07437,-0.0748 0.0073,-0.2212 -0.04995,-0.10913 -0.06459,-0.37164 -0.02704,-0.4857 0.07278,-0.22123 0.225179,-0.36221 0.485533,-0.44919 0.08017,-0.0268 0.193166,-0.0813 0.251103,-0.12117 0.05794,-0.0399 0.116481,-0.0724 0.130107,-0.0724 0.01362,0 0.0016,-0.0447 -0.02698,-0.0993 -0.05977,-0.11465 -0.08331,-0.35531 -0.0454,-0.46405 0.02134,-0.0611 0.01582,-0.0894 -0.03756,-0.19228 -0.07369,-0.14203 -0.09682,-0.36776 -0.05183,-0.50579 0.04332,-0.13287 0.147004,-0.273 0.254798,-0.34433 0.190456,-0.12603 0.628973,-0.21233 0.807359,-0.15889 0.07824,0.0234 0.09897,0.0211 0.154376,-0.0175 0.140605,-0.0979 0.400577,-0.13027 0.57186,-0.0712 0.107828,0.0372 0.465939,0.26927 0.482648,0.31282 0.01087,0.0283 0.03164,0.0224 0.110967,-0.0315 0.148795,-0.10113 0.234182,-0.12081 0.524292,-0.12081 0.264466,0 0.266867,-6.3e-4 0.266867,-0.0553 0,-0.0305 0.01157,-0.0885 0.02569,-0.12893 0.02357,-0.0676 0.01888,-0.0816 -0.05728,-0.17055 -0.120376,-0.14064 -0.164741,-0.24803 -0.175522,-0.42484 -0.01056,-0.1733 0.01916,-0.29067 0.10751,-0.42444 0.05667,-0.0858 0.242843,-0.24411 0.358628,-0.30495 0.03246,-0.0169 0.101539,-0.0737 0.153519,-0.12583 0.135579,-0.13602 0.249278,-0.18401 0.461474,-0.19473 l 0.180441,-0.009 -0.0775,-0.10927 c -0.107582,-0.15169 -0.131147,-0.24191 -0.128469,-0.49185 0.0023,-0.21331 9.73e-4,-0.21887 -0.09036,-0.36372 -0.123017,-0.19528 -0.154042,-0.29837 -0.142266,-0.47271 0.01616,-0.23933 0.149057,-0.44019 0.360611,-0.54508 0.122566,-0.0607 0.431072,-0.0647 0.551726,-0.007 0.04526,0.0217 0.151062,0.0434 0.23511,0.0483 0.335623,0.0196 0.579546,0.25368 0.606922,0.58235 0.0077,0.0917 0.0305,0.15812 0.07868,0.22844 l 0.06791,0.0991 0.120444,-0.0912 c 0.147014,-0.11127 0.280639,-0.15135 0.459643,-0.13785 0.244471,0.0184 0.425644,0.14749 0.555833,0.39599 0.03703,0.0706 0.08464,0.16024 0.105799,0.19904 0.02653,0.0487 0.03847,0.12888 0.03847,0.25862 0,0.21824 -0.04118,0.32331 -0.181851,0.46399 l -0.08937,0.0893 0.06508,0.0235 c 0.298428,0.10811 0.491697,0.37869 0.528338,0.73969 0.0553,0.54484 0.05175,0.58615 -0.06604,0.76948 -0.03098,0.0482 -0.05632,0.10329 -0.05632,0.12239 0,0.0306 0.01166,0.0306 0.097,6.2e-4 0.129049,-0.0455 0.361121,-0.0433 0.504218,0.005 0.119312,0.0401 0.299755,0.15067 0.332469,0.20377 0.01018,0.0165 0.05171,0.0532 0.09229,0.0815 0.04059,0.0283 0.108439,0.10545 0.150789,0.17145 0.07032,0.10957 0.08304,0.11878 0.146624,0.10606 0.03829,-0.008 0.11986,-0.0139 0.181253,-0.0139 h 0.111626 l 0.01079,-0.11167 c 0.03003,-0.31106 0.305237,-0.56562 0.637464,-0.58965 0.221145,-0.016 0.395332,0.0443 0.627591,0.21743 0.236396,0.17616 0.345828,0.33703 0.350605,0.51538 0.0013,0.0463 0.03267,0.0968 0.102827,0.16494 0.05557,0.0541 0.126985,0.15093 0.1587,0.21538 0.04956,0.10071 0.05767,0.15026 0.05767,0.3523 0,0.17775 -0.01002,0.25463 -0.04114,0.31513 -0.02262,0.044 -0.04114,0.11354 -0.04114,0.15451 0,0.17739 -0.149003,0.46642 -0.280488,0.5441 -0.05652,0.0333 -0.119198,0.11905 -0.119198,0.16292 0,0.006 0.06215,0.0107 0.138109,0.0107 0.265936,0 0.484664,0.12406 0.631157,0.35798 0.119881,0.19143 0.126322,0.20923 0.151155,0.41789 0.06552,0.55051 0.0579,0.60908 -0.114324,0.87775 l -0.107559,0.16779 0.03099,0.10614 c 0.04541,0.1556 0.05279,0.29286 0.02792,0.519 -0.02473,0.225 -0.06449,0.32584 -0.182908,0.46421 -0.04443,0.0519 -0.08079,0.11972 -0.08079,0.15072 0,0.14789 -0.158803,0.49013 -0.270412,0.58274 -0.02159,0.0179 -0.06098,0.0788 -0.08751,0.13522 -0.02653,0.0564 -0.140302,0.20519 -0.25283,0.33056 l -0.204592,0.22794 0.20451,0.22761 c 0.112484,0.12518 0.226258,0.27385 0.25283,0.33039 0.02657,0.0565 0.06599,0.11745 0.08759,0.13537 0.111609,0.0927 0.270412,0.43486 0.270412,0.58275 0,0.031 0.03635,0.0988 0.08079,0.15074 0.118423,0.13836 0.158164,0.2392 0.182908,0.4642 0.02486,0.22613 0.01749,0.3634 -0.02792,0.51899 l -0.03098,0.10613 0.10756,0.16781 c 0.172216,0.26867 0.179841,0.32725 0.114324,0.87775 -0.02483,0.20865 -0.03127,0.22646 -0.151156,0.41789 -0.146492,0.23391 -0.36522,0.35797 -0.631156,0.35797 -0.07596,0 -0.138109,0.005 -0.138109,0.0107 0,0.0439 0.06267,0.12953 0.119198,0.16292 0.131485,0.0777 0.280487,0.3667 0.280487,0.54409 0,0.0409 0.01853,0.1105 0.04114,0.15452 0.0311,0.0605 0.04114,0.13738 0.04114,0.31513 0,0.20204 -0.0081,0.25159 -0.05767,0.35229 -0.03172,0.0645 -0.10313,0.16137 -0.1587,0.21538 -0.07015,0.0682 -0.101583,0.1186 -0.102828,0.16495 -0.0048,0.17836 -0.114209,0.33922 -0.350604,0.51537 -0.23226,0.17308 -0.406445,0.23342 -0.627592,0.21743 -0.332226,-0.0241 -0.607417,-0.27859 -0.637464,-0.58964 l -0.01078,-0.11168 H 39.43615 c -0.0614,0 -0.142959,-0.006 -0.181253,-0.0139 -0.06359,-0.0126 -0.07631,-0.004 -0.146624,0.10606 -0.04236,0.066 -0.110204,0.14315 -0.15079,0.17145 -0.04058,0.0283 -0.08211,0.065 -0.09229,0.0814 -0.03272,0.0532 -0.213157,0.16369 -0.332469,0.20378 -0.143098,0.048 -0.37517,0.0503 -0.504218,0.005 -0.08534,-0.0301 -0.097,-0.0301 -0.097,6.3e-4 0,0.0191 0.02534,0.0742 0.05632,0.12239 0.117784,0.18333 0.121329,0.22463 0.06604,0.76948 -0.03664,0.36099 -0.22991,0.63157 -0.528338,0.73968 l -0.06508,0.0235 0.08937,0.0893 c 0.14067,0.14067 0.181851,0.24574 0.181851,0.46398 0,0.12974 -0.01194,0.20997 -0.03847,0.25862 -0.02115,0.0388 -0.06877,0.12836 -0.105798,0.19906 -0.130189,0.24849 -0.311362,0.37756 -0.555833,0.39598 -0.179003,0.0134 -0.312629,-0.0267 -0.459644,-0.13786 l -0.120443,-0.0912 -0.06791,0.0991 c -0.04817,0.0703 -0.07104,0.13672 -0.07868,0.22843 -0.02738,0.32868 -0.271299,0.56273 -0.606922,0.58236 -0.08405,0.005 -0.189849,0.0262 -0.235109,0.0473 -0.102207,0.0477 -0.387012,0.0607 -0.483073,0.0221 z"
             id="path6419"
             inkscape:connector-curvature="0" />
        <path
             style="fill:#7db846;fill-opacity:1;stroke-width:0.02351093"
             d="m 35.1409,435.60336 c -0.0087,-0.0229 9.72e-4,-0.0504 0.02425,-0.0672 0.02149,-0.0158 0.03909,-0.0463 0.03909,-0.0679 0,-0.0246 0.04402,-0.0589 0.117522,-0.0915 0.105319,-0.0466 0.117528,-0.0599 0.117556,-0.12655 1.5e-5,-0.041 0.0059,-0.0898 0.01311,-0.1086 0.0083,-0.0215 -0.0054,-0.0389 -0.03731,-0.0473 -0.06727,-0.0176 -0.05203,-0.0963 0.02067,-0.10658 0.04621,-0.006 0.05234,-0.0173 0.03934,-0.0691 -0.0084,-0.0337 -0.03584,-0.09 -0.06085,-0.12516 -0.02499,-0.0351 -0.04546,-0.081 -0.04546,-0.10209 0,-0.0559 0.06572,-0.0719 0.114403,-0.0278 0.04776,0.0433 0.110678,0.0498 0.132839,0.014 0.0082,-0.0132 0.0432,-0.0213 0.07779,-0.0177 0.05961,0.006 0.06297,6.5e-4 0.06456,-0.0993 9.73e-4,-0.0582 0.0046,-0.11638 0.0082,-0.12931 0.0036,-0.0129 0.0081,-0.05 0.01008,-0.0823 0.0032,-0.0512 0.01339,-0.058 0.07953,-0.0529 0.06393,0.005 0.07832,-0.004 0.09087,-0.0535 0.0082,-0.0326 0.03485,-0.0701 0.05923,-0.0832 0.06365,-0.0341 0.0563,-0.0558 -0.05504,-0.16282 -0.08487,-0.0815 -0.0954,-0.10179 -0.07222,-0.13892 0.04555,-0.073 -0.0104,-0.10242 -0.08695,-0.0458 -0.08413,0.0622 -0.177103,0.0508 -0.174556,-0.0214 0.0016,-0.0431 -0.01075,-0.0529 -0.0662,-0.0529 -0.08448,0 -0.159018,-0.0381 -0.159018,-0.0813 0,-0.0179 0.04364,-0.07 0.09698,-0.11563 0.104768,-0.0896 0.110815,-0.15576 0.01424,-0.15576 -0.03016,0 -0.06486,-0.01 -0.07715,-0.0215 -0.01229,-0.0119 -0.04835,-0.0251 -0.08015,-0.0295 -0.039,-0.005 -0.06229,-0.0269 -0.07159,-0.0667 -0.01005,-0.043 -0.02931,-0.0588 -0.07133,-0.0588 -0.05011,0 -0.06074,0.0152 -0.08217,0.11755 -0.01749,0.0835 -0.03939,0.12416 -0.07562,0.14035 -0.02805,0.0125 -0.05407,0.0443 -0.05784,0.0705 -0.0055,0.0384 -0.02654,0.0488 -0.107582,0.0533 -0.106162,0.006 -0.156239,-0.0402 -0.102219,-0.0942 0.01466,-0.0146 0.02663,-0.0488 0.02663,-0.076 0,-0.0271 0.01324,-0.063 0.0294,-0.0795 0.02385,-0.0244 0.0084,-0.027 -0.08207,-0.0139 -0.100511,0.0147 -0.113314,0.0113 -0.130328,-0.0347 l -0.01889,-0.0509 -0.04377,0.0484 c -0.05221,0.0577 -0.103114,0.0623 -0.122715,0.0113 -0.0077,-0.0204 -0.03922,-0.0466 -0.0698,-0.0582 -0.09068,-0.0345 -0.05843,-0.16336 0.04088,-0.16336 0.02332,0 0.05027,-0.0295 0.06461,-0.0705 0.02675,-0.0768 0.07499,-0.0908 0.121081,-0.0353 0.0161,0.0195 0.04702,0.0353 0.0687,0.0353 0.02168,0 0.05116,0.0118 0.06548,0.026 0.01903,0.019 0.03295,0.0131 0.05178,-0.022 0.01698,-0.0317 0.01774,-0.0531 0.0023,-0.0627 -0.04054,-0.0251 -0.02574,-0.14359 0.02344,-0.18812 0.06725,-0.0608 0.06,-0.0734 -0.05974,-0.1036 -0.108929,-0.0274 -0.154585,-0.0795 -0.109407,-0.1246 0.01789,-0.0179 0.0052,-0.0452 -0.04391,-0.0942 -0.111268,-0.11128 -0.07947,-0.17666 0.09746,-0.20039 l 0.09785,-0.0131 -0.0151,-0.14741 c -0.01478,-0.14432 -0.01361,-0.14847 0.05589,-0.19797 0.05496,-0.0392 0.07099,-0.0685 0.07099,-0.12984 0,-0.0918 -0.01,-0.10008 -0.171605,-0.1427 -0.103757,-0.0274 -0.125664,-0.0269 -0.158459,0.003 -0.05779,0.0523 -0.301659,0.0472 -0.320867,-0.007 -0.01509,-0.0424 -0.123038,-0.14459 -0.154318,-0.1461 -0.0097,-6.3e-4 -0.01761,0.0151 -0.01761,0.0344 0,0.0195 -0.02033,0.0555 -0.04514,0.0804 -0.02483,0.0249 -0.04863,0.0697 -0.0529,0.0994 -0.01125,0.0788 -0.120306,0.11297 -0.182009,0.0571 -0.04317,-0.0391 -0.05158,-0.0394 -0.121879,-0.005 -0.138629,0.0692 -0.253586,0.0286 -0.223054,-0.0788 0.0075,-0.0265 0.0197,-0.0693 0.02704,-0.0951 0.0088,-0.0312 0.0023,-0.047 -0.01989,-0.047 -0.06412,0 -0.116601,-0.0857 -0.09968,-0.16272 0.0086,-0.0396 0.02556,-0.0779 0.03748,-0.0852 0.01194,-0.007 0.02172,-0.0334 0.02172,-0.0579 0,-0.0331 -0.02281,-0.0487 -0.08817,-0.0602 -0.04849,-0.009 -0.117647,-0.0432 -0.153676,-0.0768 -0.08113,-0.0757 -0.139646,-0.05 -0.159194,0.0702 -0.01724,0.10597 -0.03886,0.13772 -0.09377,0.13772 -0.02955,0 -0.05727,0.0286 -0.0797,0.0823 -0.03704,0.0887 -0.0727,0.10102 -0.14298,0.0496 -0.02454,-0.0179 -0.05872,-0.0272 -0.0759,-0.0206 -0.01717,0.006 -0.05101,-0.006 -0.07514,-0.0277 -0.03729,-0.0338 -0.0513,-0.0351 -0.09317,-0.009 -0.06062,0.0378 -0.06072,0.0447 -0.0023,0.14877 0.02587,0.046 0.04702,0.098 0.04702,0.11553 0,0.0174 0.0219,0.0375 0.04865,0.0445 0.06771,0.0177 0.05661,0.16462 -0.01339,0.17705 -0.02587,0.005 -0.07507,0.0348 -0.10935,0.067 -0.07086,0.0667 -0.144613,0.0645 -0.157304,-0.005 -0.0047,-0.0257 -0.02553,-0.0659 -0.04625,-0.0892 -0.03066,-0.0346 -0.03236,-0.051 -0.0091,-0.0882 0.02313,-0.037 0.02235,-0.0457 -0.004,-0.0457 -0.01793,0 -0.04691,-0.0172 -0.06444,-0.0384 -0.02886,-0.0348 -0.03306,-0.0333 -0.04467,0.016 -0.0077,0.0329 -0.03958,0.0633 -0.08065,0.0769 -0.05577,0.0186 -0.07362,0.0147 -0.100398,-0.0218 -0.01789,-0.0244 -0.02776,-0.0629 -0.02187,-0.0855 0.0059,-0.0226 0.0053,-0.0411 -0.0013,-0.0411 -0.01081,0 -0.173407,0.0716 -0.191066,0.0842 -0.0041,0.003 0.006,0.0268 0.02247,0.0533 0.0254,0.0406 0.02329,0.0553 -0.01377,0.0963 -0.05295,0.0585 -0.09716,0.0617 -0.12655,0.009 -0.01544,-0.0276 -0.05552,-0.0397 -0.136023,-0.0411 -0.130817,-0.002 -0.161451,-0.0494 -0.0831,-0.12774 0.02549,-0.0255 0.05007,-0.0657 0.05463,-0.0894 0.0047,-0.0242 0.03494,-0.0483 0.06881,-0.0551 0.03328,-0.006 0.101828,-0.0453 0.152331,-0.0861 0.09022,-0.0729 0.09107,-0.075 0.04844,-0.12211 -0.03505,-0.0387 -0.05159,-0.0428 -0.08606,-0.0214 -0.04847,0.0303 -0.117016,-0.01 -0.117016,-0.0683 0,-0.0182 -0.01702,-0.0592 -0.03785,-0.091 -0.04913,-0.075 -0.03127,-0.11597 0.07185,-0.1649 0.06856,-0.0325 0.09044,-0.0344 0.11992,-0.01 0.01982,0.0165 0.08042,0.031 0.134642,0.0321 0.123214,0.003 0.146832,-0.0569 0.05202,-0.13155 -0.04816,-0.0379 -0.06007,-0.0639 -0.05074,-0.11069 0.0069,-0.0343 -0.0025,-0.0812 -0.02127,-0.10682 -0.01841,-0.0251 -0.03344,-0.0611 -0.03344,-0.0799 0,-0.0395 0.132667,-0.17475 0.19453,-0.19837 0.09578,-0.0366 0.08944,-0.18157 -0.0079,-0.18157 -0.02351,0 -0.04939,-0.0107 -0.0575,-0.0239 -0.0081,-0.0131 -0.05106,-0.039 -0.09543,-0.0576 -0.06449,-0.0269 -0.08075,-0.0469 -0.08104,-0.0996 -6.29e-4,-0.11147 -0.02704,-0.13133 -0.143343,-0.10777 -0.09505,0.0193 -0.102597,0.026 -0.09599,0.087 0.01129,0.1038 -0.04679,0.14829 -0.189873,0.1455 -0.117659,-0.002 -0.123909,-0.006 -0.145439,-0.0788 -0.01238,-0.0421 -0.03799,-0.0764 -0.05692,-0.0764 -0.01894,0 -0.05276,-0.0167 -0.07518,-0.0368 -0.03252,-0.0295 -0.04968,-0.0313 -0.08506,-0.009 -0.05589,0.0349 -0.250246,-0.0242 -0.261407,-0.0795 -0.0096,-0.0475 0.06251,-0.15666 0.103498,-0.15666 0.02462,0 0.02669,-0.0139 0.009,-0.0603 -0.03696,-0.0972 -0.02722,-0.13025 0.04659,-0.15811 0.04079,-0.0154 0.07237,-0.0461 0.07642,-0.0744 0.0044,-0.0308 0.03351,-0.0559 0.08097,-0.0699 0.06272,-0.0185 0.07635,-0.036 0.08895,-0.11481 0.0081,-0.0511 0.0095,-0.0983 0.0028,-0.10492 -0.0066,-0.006 -0.07452,-0.0144 -0.151001,-0.0173 -0.157226,-0.006 -0.191279,-0.0201 -0.191279,-0.0787 0,-0.0515 -0.04471,-0.0974 -0.09513,-0.0974 -0.06068,0 -0.186996,-0.0706 -0.186996,-0.10464 0,-0.0168 0.01589,-0.0439 0.03528,-0.0598 0.01938,-0.0161 0.03527,-0.0507 0.03527,-0.0768 0,-0.026 0.03879,-0.081 0.0862,-0.12204 l 0.0862,-0.0745 -0.07444,-0.053 c -0.04094,-0.0292 -0.07444,-0.0735 -0.07444,-0.0985 0,-0.025 -0.01469,-0.0455 -0.03266,-0.0455 -0.01797,0 -0.05751,-0.0202 -0.08788,-0.0448 l -0.05522,-0.0447 0.05261,-0.0986 c 0.06642,-0.12443 0.06587,-0.1453 -0.0061,-0.2309 -0.04202,-0.05 -0.05878,-0.0977 -0.05878,-0.16732 0,-0.11654 -0.07228,-0.26833 -0.152955,-0.32119 -0.07613,-0.0499 -0.15384,-0.0294 -0.264958,0.07 -0.04817,0.0431 -0.103407,0.0833 -0.122757,0.0895 -0.01935,0.006 -0.05138,0.058 -0.07115,0.1151 -0.03415,0.0986 -0.04102,0.10423 -0.135272,0.11109 -0.06292,0.005 -0.0993,0.0186 -0.0993,0.0382 0,0.0171 -0.01406,0.0427 -0.03127,0.057 -0.01765,0.0146 -0.02704,0.0547 -0.02158,0.0919 0.0062,0.0423 -0.007,0.0866 -0.03675,0.12332 -0.04296,0.0531 -0.05146,0.055 -0.113611,0.0254 -0.176259,-0.084 -0.175184,-0.0837 -0.19766,-0.0481 -0.01188,0.0187 -0.02178,0.052 -0.02199,0.0739 -1.89e-4,0.0219 -0.04143,0.0627 -0.09163,0.0909 -0.08937,0.0503 -0.09035,0.0522 -0.04702,0.0955 0.0534,0.0534 0.05637,0.099 0.009,0.1383 -0.01942,0.0161 -0.03527,0.0495 -0.03527,0.0742 0,0.0752 -0.07189,0.0818 -0.131888,0.012 -0.02965,-0.0345 -0.07132,-0.0627 -0.09254,-0.0627 -0.02125,0 -0.04394,-0.0204 -0.05047,-0.0455 -0.0066,-0.025 -0.0267,-0.0511 -0.04482,-0.058 -0.01966,-0.007 -0.03296,-0.0461 -0.03296,-0.0957 0,-0.0602 -0.01028,-0.0831 -0.03737,-0.0831 -0.04502,0 -0.125327,0.091 -0.126417,0.1433 -6.31e-4,0.0206 -0.02193,0.0567 -0.04781,0.08 -0.02588,0.0234 -0.04702,0.0677 -0.04702,0.0984 0,0.0717 -0.05591,0.0929 -0.125238,0.0475 -0.04948,-0.0324 -0.05672,-0.0318 -0.08089,0.007 -0.01465,0.0234 -0.06916,0.0497 -0.121807,0.0587 -0.0524,0.009 -0.09527,0.0294 -0.09527,0.0457 0,0.0353 0.07524,0.10738 0.112143,0.10738 0.0331,0 0.04308,0.0174 0.06286,0.10971 0.01406,0.0656 0.0081,0.0782 -0.04985,0.10598 -0.03619,0.0173 -0.06971,0.0526 -0.0745,0.0784 -0.02344,0.12627 -0.103736,0.13774 -0.158363,0.0226 -0.0364,-0.0767 -0.03648,-0.0862 -0.0013,-0.12527 0.04355,-0.0481 0.05107,-0.0845 0.01252,-0.0607 -0.01417,0.009 -0.04855,0.005 -0.07641,-0.008 -0.02786,-0.0133 -0.06917,-0.0301 -0.0918,-0.0373 -0.04589,-0.0146 -0.05482,-0.0856 -0.0157,-0.12471 0.01825,-0.0182 0.01689,-0.0392 -0.0049,-0.074 -0.02556,-0.0408 -0.02401,-0.0553 0.0098,-0.0928 0.02206,-0.0243 0.04009,-0.0548 0.04009,-0.0674 0,-0.0126 0.03174,-0.0466 0.07053,-0.0752 0.03879,-0.0286 0.07053,-0.064 0.07053,-0.0785 0,-0.0365 -0.155379,-0.18405 -0.192801,-0.18312 -0.01679,3e-4 -0.05109,0.0163 -0.07619,0.0353 -0.06656,0.0504 -0.120115,0.0424 -0.163798,-0.0242 -0.04829,-0.0737 -0.06758,-0.0735 -0.142304,9e-4 -0.04346,0.0435 -0.05616,0.0752 -0.0461,0.11535 0.01534,0.0611 -0.02388,0.15381 -0.06512,0.15381 -0.0145,0 -0.06102,-0.0264 -0.103404,-0.0588 -0.09719,-0.0742 -0.103708,-0.0736 -0.103708,0.009 0,0.0372 -0.01575,0.0807 -0.03504,0.0967 -0.02074,0.0172 -0.02982,0.05 -0.02222,0.0802 0.01759,0.07 -0.02722,0.17861 -0.07369,0.17861 -0.02093,0 -0.04339,-0.0205 -0.04992,-0.0455 -0.0066,-0.025 -0.0267,-0.0511 -0.04482,-0.058 -0.01935,-0.007 -0.03295,-0.0457 -0.03295,-0.0928 0,-0.10256 -0.04912,-0.14913 -0.08933,-0.0847 -0.01572,0.0252 -0.04969,0.0459 -0.07544,0.0459 -0.03139,0 -0.04683,0.0158 -0.04683,0.0478 0,0.0714 -0.06938,0.0867 -0.115652,0.0253 -0.02342,-0.0311 -0.0536,-0.0462 -0.07522,-0.038 -0.01989,0.008 -0.06459,0.004 -0.09938,-0.0102 -0.05208,-0.0198 -0.0715,-0.0159 -0.109854,0.0225 -0.02563,0.0257 -0.0466,0.0727 -0.0466,0.10455 0,0.0339 -0.01953,0.0684 -0.04702,0.0832 -0.02937,0.0158 -0.04702,0.0493 -0.04702,0.0892 0,0.0386 0.01869,0.0757 0.04702,0.0934 0.05547,0.0346 0.06171,0.0953 0.01175,0.11451 -0.04779,0.0183 -0.04435,0.0614 0.01307,0.1637 0.05747,0.10231 0.04576,0.15045 -0.03663,0.15045 -0.04081,0 -0.06684,-0.0171 -0.0806,-0.0529 -0.0201,-0.0523 -0.02061,-0.0522 -0.04638,0.0136 -0.02288,0.0585 -0.03459,0.0647 -0.09647,0.051 -0.0596,-0.0131 -0.0704,-0.008 -0.0704,0.0308 0,0.0694 -0.07917,0.15628 -0.126021,0.13829 -0.03182,-0.0122 -0.0364,-0.0342 -0.02404,-0.11559 0.01793,-0.11816 0.06673,-0.18281 0.137984,-0.18281 0.07197,0 0.123077,-0.0997 0.08731,-0.17045 -0.01471,-0.0291 -0.02381,-0.0874 -0.02023,-0.12956 0.0076,-0.0889 -0.06328,-0.15242 -0.145755,-0.13085 -0.06853,0.0179 -0.09179,-0.051 -0.03746,-0.11109 0.03253,-0.036 0.05982,-0.0432 0.120409,-0.0317 0.06029,0.0113 0.07834,0.006 0.07834,-0.0204 0,-0.0193 0.01623,-0.0485 0.03605,-0.0649 0.03198,-0.0265 0.03032,-0.036 -0.01475,-0.084 -0.02886,-0.0307 -0.04474,-0.0697 -0.03678,-0.0905 0.01643,-0.0428 0.111569,-0.0486 0.150956,-0.009 0.02077,0.0208 0.03311,0.0122 0.05139,-0.036 0.0227,-0.0597 0.03082,-0.0626 0.143426,-0.0515 0.158666,0.0156 0.215342,-0.0191 0.196406,-0.12002 -0.01242,-0.0661 -0.0057,-0.0792 0.05877,-0.1125 0.0839,-0.0434 0.08562,-0.0506 0.03582,-0.15038 -0.02858,-0.0573 -0.05228,-0.0742 -0.104267,-0.0742 -0.09128,0 -0.188083,-0.0393 -0.187052,-0.0758 0.0013,-0.0461 0.09748,-0.14658 0.170268,-0.17785 0.03592,-0.0155 0.07127,-0.0435 0.07854,-0.0625 0.01853,-0.0483 -0.139001,-0.20828 -0.172313,-0.17496 -0.04163,0.0415 -0.135311,0.0149 -0.143274,-0.0411 -0.005,-0.0346 -0.02931,-0.0547 -0.07841,-0.0644 -0.05777,-0.0116 -0.08392,-8.9e-4 -0.13827,0.0528 -0.06309,0.0631 -0.215805,0.11158 -0.26181,0.0832 -0.033,-0.0205 -0.02226,-0.1041 0.01524,-0.11849 0.02371,-0.009 0.03054,-0.0316 0.02102,-0.0697 -0.01036,-0.0413 -0.0025,-0.0604 0.02956,-0.0722 0.02401,-0.009 0.05164,-0.0293 0.06141,-0.0455 0.0098,-0.0161 0.04809,-0.036 0.08514,-0.0442 0.0592,-0.013 0.06916,-0.0279 0.08223,-0.12324 0.0081,-0.0597 0.01008,-0.11322 0.0042,-0.11908 -0.0059,-0.006 -0.04556,-0.0177 -0.08824,-0.0264 -0.06162,-0.0124 -0.07911,-0.0287 -0.08493,-0.0784 -0.004,-0.0345 0.0031,-0.0823 0.01601,-0.10623 0.04014,-0.075 -0.0066,-0.11125 -0.148025,-0.11498 -0.136294,-0.004 -0.168236,0.0149 -0.181664,0.10502 -0.0044,0.03 -0.03701,0.072 -0.07232,0.0934 -0.08483,0.0512 -0.11537,0.0196 -0.130206,-0.13479 l -0.01143,-0.11893 h -0.08942 c -0.07482,0 -0.09064,0.009 -0.09693,0.0529 -0.0058,0.0407 -0.02381,0.0535 -0.07805,0.0557 -0.03879,8.8e-4 -0.08402,0.004 -0.100504,0.006 -0.03293,0.004 -0.08131,0.10548 -0.08515,0.1795 -0.0016,0.0299 -0.02171,0.0498 -0.05534,0.0546 -0.05716,0.008 -0.06893,0.0494 -0.02625,0.092 0.04443,0.0445 0.0059,0.0927 -0.08587,0.1076 -0.04776,0.008 -0.100051,0.0322 -0.116201,0.0542 -0.0364,0.0498 -0.106697,0.0276 -0.106697,-0.0336 0,-0.0618 0.06833,-0.19213 0.101641,-0.19392 0.01522,-6.5e-4 0.0032,-0.0114 -0.02698,-0.0234 -0.0703,-0.0281 -0.05866,-0.0977 0.01951,-0.11645 0.04392,-0.0105 0.0568,-0.0271 0.05128,-0.0658 -0.0047,-0.0332 0.0079,-0.0574 0.03528,-0.0675 0.02344,-0.009 0.05111,-0.0297 0.06145,-0.0468 0.01034,-0.0172 0.0329,-0.0312 0.05016,-0.0312 0.04637,0 0.06608,-0.10072 0.02429,-0.12411 -0.048,-0.0268 -0.04301,-0.079 0.01295,-0.13491 l 0.04742,-0.0474 -0.05185,-0.0701 c -0.06114,-0.0827 -0.09092,-0.087 -0.149809,-0.022 -0.02713,0.03 -0.06619,0.0455 -0.103569,0.0411 -0.04796,-0.006 -0.06142,-0.0216 -0.06708,-0.0795 -0.0043,-0.0442 0.0072,-0.0843 0.0294,-0.10281 0.05139,-0.0426 0.04443,-0.0764 -0.02641,-0.12806 -0.04853,-0.0354 -0.06933,-0.0391 -0.09918,-0.0175 -0.0784,0.0566 -0.102923,0.0574 -0.142918,0.005 -0.06622,-0.0879 -0.165239,-0.0114 -0.165239,0.12763 0,0.0515 -0.085,0.13009 -0.14082,0.13009 -0.0137,0 -0.03563,-0.0281 -0.04873,-0.0625 -0.01806,-0.0475 -0.01466,-0.0818 0.01409,-0.14243 0.04365,-0.092 0.01635,-0.15082 -0.06065,-0.13069 -0.02546,0.007 -0.06135,-3.1e-4 -0.07979,-0.0158 -0.02671,-0.0222 -0.03874,-0.0179 -0.05948,0.0207 -0.03325,0.0621 -0.08286,0.0618 -0.126649,-6.3e-4 -0.03446,-0.0493 -0.08377,-0.0588 -0.254579,-0.0496 -0.06996,0.004 -0.08798,0.0148 -0.09404,0.0573 -0.011,0.077 -0.08351,0.0809 -0.117483,0.006 -0.02184,-0.0479 -0.04008,-0.0589 -0.08092,-0.0486 -0.029,0.007 -0.08008,0.003 -0.113544,-0.01 -0.04903,-0.0187 -0.0697,-0.0143 -0.106574,0.0226 -0.02556,0.0256 -0.03575,0.0519 -0.0231,0.0597 0.04107,0.0254 0.02363,0.0823 -0.03315,0.10819 -0.07552,0.0344 -0.160604,-0.0104 -0.153768,-0.0809 0.0098,-0.1013 -0.02081,-0.12821 -0.143759,-0.12635 -0.07198,6.4e-4 -0.119731,0.0132 -0.127108,0.0325 -0.01456,0.0379 -0.0653,0.0399 -0.101299,0.004 -0.03814,-0.0382 -0.172673,-0.0467 -0.235742,-0.0151 -0.04031,0.0203 -0.06016,0.0201 -0.08111,-6.5e-4 -0.01524,-0.0153 -0.06001,-0.0276 -0.09945,-0.0276 -0.08503,1.8e-4 -0.138853,0.0818 -0.09735,0.14762 0.0347,0.0551 -0.0184,0.10733 -0.07486,0.0738 -0.0564,-0.0336 -0.122848,-0.0147 -0.122848,0.0349 0,0.0227 -0.0074,0.0488 -0.01655,0.0579 -0.0091,0.009 -0.01706,0.0451 -0.01765,0.0798 -6.32e-4,0.041 -0.01557,0.0661 -0.04228,0.0714 -0.04828,0.01 -0.07679,-0.0483 -0.05296,-0.1071 0.0092,-0.0226 0.01891,-0.0805 0.02165,-0.12848 0.0054,-0.0943 -0.03785,-0.13397 -0.09473,-0.0868 -0.04689,0.0389 -0.110913,0.006 -0.09645,-0.0487 0.0066,-0.0252 -6.3e-4,-0.0563 -0.01592,-0.0691 -0.01724,-0.0143 -0.382414,-0.0237 -0.954527,-0.0244 -0.538299,-6.3e-4 -0.935773,-0.0104 -0.948478,-0.0231 -0.01204,-0.012 -0.01551,-0.0385 -0.0077,-0.0588 0.01232,-0.0321 0.09522,-0.0371 0.643795,-0.0392 0.346309,-8.8e-4 0.764982,-3.2e-4 0.930382,0.002 0.316419,0.005 0.374328,-0.0108 0.352485,-0.0943 -0.01447,-0.0553 0.04957,-0.0876 0.09645,-0.0487 0.05687,0.0471 0.100121,0.008 0.09473,-0.0868 -0.0028,-0.048 -0.01248,-0.10586 -0.02165,-0.12849 -0.02381,-0.0589 0.0047,-0.11652 0.05297,-0.10709 0.02671,0.005 0.0416,0.0304 0.04228,0.0714 6.29e-4,0.0349 0.0086,0.0707 0.01764,0.0798 0.0091,0.009 0.01655,0.0352 0.01655,0.0579 0,0.0496 0.06645,0.0685 0.122847,0.0349 0.05645,-0.0336 0.109561,0.0186 0.07486,0.0738 -0.0415,0.0658 0.01232,0.14739 0.09735,0.14762 0.03944,9e-5 0.08419,-0.0122 0.09945,-0.0276 0.02096,-0.021 0.04079,-0.0212 0.08111,-6.5e-4 0.06307,0.0317 0.197603,0.0232 0.235743,-0.0151 0.03599,-0.036 0.08673,-0.0341 0.101298,0.004 0.0073,0.0192 0.05512,0.0314 0.127108,0.0325 0.123383,0.002 0.153617,-0.025 0.14358,-0.12772 -0.0069,-0.0704 0.08777,-0.11678 0.159755,-0.0783 0.05219,0.0279 0.06624,0.0828 0.02735,0.10686 -0.01267,0.008 -0.0025,0.0342 0.0231,0.0597 0.03687,0.0368 0.05754,0.0413 0.106574,0.0226 0.03345,-0.0127 0.08455,-0.0171 0.113547,-0.01 0.04084,0.0103 0.05906,-6.4e-4 0.08092,-0.0486 0.03397,-0.0745 0.106498,-0.0706 0.117484,0.006 0.0061,0.0425 0.02408,0.0536 0.09404,0.0573 0.170813,0.009 0.220109,-2.8e-4 0.254578,-0.0496 0.0438,-0.0625 0.09341,-0.0628 0.12665,-6.3e-4 0.02074,0.0388 0.03274,0.0429 0.05948,0.0208 0.01844,-0.0153 0.05433,-0.0223 0.07978,-0.0157 0.07702,0.0201 0.104311,-0.0387 0.06065,-0.13069 -0.02874,-0.0605 -0.03215,-0.0949 -0.01409,-0.14243 0.02758,-0.0725 0.05163,-0.077 0.131588,-0.0246 0.0355,0.0233 0.05795,0.0603 0.05795,0.0956 0,0.13643 0.101236,0.20873 0.168499,0.12033 0.03493,-0.0459 0.04747,-0.0496 0.08325,-0.0245 0.07869,0.0551 0.09836,0.0569 0.157703,0.0136 0.06878,-0.0501 0.07532,-0.0841 0.02429,-0.12648 -0.02219,-0.0184 -0.0337,-0.0587 -0.0294,-0.1028 0.0057,-0.0579 0.01913,-0.074 0.06708,-0.0795 0.03737,-0.005 0.07643,0.0112 0.103564,0.0411 0.05889,0.0651 0.08866,0.0606 0.14981,-0.022 l 0.05185,-0.0701 -0.04742,-0.0474 c -0.05595,-0.0559 -0.06095,-0.10805 -0.01296,-0.13491 0.04179,-0.0233 0.02208,-0.12412 -0.02429,-0.12412 -0.01724,0 -0.03982,-0.014 -0.05016,-0.0312 -0.01034,-0.0171 -0.038,-0.0382 -0.06145,-0.0468 -0.02732,-0.01 -0.04,-0.0343 -0.03527,-0.0675 0.0055,-0.0388 -0.0073,-0.0553 -0.05127,-0.0659 -0.07815,-0.0187 -0.0898,-0.0883 -0.01951,-0.11646 0.03007,-0.012 0.04219,-0.0225 0.02698,-0.0233 -0.03332,-0.002 -0.101645,-0.13215 -0.101645,-0.19391 0,-0.0613 0.07029,-0.0835 0.106696,-0.0336 0.01616,0.022 0.06844,0.0465 0.116201,0.0542 0.09179,0.0149 0.130303,0.0632 0.08587,0.1076 -0.04266,0.0426 -0.03089,0.0839 0.02625,0.092 0.03363,0.005 0.05378,0.0247 0.05534,0.0546 0.0038,0.0741 0.05221,0.17602 0.08515,0.1795 0.01648,0.002 0.06171,0.005 0.100505,0.006 0.05422,0.002 0.07227,0.015 0.07805,0.0557 0.0063,0.0442 0.02209,0.0529 0.09693,0.0529 h 0.08942 l 0.01143,-0.11894 c 0.01484,-0.15439 0.04538,-0.18598 0.130206,-0.13477 0.03531,0.0213 0.06786,0.0633 0.07231,0.0933 0.01343,0.0901 0.04538,0.1086 0.181663,0.10501 0.141496,-0.004 0.188167,-0.04 0.148026,-0.11498 -0.01282,-0.024 -0.02001,-0.0717 -0.01601,-0.10622 0.0059,-0.0498 0.02332,-0.0659 0.08493,-0.0784 0.04268,-0.009 0.0824,-0.0205 0.08824,-0.0265 0.0059,-0.006 0.004,-0.0595 -0.0042,-0.11907 -0.01305,-0.0953 -0.02303,-0.11024 -0.08223,-0.12325 -0.03705,-0.008 -0.07536,-0.028 -0.08514,-0.0442 -0.0098,-0.0161 -0.03741,-0.0365 -0.0614,-0.0455 -0.03217,-0.0119 -0.03994,-0.0308 -0.02955,-0.0722 0.0095,-0.0379 0.0028,-0.0605 -0.02102,-0.0697 -0.03749,-0.0143 -0.04828,-0.0981 -0.01525,-0.11847 0.04601,-0.0284 0.198728,0.0201 0.261807,0.0832 0.05434,0.0543 0.08051,0.0643 0.13827,0.0528 0.04909,-0.01 0.07347,-0.0299 0.07841,-0.0645 0.0079,-0.0558 0.101645,-0.0827 0.143278,-0.0411 0.03332,0.0333 0.190848,-0.12664 0.172309,-0.17496 -0.0072,-0.0189 -0.04261,-0.0471 -0.07854,-0.0625 -0.07278,-0.0312 -0.168968,-0.13172 -0.170269,-0.17783 -9.72e-4,-0.0365 0.09577,-0.0758 0.187053,-0.0758 0.05199,0 0.07569,-0.0168 0.104267,-0.0741 0.04979,-0.0998 0.04808,-0.10701 -0.03582,-0.15039 -0.06439,-0.0333 -0.07119,-0.0463 -0.05877,-0.11251 0.01894,-0.10093 -0.03773,-0.13556 -0.196404,-0.12003 -0.11259,0.011 -0.120734,0.008 -0.143427,-0.0515 -0.01828,-0.048 -0.03062,-0.0568 -0.05139,-0.036 -0.03939,0.0395 -0.134548,0.0336 -0.150957,-0.009 -0.0079,-0.0207 0.0079,-0.0598 0.03678,-0.0905 0.04505,-0.0479 0.04672,-0.0575 0.01474,-0.084 -0.01982,-0.0165 -0.03605,-0.0456 -0.03605,-0.0649 0,-0.0269 -0.01806,-0.0316 -0.07834,-0.0204 -0.06059,0.0114 -0.08788,0.004 -0.120409,-0.0317 -0.05434,-0.06 -0.03107,-0.129 0.03746,-0.11108 0.08247,0.0215 0.153308,-0.0421 0.145758,-0.13086 -0.0036,-0.0422 0.0055,-0.10046 0.02024,-0.12956 0.03577,-0.0706 -0.01535,-0.17046 -0.08731,-0.17046 -0.07125,0 -0.120049,-0.0646 -0.137983,-0.1828 -0.01235,-0.0814 -0.0077,-0.10337 0.02404,-0.1156 0.04683,-0.0179 0.12602,0.0689 0.12602,0.1383 0,0.0392 0.01081,0.044 0.07042,0.0308 0.06187,-0.0136 0.07358,-0.007 0.09647,0.051 0.02574,0.0658 0.02628,0.0659 0.04638,0.0136 0.01377,-0.0358 0.0398,-0.0529 0.0806,-0.0529 0.08238,0 0.09408,0.0481 0.03663,0.15045 -0.05744,0.10226 -0.06087,0.14534 -0.01307,0.16369 0.04995,0.0192 0.04372,0.0798 -0.01176,0.11451 -0.06251,0.039 -0.06251,0.14917 0,0.18263 0.02751,0.0147 0.04702,0.0493 0.04702,0.0832 0,0.0319 0.02096,0.0789 0.0466,0.10456 0.03836,0.0384 0.05778,0.0422 0.109854,0.0225 0.0348,-0.0132 0.07952,-0.0177 0.09938,-0.0102 0.02162,0.008 0.05183,-0.007 0.07522,-0.0379 0.04629,-0.0613 0.115653,-0.0461 0.115653,0.0253 0,0.032 0.01544,0.0477 0.04683,0.0477 0.02575,0 0.0597,0.0206 0.07544,0.0459 0.03992,0.064 0.08933,0.0181 0.08933,-0.0828 0,-0.043 0.01402,-0.0867 0.03117,-0.0971 0.01715,-0.0104 0.03797,-0.0373 0.04629,-0.0598 0.03908,-0.10632 0.153311,0.0204 0.123929,0.13745 -0.0076,0.0303 0.0016,0.0631 0.02222,0.0802 0.01929,0.016 0.03504,0.0596 0.03504,0.0968 0,0.0824 0.0066,0.0831 0.103709,0.009 0.04238,-0.0324 0.08891,-0.0588 0.103404,-0.0588 0.04124,0 0.08047,0.0927 0.06512,0.1538 -0.01006,0.0401 0.0025,0.0719 0.0461,0.11536 0.07473,0.0747 0.09402,0.0749 0.1423,8.9e-4 0.04368,-0.0667 0.09724,-0.0746 0.1638,-0.0242 0.02512,0.0189 0.05939,0.0349 0.07619,0.0353 0.03742,6.4e-4 0.192799,-0.14667 0.192799,-0.18313 0,-0.0145 -0.03174,-0.0498 -0.07053,-0.0785 -0.03879,-0.0287 -0.07053,-0.0625 -0.07053,-0.0752 0,-0.0126 -0.01806,-0.0431 -0.04011,-0.0674 -0.03384,-0.0374 -0.03536,-0.0519 -0.0098,-0.0928 0.02172,-0.0348 0.0231,-0.0557 0.0049,-0.074 -0.03912,-0.0392 -0.03018,-0.11004 0.0157,-0.12471 0.02262,-0.007 0.06394,-0.024 0.0918,-0.0372 0.02786,-0.0132 0.06225,-0.017 0.07641,-0.008 0.03855,0.0238 0.03104,-0.0125 -0.01252,-0.0606 -0.03537,-0.0391 -0.0353,-0.0486 0.0013,-0.12529 0.05462,-0.11511 0.134925,-0.10364 0.158366,0.0226 0.0048,0.0258 0.0383,0.061 0.0745,0.0784 0.05798,0.0278 0.06391,0.0404 0.04984,0.10597 -0.0202,0.0942 -0.02962,0.10971 -0.06695,0.10971 -0.03556,0 -0.108054,0.0748 -0.108054,0.11146 0,0.0141 0.04287,0.0327 0.09527,0.0415 0.05265,0.009 0.107142,0.0351 0.121809,0.0587 0.02417,0.0387 0.03139,0.0394 0.08089,0.007 0.06933,-0.0454 0.125239,-0.0242 0.125239,0.0475 0,0.0308 0.02115,0.075 0.04702,0.0984 0.02587,0.0234 0.04737,0.0595 0.0478,0.08 9.74e-4,0.0523 0.0814,0.14331 0.126419,0.14331 0.02694,0 0.03737,-0.0226 0.03737,-0.0811 0,-0.0447 0.01402,-0.0895 0.03117,-0.0999 0.01715,-0.0104 0.03797,-0.0373 0.04629,-0.0598 0.0083,-0.0226 0.03183,-0.0411 0.05225,-0.0411 0.02043,0 0.0614,-0.0282 0.09108,-0.0627 0.05999,-0.0697 0.131889,-0.0632 0.131889,0.0121 0,0.0247 0.01589,0.058 0.03527,0.0742 0.04737,0.0394 0.04442,0.0849 -0.009,0.1383 -0.04333,0.0433 -0.04235,0.0452 0.04702,0.0955 0.05021,0.0282 0.09144,0.0692 0.09163,0.0909 1.92e-4,0.0217 0.01008,0.055 0.02199,0.0739 0.02247,0.0356 0.0214,0.0358 0.19766,-0.0481 0.06216,-0.0295 0.07065,-0.0276 0.113612,0.0254 0.02972,0.0367 0.04295,0.0811 0.03674,0.12333 -0.0054,0.0372 0.004,0.0773 0.02159,0.0919 0.0172,0.0143 0.03127,0.0399 0.03127,0.057 0,0.0197 0.03637,0.0337 0.0993,0.0382 0.09426,0.007 0.101123,0.0124 0.135271,0.1111 0.0198,0.0571 0.05181,0.10892 0.07115,0.11509 0.01935,0.006 0.0746,0.0464 0.122756,0.0895 0.111118,0.0993 0.18883,0.11985 0.264962,0.07 0.08067,-0.0529 0.152952,-0.20464 0.152952,-0.32118 0,-0.0697 0.01676,-0.11741 0.05878,-0.16733 0.07202,-0.0856 0.07258,-0.10647 0.0061,-0.2309 l -0.05262,-0.0986 0.05522,-0.0447 c 0.03038,-0.0246 0.06991,-0.0447 0.08788,-0.0447 0.01797,0 0.03266,-0.0204 0.03266,-0.0455 0,-0.025 0.03349,-0.0692 0.07444,-0.0984 l 0.07444,-0.053 -0.0862,-0.0745 c -0.04741,-0.0409 -0.0862,-0.0959 -0.0862,-0.12204 0,-0.0261 -0.01588,-0.0606 -0.03527,-0.0768 -0.01942,-0.0161 -0.03527,-0.0431 -0.03527,-0.0598 0,-0.034 0.126313,-0.10465 0.186995,-0.10465 0.05042,0 0.09513,-0.0457 0.09513,-0.0974 0,-0.0585 0.03405,-0.0725 0.191278,-0.0787 0.07648,-0.003 0.144431,-0.0108 0.151001,-0.0173 0.0066,-0.006 0.0052,-0.0538 -0.0028,-0.10493 -0.01261,-0.0788 -0.02622,-0.0963 -0.08895,-0.11481 -0.04745,-0.014 -0.07656,-0.0392 -0.08098,-0.0699 -0.004,-0.0282 -0.03563,-0.0589 -0.07641,-0.0744 -0.07381,-0.0278 -0.08355,-0.0608 -0.0466,-0.1581 0.01764,-0.0464 0.01557,-0.0603 -0.009,-0.0603 -0.04099,0 -0.113091,-0.10915 -0.103497,-0.15665 0.01115,-0.0553 0.205514,-0.11432 0.261409,-0.0795 0.03537,0.0221 0.05253,0.0203 0.08506,-0.009 0.0224,-0.0204 0.05624,-0.0368 0.07518,-0.0368 0.01894,0 0.04455,-0.0343 0.05693,-0.0764 0.02152,-0.0732 0.02776,-0.0765 0.145436,-0.0788 0.143084,-0.003 0.201153,0.0417 0.189876,0.1455 -0.0067,0.0608 9.72e-4,0.0677 0.09598,0.087 0.116295,0.0235 0.142735,0.004 0.143344,-0.10776 2.87e-4,-0.0527 0.01655,-0.0726 0.08104,-0.0996 0.04438,-0.0185 0.08732,-0.0445 0.09543,-0.0576 0.0081,-0.0131 0.03399,-0.0239 0.0575,-0.0239 0.09737,0 0.10371,-0.14497 0.0079,-0.18156 -0.06185,-0.0236 -0.19453,-0.15892 -0.19453,-0.19838 0,-0.0188 0.01507,-0.0549 0.03345,-0.0799 0.01879,-0.0257 0.02811,-0.0724 0.02127,-0.10681 -0.0093,-0.0468 0.0025,-0.0728 0.05074,-0.1107 0.09482,-0.0745 0.0712,-0.13432 -0.05202,-0.13155 -0.05421,8.8e-4 -0.114809,0.0158 -0.134642,0.0322 -0.0295,0.0244 -0.05135,0.0226 -0.11992,-0.01 -0.103124,-0.0489 -0.120983,-0.0899 -0.07185,-0.1649 0.02083,-0.0317 0.03785,-0.0727 0.03785,-0.091 0,-0.0586 0.06855,-0.0985 0.11702,-0.0683 0.03446,0.0215 0.05101,0.0174 0.08606,-0.0214 0.04262,-0.0471 0.04178,-0.0493 -0.04844,-0.12211 -0.0505,-0.0408 -0.119052,-0.0795 -0.15233,-0.0861 -0.03385,-0.007 -0.06416,-0.031 -0.06881,-0.0551 -0.0046,-0.0237 -0.02915,-0.064 -0.05463,-0.0894 -0.07834,-0.0784 -0.04771,-0.12544 0.08311,-0.12775 0.08049,-8.8e-4 0.120576,-0.0135 0.136024,-0.0412 0.0294,-0.0525 0.0736,-0.0493 0.126549,0.009 0.03705,0.041 0.03916,0.0557 0.01377,0.0963 -0.01648,0.0265 -0.0266,0.0505 -0.02247,0.0533 0.01765,0.0125 0.18025,0.0842 0.191071,0.0842 0.0066,0 0.0071,-0.0185 0.0013,-0.0412 -0.0059,-0.0226 0.004,-0.0611 0.02188,-0.0855 0.02679,-0.0365 0.04462,-0.0404 0.100398,-0.0218 0.04106,0.0136 0.07288,0.044 0.08064,0.0769 0.0116,0.0492 0.01582,0.0506 0.04467,0.016 0.01753,-0.0211 0.04653,-0.0384 0.06445,-0.0384 0.02638,0 0.02716,-0.009 0.004,-0.0456 -0.02323,-0.0372 -0.02152,-0.0537 0.0091,-0.0882 0.02074,-0.0233 0.04154,-0.0635 0.04624,-0.0892 0.0127,-0.0692 0.08645,-0.0714 0.157304,-0.005 0.03428,0.0323 0.08349,0.0624 0.109353,0.067 0.06999,0.0124 0.08108,0.15936 0.01339,0.17708 -0.02675,0.007 -0.04865,0.027 -0.04865,0.0445 0,0.0174 -0.02115,0.0696 -0.04702,0.11553 -0.05846,0.10409 -0.05837,0.11091 0.0023,0.14877 0.04185,0.0262 0.05588,0.0248 0.09317,-0.009 0.02414,-0.0219 0.05794,-0.0343 0.07515,-0.0277 0.01717,0.006 0.05135,-0.003 0.0759,-0.0206 0.07029,-0.0514 0.105937,-0.039 0.142981,0.0496 0.02244,0.0537 0.05013,0.0823 0.0797,0.0823 0.05491,0 0.07652,0.0317 0.09377,0.1377 0.01953,0.12011 0.07807,0.14592 0.159195,0.0702 0.03603,-0.0336 0.105183,-0.0682 0.153675,-0.0768 0.06537,-0.0117 0.08817,-0.0271 0.08817,-0.0602 0,-0.0245 -0.0098,-0.0505 -0.02172,-0.058 -0.01195,-0.007 -0.02881,-0.0457 -0.03748,-0.0852 -0.01692,-0.077 0.03556,-0.16272 0.09968,-0.16272 0.02326,0 0.02863,-0.0159 0.01798,-0.0529 -0.0084,-0.0291 -0.02052,-0.0719 -0.02704,-0.0952 -0.02853,-0.10183 0.08993,-0.14021 0.224922,-0.0729 0.07031,0.0351 0.0787,0.0348 0.121876,-0.005 0.06171,-0.0558 0.170759,-0.0215 0.18201,0.0571 0.0042,0.0299 0.02809,0.0747 0.0529,0.0994 0.02483,0.0249 0.04514,0.061 0.04514,0.0804 0,0.0195 0.0079,0.0349 0.01765,0.0344 0.03129,-8.8e-4 0.139205,-0.10368 0.15432,-0.1461 0.01919,-0.0539 0.263073,-0.059 0.320863,-0.007 0.0328,0.0297 0.0547,0.03 0.158459,0.003 0.161609,-0.0426 0.171608,-0.0509 0.171608,-0.14271 0,-0.0614 -0.01605,-0.0907 -0.07099,-0.12984 -0.0695,-0.0496 -0.07068,-0.0537 -0.05589,-0.19796 l 0.0151,-0.14742 -0.09785,-0.0131 c -0.176927,-0.0238 -0.208727,-0.0892 -0.09746,-0.20038 0.04912,-0.0491 0.06181,-0.0763 0.04391,-0.0942 -0.04518,-0.0452 6.31e-4,-0.0972 0.109408,-0.12461 0.119734,-0.0302 0.126988,-0.0427 0.05974,-0.10358 -0.04921,-0.0445 -0.06398,-0.16307 -0.02344,-0.18812 0.01557,-0.01 0.01481,-0.031 -0.0023,-0.0627 -0.01885,-0.0352 -0.03275,-0.0411 -0.05178,-0.022 -0.0143,0.0143 -0.04378,0.026 -0.06548,0.026 -0.02168,0 -0.0526,0.0159 -0.06871,0.0353 -0.04609,0.0555 -0.09433,0.0414 -0.121076,-0.0353 -0.01433,-0.0411 -0.04128,-0.0705 -0.06461,-0.0705 -0.09931,0 -0.131559,-0.12888 -0.04088,-0.16335 0.03056,-0.0117 0.06197,-0.0377 0.06979,-0.0582 0.01961,-0.0511 0.0705,-0.0464 0.122716,0.0114 l 0.04378,0.0483 0.01889,-0.0509 c 0.01702,-0.046 0.02981,-0.0494 0.130326,-0.0347 0.09045,0.0132 0.105921,0.0107 0.08207,-0.0138 -0.01616,-0.0166 -0.0294,-0.0523 -0.0294,-0.0795 0,-0.0271 -0.01197,-0.0613 -0.02664,-0.076 -0.05402,-0.0541 -0.004,-0.10018 0.102219,-0.0942 0.08105,0.005 0.102084,0.0151 0.107582,0.0534 0.0037,0.0263 0.02978,0.0579 0.05784,0.0705 0.03623,0.0162 0.05813,0.0568 0.07562,0.14035 0.02143,0.10235 0.03207,0.11755 0.08217,0.11755 0.04203,0 0.06126,-0.0159 0.07132,-0.0588 0.0093,-0.0396 0.03259,-0.0613 0.0716,-0.0666 0.0318,-0.005 0.06786,-0.0175 0.08014,-0.0294 0.01229,-0.0118 0.047,-0.0215 0.07715,-0.0215 0.09656,0 0.09051,-0.066 -0.01425,-0.15576 -0.05334,-0.0457 -0.09698,-0.0977 -0.09698,-0.11561 0,-0.0433 0.07453,-0.0813 0.159018,-0.0813 0.05548,0 0.06772,-0.01 0.0662,-0.0529 -0.0025,-0.0722 0.09043,-0.0835 0.174558,-0.0213 0.07655,0.0566 0.132503,0.027 0.08695,-0.0459 -0.0232,-0.0371 -0.01267,-0.0574 0.07223,-0.13892 0.111329,-0.10698 0.118687,-0.12875 0.05503,-0.16281 -0.02435,-0.0131 -0.05103,-0.0506 -0.05923,-0.0832 -0.01254,-0.0501 -0.02694,-0.0585 -0.09087,-0.0535 -0.06613,0.005 -0.07641,-8.8e-4 -0.07952,-0.0529 -0.0019,-0.0323 -0.0065,-0.0694 -0.01009,-0.0823 -0.0036,-0.0129 -0.0072,-0.0711 -0.0082,-0.12931 -0.0016,-0.10028 -0.005,-0.10545 -0.06456,-0.0993 -0.03459,0.004 -0.06959,-0.005 -0.07779,-0.0177 -0.02216,-0.0359 -0.08508,-0.0292 -0.132837,0.014 -0.04868,0.0441 -0.114405,0.028 -0.114405,-0.0278 0,-0.0211 0.02044,-0.0669 0.04546,-0.10209 0.02498,-0.0352 0.05238,-0.0914 0.06084,-0.12515 0.01298,-0.0517 0.0069,-0.0625 -0.03934,-0.0691 -0.07269,-0.0104 -0.08793,-0.089 -0.02067,-0.10659 0.03186,-0.008 0.04558,-0.0257 0.03731,-0.0473 -0.0072,-0.0187 -0.01311,-0.0677 -0.01311,-0.10859 -2.2e-5,-0.0668 -0.01223,-0.0798 -0.117552,-0.12658 -0.0735,-0.0325 -0.117525,-0.0669 -0.117525,-0.0914 0,-0.0217 -0.01758,-0.0522 -0.03909,-0.0679 -0.04651,-0.0341 -0.02698,-0.1059 0.02881,-0.1059 0.02102,0 0.04374,0.0212 0.0505,0.047 0.0069,0.026 0.03159,0.047 0.05519,0.047 0.02361,0 0.04948,0.0107 0.05752,0.0237 0.008,0.013 0.04516,0.0395 0.08248,0.0588 0.06403,0.0332 0.07147,0.0317 0.132201,-0.0245 0.126815,-0.11752 0.19903,-0.0218 0.08322,0.1103 -0.06208,0.0708 -0.06781,0.0909 -0.05725,0.20029 0.01025,0.10595 0.01938,0.12349 0.07111,0.13648 0.03264,0.008 0.07052,0.004 0.08417,-0.01 0.04141,-0.0414 0.08548,-0.028 0.11402,0.0346 0.02052,0.0451 0.02042,0.066 -6.31e-4,0.087 -0.01515,0.0151 -0.02758,0.0531 -0.02758,0.0842 0,0.0449 0.0085,0.053 0.04114,0.0392 0.07326,-0.031 0.128437,-0.0238 0.155617,0.0205 0.02189,0.0358 0.01727,0.0497 -0.02631,0.0793 -0.06627,0.0451 -0.07263,0.12502 -0.0086,0.10826 0.03232,-0.009 0.05456,0.009 0.08229,0.0646 0.02089,0.0419 0.038,0.0855 0.038,0.0969 0,0.0114 0.01667,0.0461 0.03704,0.0773 0.04113,0.0628 0.09306,0.0568 0.111263,-0.0128 0.0093,-0.0355 0.03279,-0.0455 0.107377,-0.0455 0.06972,0 0.09227,-0.009 0.08352,-0.0312 -0.01815,-0.0472 0.03109,-0.15689 0.07048,-0.15689 0.01907,0 0.04421,0.0169 0.05585,0.0378 0.01947,0.0348 0.02235,0.0348 0.0357,0 0.01799,-0.0468 0.07155,-0.0489 0.108732,-0.004 0.02398,0.0288 0.03446,0.0271 0.07341,-0.0118 0.02499,-0.025 0.04583,-0.0693 0.04629,-0.0983 0.0013,-0.0774 0.102494,-0.19269 0.152372,-0.17356 0.03823,0.0147 0.03961,0.0392 0.0086,0.15462 -0.0059,0.0222 0.01517,0.0386 0.06144,0.0472 0.0987,0.0186 0.0995,0.10359 9.73e-4,0.11478 -0.09457,0.0107 -0.142149,0.0513 -0.142149,0.12108 0,0.0399 -0.01497,0.0613 -0.04702,0.0673 -0.02587,0.005 -0.05548,0.0235 -0.06582,0.0414 -0.02253,0.0391 -0.114187,0.0431 -0.15078,0.006 -0.03424,-0.0342 -0.07728,-0.006 -0.07728,0.05 0,0.0423 -0.02766,0.0597 -0.217479,0.13696 -0.07187,0.0293 -0.08538,0.0849 -0.02617,0.1076 0.03164,0.0123 0.03611,0.0379 0.02508,0.14491 -0.01043,0.10092 -0.0059,0.13309 0.02057,0.1432 0.01869,0.007 0.0471,0.003 0.0631,-0.0104 0.01601,-0.0129 0.06332,-0.0307 0.105184,-0.0397 0.06641,-0.0142 0.07957,-0.009 0.103374,0.0436 0.02149,0.0471 0.02052,0.068 -0.0044,0.0981 -0.02701,0.0325 -0.02577,0.0415 0.0083,0.0605 0.06569,0.0368 0.04938,0.12944 -0.03117,0.17702 -0.07964,0.047 -0.08498,0.11731 -0.0081,0.10666 0.03284,-0.005 0.06926,0.02 0.111096,0.0748 0.03424,0.045 0.06225,0.0926 0.06225,0.10586 0,0.0133 0.01953,0.0347 0.04342,0.0475 0.05066,0.027 0.09765,-0.008 0.09765,-0.0722 0,-0.0226 0.01484,-0.0497 0.033,-0.06 0.01815,-0.0104 0.03667,-0.0452 0.04114,-0.0776 0.0062,-0.0449 0.02414,-0.0606 0.07567,-0.0665 0.03714,-0.005 0.07842,0.004 0.09173,0.0166 0.01661,0.0167 0.03689,6.3e-4 0.06459,-0.051 0.05223,-0.0974 0.113281,-0.0959 0.169185,0.004 0.04163,0.0745 0.04203,0.0844 0.0064,0.15959 -0.02675,0.0564 -0.05845,0.0842 -0.107032,0.0939 -0.07918,0.0159 -0.09327,0.055 -0.0198,0.055 0.02896,0 0.05413,0.0187 0.06117,0.0457 0.0073,0.0278 0.03617,0.0485 0.07422,0.0529 0.08888,0.0103 0.09552,0.0953 0.01339,0.17143 -0.07248,0.0671 -0.131813,0.0752 -0.174488,0.0239 -0.04509,-0.0543 -0.07308,-0.0418 -0.0563,0.025 0.0117,0.0465 4.5e-5,0.0761 -0.05098,0.12932 -0.05242,0.0548 -0.05783,0.069 -0.02613,0.069 0.02199,0 0.05836,0.01 0.08081,0.0218 0.02247,0.012 0.05935,0.0276 0.08197,0.0346 0.05079,0.0158 0.05469,0.11477 0.0061,0.15509 -0.02143,0.0177 -0.02984,0.0498 -0.02161,0.0825 0.01471,0.0587 -0.06,0.12927 -0.136653,0.12927 -0.04792,0 -0.05385,0.0256 -0.01494,0.0645 0.0319,0.0319 -0.03313,0.18902 -0.08676,0.2096 -0.01806,0.007 -0.03992,0.0503 -0.04857,0.0964 -0.01888,0.10058 0.03164,0.15158 0.130504,0.13181 0.0404,-0.008 0.09513,0.005 0.151503,0.0369 l 0.08824,0.0496 0.07329,-0.0828 c 0.07283,-0.0823 0.141821,-0.10555 0.171323,-0.0578 0.0085,0.0137 0.04188,0.0351 0.0742,0.0473 0.03233,0.0123 0.06408,0.0426 0.07057,0.0675 0.0065,0.0248 0.02679,0.0508 0.0451,0.0579 0.01831,0.007 0.04319,0.0387 0.05528,0.0705 0.0203,0.0533 0.02752,0.0557 0.09404,0.0305 0.06369,-0.0241 0.07135,-0.0368 0.06585,-0.10978 -0.006,-0.0776 -9.74e-4,-0.084 0.08192,-0.10467 0.08282,-0.0208 0.08817,-0.0276 0.08817,-0.11269 0,-0.10498 0.03637,-0.12928 0.146271,-0.0978 0.05432,0.0156 0.08021,0.042 0.100793,0.10295 0.02303,0.0682 0.03907,0.082 0.09527,0.082 0.08374,0 0.132853,0.10184 0.08561,0.17748 -0.02373,0.038 -0.02247,0.046 0.0074,0.046 0.09119,0 0.09105,0.21503 -1.89e-4,0.25004 -0.04792,0.0184 -0.04783,0.14965 9.5e-5,0.14965 0.01957,0 0.05631,-0.0129 0.08163,-0.0288 0.03997,-0.025 0.05696,-0.0182 0.128746,0.0514 0.04596,0.0446 0.08896,0.11351 0.09679,0.15525 0.0094,0.0498 0.03438,0.0842 0.07435,0.10254 0.06854,0.0312 0.09276,0.0152 0.104021,-0.0688 0.0062,-0.0459 0.03398,-0.0691 0.127656,-0.10632 0.08993,-0.0358 0.115514,-0.0563 0.102644,-0.0824 -0.09212,-0.1867 -0.08851,-0.22022 0.02625,-0.24316 0.05502,-0.011 0.08863,-0.004 0.120131,0.0243 0.03354,0.0304 0.05021,0.0331 0.0714,0.012 0.03878,-0.0387 0.111166,-0.0344 0.127307,0.008 0.0074,0.0195 0.03227,0.0353 0.05515,0.0353 0.05492,0 0.102702,0.0598 0.08915,0.11156 -0.0094,0.0358 0.0069,0.0413 0.120657,0.0413 0.07231,3e-5 0.151225,0.005 0.175379,0.0118 0.03633,0.01 0.04955,-0.01 0.07648,-0.11387 0.03592,-0.13852 0.02881,-0.16831 -0.04022,-0.16831 -0.02549,0 -0.05215,-0.0151 -0.05921,-0.0334 -0.01689,-0.0441 0.03076,-0.13115 0.07171,-0.13115 0.02023,0 0.02782,-0.0168 0.02043,-0.0452 -0.0086,-0.0331 0.0077,-0.0553 0.06098,-0.0829 0.07088,-0.0366 0.09784,-0.0835 0.04808,-0.0835 -0.01361,0 -0.03588,-0.0319 -0.04949,-0.071 -0.01361,-0.0391 -0.04481,-0.0817 -0.06932,-0.0948 -0.107676,-0.0577 -0.0061,-0.15557 0.12571,-0.12123 0.06624,0.0172 0.07678,0.0304 0.07794,0.0965 0.0016,0.0906 0.05349,0.13454 0.09384,0.0794 0.04211,-0.0576 0.109284,-0.0195 0.10308,0.0584 -0.0028,0.0356 0.0028,0.0833 0.0126,0.10614 0.02534,0.0591 -0.03022,0.11757 -0.09599,0.10105 -0.05901,-0.0149 -0.09882,0.0214 -0.04586,0.0417 0.02599,0.01 0.03183,0.055 0.02613,0.2023 -0.0073,0.19062 0.01083,0.23035 0.06913,0.15066 0.02344,-0.0321 0.04102,-0.0344 0.101068,-0.0134 0.07661,0.0267 0.09957,0.0141 0.129963,-0.0711 0.03571,-0.10017 0.128211,-0.0198 0.128538,0.11168 2.88e-4,0.0998 -0.05175,0.14666 -0.195932,0.17659 -0.124039,0.0258 -0.124842,0.0265 -0.07966,0.0716 0.02512,0.0251 0.04564,0.0555 0.04564,0.0676 0,0.0121 0.02908,0.0253 0.06465,0.0294 0.05713,0.006 0.06422,0.0166 0.06091,0.0864 -0.0048,0.10123 -0.03538,0.13026 -0.137226,0.13026 -0.06062,0 -0.102565,-0.0197 -0.159815,-0.0752 -0.09203,-0.0893 -0.107497,-0.0929 -0.09404,-0.0223 0.007,0.0367 -0.01197,0.0741 -0.06203,0.12196 -0.03966,0.0379 -0.07213,0.0764 -0.07213,0.0854 0,0.0213 0.08962,0.0509 0.164577,0.0543 0.07416,0.004 0.09162,0.0875 0.03082,0.14824 -0.02341,0.0234 -0.04259,0.0625 -0.04259,0.087 0,0.0244 -0.02115,0.0561 -0.04702,0.0705 -0.02587,0.0143 -0.05549,0.0393 -0.06582,0.0555 -0.01033,0.0162 -0.03796,0.0294 -0.06138,0.0294 -0.02341,0 -0.101791,0.039 -0.174161,0.0867 -0.121977,0.0803 -0.128355,0.089 -0.08736,0.11764 0.02433,0.0169 0.05644,0.0679 0.07135,0.11317 0.02927,0.0888 0.08967,0.10885 0.141039,0.0469 0.05324,-0.0642 0.113766,-0.0408 0.164029,0.0633 0.05748,0.11898 0.05827,0.21856 0.0025,0.31297 -0.0319,0.054 -0.03648,0.0857 -0.01951,0.13519 0.02609,0.0759 0.100341,0.087 0.118477,0.0177 0.02647,-0.10124 0.244597,-0.028 0.334097,0.11207 0.06482,0.1015 0.1058,0.11417 0.1058,0.0326 0,-0.0643 0.102483,-0.16826 0.165689,-0.16826 0.01793,0 0.02137,-0.0306 0.01065,-0.094 -0.01273,-0.0753 -0.0081,-0.097 0.02294,-0.10889 0.05678,-0.0218 0.153379,0.0301 0.153379,0.0823 0,0.0248 0.01589,0.0511 0.03528,0.0586 0.02206,0.009 0.03528,0.0444 0.03528,0.0958 0,0.0637 -0.01553,0.0938 -0.06857,0.13301 -0.03771,0.0278 -0.07358,0.0698 -0.07969,0.0933 -0.01355,0.0518 0.0474,0.0805 0.09216,0.0433 0.04988,-0.0414 0.103117,-0.007 0.103117,0.0673 0,0.0746 -0.03727,0.12299 -0.09467,0.12299 -0.02909,0 -0.03578,0.0168 -0.02795,0.0702 0.0076,0.0519 -6.3e-4,0.0745 -0.03166,0.0864 -0.0231,0.009 -0.0613,0.0355 -0.08491,0.0591 -0.04937,0.0494 -0.114943,0.0555 -0.155791,0.0148 -0.02193,-0.022 -0.0282,-0.0196 -0.0282,0.0102 0,0.0552 -0.118202,0.13141 -0.23187,0.14959 l -0.09761,0.0156 0.05893,0.0546 c 0.06805,0.0631 0.07721,0.16139 0.02234,0.23972 -0.02681,0.0383 -0.02871,0.0523 -0.007,0.0523 0.01629,0 0.06296,0.0324 0.10372,0.0718 0.0582,0.0564 0.08711,0.0686 0.134566,0.0567 0.04757,-0.012 0.05957,-0.0286 0.05631,-0.0778 -0.0036,-0.0546 0.0048,-0.0625 0.06542,-0.0625 0.05918,0 0.07475,0.0136 0.104356,0.0914 0.03126,0.0822 0.03091,0.0982 -0.0035,0.15817 -0.02206,0.0385 -0.02893,0.0725 -0.01619,0.0804 0.07718,0.0477 -0.07773,0.264 -0.196153,0.27385 -0.02864,0.003 -0.07327,0.006 -0.09913,0.009 -0.12227,0.0107 -0.171389,0.0389 -0.184889,0.10643 -0.0075,0.0376 -0.0075,0.0843 -4.8e-5,0.10388 0.01751,0.0457 0.07014,0.046 0.08764,2.9e-4 0.01926,-0.0502 0.102893,-0.0437 0.131735,0.0103 0.03098,0.0579 0.03145,0.15895 9.73e-4,0.17788 -0.01292,0.008 -0.02351,0.0396 -0.02351,0.0702 0,0.0326 -0.02669,0.0768 -0.06466,0.1067 -0.05175,0.0409 -0.08439,0.0483 -0.163556,0.0376 -0.05457,-0.007 -0.105247,-0.004 -0.113063,0.01 -0.0077,0.0126 0.0063,0.0229 0.03136,0.0229 0.08175,0 0.110926,0.0614 0.07607,0.16023 -0.03848,0.10907 -0.0902,0.16892 -0.145978,0.16892 -0.02714,0 -0.04337,0.017 -0.04337,0.0452 0,0.0522 -0.108342,0.18989 -0.149338,0.18989 -0.01519,0 -0.03804,0.023 -0.05081,0.051 -0.01276,0.028 -0.04272,0.0624 -0.06656,0.0764 -0.02385,0.014 -0.08145,0.0598 -0.128028,0.10186 -0.04657,0.0421 -0.09288,0.0764 -0.102906,0.0764 -0.03438,0 -0.231202,0.15009 -0.231202,0.17633 0,0.0262 0.196816,0.17633 0.231202,0.17633 0.01002,0 0.05634,0.0344 0.102906,0.0764 0.04657,0.0421 0.104185,0.0879 0.128028,0.10185 0.02385,0.014 0.05379,0.0484 0.06656,0.0764 0.01276,0.028 0.03563,0.051 0.05081,0.051 0.041,0 0.149338,0.13775 0.149338,0.18988 0,0.0283 0.01625,0.0452 0.04337,0.0452 0.05578,0 0.107491,0.0599 0.145981,0.16891 0.03486,0.0988 0.0057,0.16025 -0.07607,0.16025 -0.02505,0 -0.03916,0.0103 -0.03136,0.0229 0.0077,0.0126 0.05849,0.0168 0.113065,0.01 0.07916,-0.0108 0.1118,-0.004 0.163553,0.0376 0.03797,0.03 0.06466,0.0741 0.06466,0.1067 0,0.0306 0.01059,0.0623 0.02351,0.0702 0.03063,0.0189 0.03016,0.11999 -9.73e-4,0.17788 -0.02883,0.0539 -0.112489,0.0603 -0.131737,0.0103 -0.01749,-0.0457 -0.0701,-0.0455 -0.08764,2.8e-4 -0.0075,0.0196 -0.0074,0.0663 5e-5,0.1039 0.01349,0.0675 0.06262,0.0958 0.184886,0.10642 0.02587,0.002 0.07047,0.006 0.09913,0.009 0.118421,0.01 0.273341,0.22615 0.196153,0.27386 -0.01273,0.008 -0.0059,0.0419 0.01619,0.0804 0.0344,0.06 0.03477,0.0761 0.0035,0.15817 -0.02962,0.0778 -0.04518,0.0914 -0.104356,0.0914 -0.06067,0 -0.06902,-0.008 -0.06541,-0.0625 0.0032,-0.0493 -0.0087,-0.0658 -0.05631,-0.0778 -0.04746,-0.012 -0.07638,2.9e-4 -0.134565,0.0567 -0.04076,0.0396 -0.08744,0.0718 -0.103722,0.0718 -0.02168,0 -0.01983,0.014 0.007,0.0523 0.05486,0.0784 0.04571,0.17667 -0.02235,0.23973 l -0.05893,0.0546 0.09761,0.0156 c 0.113667,0.0182 0.23187,0.0944 0.23187,0.14958 0,0.0298 0.0063,0.0321 0.0282,0.0102 0.04084,-0.0408 0.106417,-0.0347 0.155793,0.0147 0.02361,0.0236 0.06183,0.0503 0.08491,0.0591 0.03104,0.012 0.03929,0.0344 0.03166,0.0863 -0.0078,0.0534 -0.0013,0.0703 0.02795,0.0703 0.05739,0 0.09467,0.0485 0.09467,0.12298 0,0.074 -0.05323,0.10872 -0.10312,0.0673 -0.04475,-0.0371 -0.105712,-0.009 -0.09216,0.0433 0.0061,0.0233 0.04198,0.0653 0.07969,0.0933 0.05304,0.0392 0.06857,0.0694 0.06857,0.13302 0,0.0514 -0.0132,0.0874 -0.03527,0.0958 -0.01942,0.007 -0.03528,0.0338 -0.03528,0.0586 0,0.0522 -0.0966,0.10408 -0.153379,0.0823 -0.03109,-0.012 -0.03567,-0.0336 -0.02294,-0.1089 0.01072,-0.0635 0.0072,-0.0939 -0.01065,-0.0939 -0.06321,0 -0.165693,-0.10408 -0.165693,-0.16827 0,-0.0814 -0.04098,-0.0688 -0.105799,0.0326 -0.0895,0.14015 -0.307622,0.2133 -0.334094,0.11207 -0.01816,-0.0694 -0.09238,-0.0583 -0.118478,0.0177 -0.01699,0.0495 -0.01242,0.0813 0.01951,0.13519 0.05584,0.0944 0.05507,0.19399 -0.0025,0.31298 -0.05026,0.10403 -0.110784,0.12735 -0.164028,0.0632 -0.05137,-0.0619 -0.111755,-0.0418 -0.141043,0.0469 -0.0149,0.0452 -0.04703,0.0962 -0.07135,0.1132 -0.041,0.0287 -0.03462,0.0372 0.08736,0.11762 0.07236,0.0477 0.150743,0.0867 0.17416,0.0867 0.02342,0 0.05103,0.0132 0.06138,0.0294 0.01033,0.0162 0.03996,0.0412 0.06582,0.0555 0.02587,0.0143 0.04702,0.046 0.04702,0.0705 0,0.0244 0.01916,0.0636 0.04259,0.087 0.06078,0.0608 0.04333,0.14477 -0.03082,0.14826 -0.07496,0.004 -0.164578,0.0332 -0.164578,0.0544 0,0.009 0.03245,0.0474 0.07213,0.0854 0.05007,0.0479 0.06904,0.0852 0.06204,0.12195 -0.01346,0.0706 0.0019,0.0669 0.09404,-0.0222 0.05725,-0.0555 0.09919,-0.0752 0.159818,-0.0752 0.101841,0 0.132424,0.029 0.137227,0.13027 0.0032,0.0697 -0.0037,0.0798 -0.06091,0.0864 -0.03556,0.004 -0.06465,0.0173 -0.06465,0.0295 0,0.012 -0.02054,0.0425 -0.04564,0.0676 -0.04518,0.0452 -0.04439,0.0459 0.07965,0.0716 0.06892,0.0143 0.141235,0.044 0.160707,0.066 0.06492,0.0734 0.03356,0.26338 -0.04347,0.26338 -0.01935,0 -0.04178,-0.0185 -0.04984,-0.0412 -0.03041,-0.0852 -0.05337,-0.0979 -0.129962,-0.0711 -0.06005,0.021 -0.07762,0.0186 -0.101069,-0.0134 -0.05828,-0.0796 -0.07652,-0.04 -0.06913,0.15066 0.0057,0.14718 -9.7e-5,0.19232 -0.02613,0.2023 -0.05296,0.0204 -0.01315,0.0565 0.04586,0.0417 0.06577,-0.0166 0.121316,0.0419 0.09599,0.10105 -0.0098,0.0228 -0.01544,0.0705 -0.0126,0.10615 0.0062,0.0779 -0.06096,0.11595 -0.10308,0.0584 -0.04035,-0.0552 -0.09226,-0.0113 -0.09384,0.0793 -0.0013,0.0661 -0.0117,0.0792 -0.07794,0.0965 -0.131813,0.0343 -0.233386,-0.0636 -0.125711,-0.12121 0.02452,-0.0132 0.05569,-0.0558 0.06931,-0.0949 0.01361,-0.0391 0.0359,-0.071 0.04949,-0.071 0.04976,0 0.0228,-0.0468 -0.04808,-0.0835 -0.05317,-0.0275 -0.06962,-0.0499 -0.06098,-0.0829 0.0074,-0.0284 -1.92e-4,-0.0452 -0.02043,-0.0452 -0.04096,0 -0.0886,-0.0871 -0.07171,-0.13115 0.0071,-0.0184 0.0337,-0.0334 0.05921,-0.0334 0.06902,0 0.07615,-0.0298 0.04023,-0.1683 -0.02694,-0.10389 -0.04014,-0.12356 -0.07648,-0.11387 -0.02418,0.006 -0.103076,0.0116 -0.175379,0.0117 -0.113772,5e-5 -0.130008,0.006 -0.120657,0.0413 0.01355,0.0517 -0.03424,0.11156 -0.08915,0.11156 -0.0229,0 -0.04772,0.0159 -0.05515,0.0353 -0.01613,0.042 -0.08853,0.0463 -0.127306,0.008 -0.02121,-0.0213 -0.03787,-0.0184 -0.07141,0.012 -0.03151,0.0286 -0.06512,0.0353 -0.120131,0.0243 -0.114747,-0.0229 -0.118362,-0.0564 -0.02625,-0.24318 0.01286,-0.0261 -0.01271,-0.0466 -0.102647,-0.0824 -0.09367,-0.0372 -0.121502,-0.0604 -0.127653,-0.10632 -0.01125,-0.084 -0.03548,-0.0999 -0.104026,-0.0688 -0.03998,0.0182 -0.06501,0.0527 -0.07435,0.10254 -0.0078,0.0417 -0.05081,0.1107 -0.09679,0.15526 -0.07179,0.0697 -0.08877,0.0763 -0.128746,0.0514 -0.02534,-0.0159 -0.06206,-0.0288 -0.08163,-0.0288 -0.04793,0 -0.04803,0.13126 -9.5e-5,0.14965 0.09122,0.0351 0.09138,0.25003 1.89e-4,0.25003 -0.02987,0 -0.03113,0.008 -0.0074,0.0459 0.04725,0.0756 -0.0019,0.17748 -0.08561,0.17748 -0.0562,0 -0.07224,0.0138 -0.09527,0.082 -0.02057,0.0609 -0.04647,0.0874 -0.100797,0.10294 -0.1099,0.0314 -0.146271,0.007 -0.146271,-0.0978 0,-0.0852 -0.0054,-0.092 -0.08816,-0.1127 -0.0828,-0.0208 -0.08779,-0.0271 -0.08194,-0.10466 0.0055,-0.073 -0.0023,-0.0858 -0.06585,-0.10979 -0.06654,-0.0251 -0.07377,-0.0228 -0.09404,0.0305 -0.01207,0.0317 -0.03696,0.0635 -0.05528,0.0706 -0.01831,0.007 -0.03861,0.0331 -0.0451,0.0579 -0.0065,0.0248 -0.03824,0.0551 -0.07057,0.0675 -0.03233,0.0122 -0.06571,0.0336 -0.0742,0.0473 -0.0295,0.0478 -0.09849,0.0244 -0.171324,-0.0578 l -0.07328,-0.0828 -0.08825,0.0496 c -0.05637,0.0316 -0.111105,0.045 -0.151502,0.0369 -0.09886,-0.0197 -0.14937,0.0312 -0.130506,0.1318 0.0086,0.046 0.0305,0.0894 0.04857,0.0964 0.05362,0.0206 0.118657,0.1777 0.08675,0.20961 -0.0389,0.0389 -0.03297,0.0645 0.01494,0.0645 0.07664,0 0.151358,0.0706 0.136651,0.12926 -0.0082,0.0326 1.92e-4,0.0648 0.02161,0.0825 0.04858,0.0404 0.04468,0.13937 -0.0061,0.15509 -0.02262,0.007 -0.05951,0.0225 -0.08197,0.0346 -0.02247,0.012 -0.05882,0.0217 -0.08081,0.0217 -0.03171,0 -0.02628,0.0143 0.02613,0.069 0.05102,0.0532 0.06266,0.0828 0.05097,0.12931 -0.01679,0.0669 0.01123,0.0793 0.0563,0.0251 0.04267,-0.0514 0.102011,-0.0433 0.174487,0.0239 0.08212,0.0761 0.07548,0.16115 -0.01339,0.17144 -0.03805,0.005 -0.06691,0.025 -0.07422,0.0529 -0.007,0.0268 -0.0322,0.0456 -0.06117,0.0456 -0.07349,0 -0.05939,0.0391 0.0198,0.055 0.04857,0.01 0.08026,0.0375 0.107028,0.094 0.03566,0.0751 0.03528,0.0851 -0.0064,0.1596 -0.05591,0.10006 -0.116951,0.10158 -0.169183,0.004 -0.0277,-0.0516 -0.04797,-0.0677 -0.06459,-0.051 -0.01333,0.0133 -0.05459,0.0207 -0.09173,0.0164 -0.05151,-0.006 -0.06944,-0.0216 -0.07567,-0.0665 -0.0044,-0.0324 -0.023,-0.0672 -0.04114,-0.0776 -0.01815,-0.0104 -0.033,-0.0373 -0.033,-0.0598 0,-0.0645 -0.04699,-0.0993 -0.09764,-0.0722 -0.02388,0.0127 -0.04343,0.0342 -0.04343,0.0475 0,0.0133 -0.02802,0.0609 -0.06224,0.10586 -0.04184,0.0549 -0.07826,0.0795 -0.1111,0.0748 -0.07687,-0.0107 -0.07154,0.0596 0.0081,0.10664 0.08054,0.0476 0.09686,0.14026 0.03117,0.17704 -0.03409,0.0191 -0.03531,0.028 -0.0083,0.0605 0.02499,0.0301 0.02594,0.051 0.0044,0.0981 -0.02382,0.0523 -0.03698,0.0579 -0.103378,0.0436 -0.04185,-0.009 -0.08918,-0.0268 -0.105185,-0.0397 -0.01601,-0.0129 -0.04439,-0.0175 -0.0631,-0.0104 -0.02637,0.0101 -0.03099,0.0423 -0.02058,0.1432 0.01103,0.10696 0.0066,0.13278 -0.02508,0.14492 -0.05923,0.0227 -0.04572,0.0784 0.02616,0.1076 0.18982,0.0772 0.217475,0.0946 0.217475,0.13697 0,0.0563 0.04304,0.0842 0.07728,0.05 0.0366,-0.0366 0.128243,-0.0326 0.150781,0.006 0.01034,0.0179 0.03996,0.0366 0.06582,0.0414 0.03204,0.006 0.04702,0.0274 0.04702,0.0673 0,0.0697 0.04758,0.11034 0.142152,0.12108 0.09842,0.0113 0.09762,0.0962 -9.72e-4,0.11479 -0.04629,0.009 -0.06741,0.025 -0.06144,0.0472 0.03091,0.1155 0.02954,0.13994 -0.0086,0.15461 -0.04988,0.0192 -0.151134,-0.0962 -0.152373,-0.17355 -6.3e-4,-0.0291 -0.0213,-0.0733 -0.04629,-0.0983 -0.03894,-0.0389 -0.04945,-0.0405 -0.07341,-0.0118 -0.03696,0.0445 -0.08534,0.0427 -0.111578,-0.004 -0.01948,-0.0349 -0.02235,-0.0349 -0.0357,0 -0.0079,0.0209 -0.03099,0.0378 -0.05112,0.0378 -0.04087,0 -0.09094,-0.10851 -0.07238,-0.15687 0.0087,-0.0228 -0.01379,-0.0312 -0.08353,-0.0312 -0.0746,0 -0.09811,-0.01 -0.107379,-0.0455 -0.01821,-0.0695 -0.07013,-0.0755 -0.111262,-0.0128 -0.02039,0.0311 -0.03704,0.0659 -0.03704,0.0773 0,0.0114 -0.01711,0.0551 -0.038,0.0969 -0.02773,0.0555 -0.04997,0.0731 -0.08229,0.0645 -0.06403,-0.0168 -0.05766,0.0633 0.0086,0.10828 0.04358,0.0296 0.04821,0.0435 0.02631,0.0793 -0.02716,0.0443 -0.08235,0.0515 -0.155618,0.0206 -0.03263,-0.0139 -0.04114,-0.006 -0.04114,0.0392 0,0.0311 0.01242,0.069 0.02758,0.0842 0.02088,0.0209 0.02102,0.0419 6.3e-4,0.087 -0.02855,0.0626 -0.07261,0.0759 -0.114021,0.0346 -0.01365,-0.0136 -0.05153,-0.0181 -0.08417,-0.01 -0.05173,0.013 -0.06087,0.0306 -0.07111,0.13649 -0.01056,0.10941 -0.0049,0.12948 0.05725,0.20028 0.115816,0.13211 0.0436,0.22782 -0.08322,0.11029 -0.06073,-0.0562 -0.06818,-0.0577 -0.132204,-0.0245 -0.03731,0.0193 -0.07442,0.0457 -0.08247,0.0587 -0.008,0.013 -0.03393,0.0237 -0.05752,0.0237 -0.02361,0 -0.04842,0.0212 -0.05519,0.047 -0.01484,0.0568 -0.08287,0.0623 -0.103543,0.008 z"
             id="path6421"
             inkscape:connector-curvature="0" />
        <rect
             style="color:#000000;display:inline;overflow:visible;visibility:visible;opacity:1;fill:#ffbb00;fill-opacity:1;fill-rule:evenodd;stroke:#000000;stroke-width:1.00000036;stroke-linecap:round;stroke-linejoin:round;stroke-miterlimit:4;stroke-dasharray:none;stroke-dashoffset:0;stroke-opacity:1;marker:none;marker-start:none;marker-mid:none;marker-end:none;enable-background:accumulate"
             id="rect12874-3"
             width="5.9999995"
             height="22"
             x="3.7601953"
             y="413.04694" />
        <path
             style="fill:none;fill-rule:evenodd;stroke:#000000;stroke-width:1;stroke-linecap:butt;stroke-linejoin:miter;stroke-miterlimit:4;stroke-dasharray:none;stroke-opacity:1"
             d="m 4.2600362,421.04705 h 3"
             id="path12876-6"
             inkscape:connector-curvature="0" />
        <path
             style="fill:none;fill-rule:evenodd;stroke:#000000;stroke-width:1;stroke-linecap:butt;stroke-linejoin:miter;stroke-miterlimit:4;stroke-dasharray:none;stroke-opacity:1"
             d="m 4.2600362,418.04705 h 2.00001"
             id="path12880-7"
             inkscape:connector-curvature="0"
             sodipodi:nodetypes="cc" />
        <path
             inkscape:connector-curvature="0"
             id="path12882-5"
             d="m 4.2600362,415.04705 h 3"
             style="fill:none;fill-rule:evenodd;stroke:#000000;stroke-width:1;stroke-linecap:butt;stroke-linejoin:miter;stroke-miterlimit:4;stroke-dasharray:none;stroke-opacity:1" />
        <path
             style="fill:none;fill-rule:evenodd;stroke:#000000;stroke-width:1;stroke-linecap:butt;stroke-linejoin:miter;stroke-miterlimit:4;stroke-dasharray:none;stroke-opacity:1"
             d="m 4.2600362,430.04705 h 2.00001"
             id="path12884-3"
             inkscape:connector-curvature="0"
             sodipodi:nodetypes="cc" />
        <path
             style="fill:none;fill-rule:evenodd;stroke:#000000;stroke-width:1;stroke-linecap:butt;stroke-linejoin:miter;stroke-miterlimit:4;stroke-dasharray:none;stroke-opacity:1"
             d="m 4.2600362,424.04705 h 2.00001"
             id="path12890-5"
             inkscape:connector-curvature="0"
             sodipodi:nodetypes="cc" />
        <path
             inkscape:connector-curvature="0"
             id="path12892-6"
             d="m 4.2600362,427.04705 h 3"
             style="fill:none;fill-rule:evenodd;stroke:#000000;stroke-width:1;stroke-linecap:butt;stroke-linejoin:miter;stroke-miterlimit:4;stroke-dasharray:none;stroke-opacity:1" />
        <path
             style="fill:none;fill-rule:evenodd;stroke:#000000;stroke-width:1;stroke-linecap:butt;stroke-linejoin:miter;stroke-miterlimit:4;stroke-dasharray:none;stroke-opacity:1"
             d="m 4.2600362,433.04705 h 3"
             id="path8091-2"
             inkscape:connector-curvature="0" />
    </g>
</svg>
