<?xml version="1.0" encoding="UTF-8" standalone="no"?>
<!-- Created with Inkscape (http://www.inkscape.org/) -->

<svg
   xmlns:dc="http://purl.org/dc/elements/1.1/"
   xmlns:cc="http://creativecommons.org/ns#"
   xmlns:rdf="http://www.w3.org/1999/02/22-rdf-syntax-ns#"
   xmlns:svg="http://www.w3.org/2000/svg"
   xmlns="http://www.w3.org/2000/svg"
   xmlns:sodipodi="http://sodipodi.sourceforge.net/DTD/sodipodi-0.dtd"
   xmlns:inkscape="http://www.inkscape.org/namespaces/inkscape"
   width="24"
   height="24"
   viewBox="0 0 24 24"
   id="svg8233"
   version="1.1"
   inkscape:version="0.92.4 (unknown)"
   sodipodi:docname="gwy_correlation_length-24.svg"
   inkscape:export-filename="gwy_iso_roughness-24.png"
   inkscape:export-xdpi="90"
   inkscape:export-ydpi="90">
  <defs
     id="defs8235">
    <clipPath
       clipPathUnits="userSpaceOnUse"
       id="clipPath13023">
      <path
         id="path13025"
         d="m 138.4993,575.08191 h 24 v 24 h -24 z"
         style="color:#000000;overflow:visible;opacity:1;vector-effect:none;fill:#ffbb00;fill-opacity:1;fill-rule:nonzero;stroke:none;stroke-width:1.39999998;stroke-linecap:butt;stroke-linejoin:miter;stroke-miterlimit:4;stroke-dasharray:none;stroke-dashoffset:0;stroke-opacity:1;marker:none;marker-start:none;marker-mid:none;marker-end:none;paint-order:fill markers stroke"
         inkscape:connector-curvature="0" />
    </clipPath>
    <clipPath
       clipPathUnits="userSpaceOnUse"
       id="clipPath13027">
      <path
         style="color:#000000;overflow:visible;opacity:1;vector-effect:none;fill:#ffbb00;fill-opacity:1;fill-rule:nonzero;stroke:none;stroke-width:1.39999998;stroke-linecap:butt;stroke-linejoin:miter;stroke-miterlimit:4;stroke-dasharray:none;stroke-dashoffset:0;stroke-opacity:1;marker:none;marker-start:none;marker-mid:none;marker-end:none;paint-order:fill markers stroke"
         d="m 138.4993,575.08191 h 24 v 24 h -24 z"
         id="path13029"
         inkscape:connector-curvature="0" />
    </clipPath>
  </defs>
  <sodipodi:namedview
     id="base"
     pagecolor="#ffffff"
     bordercolor="#666666"
     borderopacity="1.0"
     inkscape:pageopacity="0.0"
     inkscape:pageshadow="2"
     inkscape:zoom="29.816336"
     inkscape:cx="15.983702"
     inkscape:cy="12"
     inkscape:document-units="px"
     inkscape:current-layer="layer1"
     showgrid="true"
     units="px"
     inkscape:window-width="1920"
     inkscape:window-height="1149"
     inkscape:window-x="0"
     inkscape:window-y="32"
     inkscape:window-maximized="1"
     inkscape:snap-smooth-nodes="true"
     inkscape:object-nodes="true"
     inkscape:snap-object-midpoints="true"
     inkscape:snap-intersection-paths="false"
     inkscape:snap-grids="true"
     showguides="false"
     inkscape:measure-start="17.2503,10.6451"
     inkscape:measure-end="17.2705,8.98876">
    <inkscape:grid
       type="xygrid"
       id="grid1px"
       originx="0"
       originy="0"
       dotted="false"
       snapvisiblegridlinesonly="false"
       spacingx="0.5"
       spacingy="0.5"
       enabled="true"
       visible="true"
       units="px" />
  </sodipodi:namedview>
  <metadata
     id="metadata8238">
    <rdf:RDF>
      <cc:Work
         rdf:about="">
        <dc:format>image/svg+xml</dc:format>
        <dc:type
           rdf:resource="http://purl.org/dc/dcmitype/StillImage" />
        <dc:title></dc:title>
      </cc:Work>
    </rdf:RDF>
  </metadata>
  <g
     inkscape:label="Layer 1"
     inkscape:groupmode="layer"
     id="layer1"
     transform="translate(-138.4993,-575.0819)">
    <path
       sodipodi:nodetypes="cccccccccccccccccccccccc"
       inkscape:connector-curvature="0"
       id="path9664"
       d="m 138.10903,580.57577 c 0.11199,-1.33114 1.05093,-0.35815 1.28201,0.38758 0.91159,0.01 0.7733,-1.43766 1.08069,-2.05129 0.24717,-0.61724 0.27116,-2.12683 0.9767,-2.14595 1.08513,2.15942 1.26338,4.55088 1.87376,6.81917 0.40001,1.2454 0.39291,2.67991 1.37251,3.74529 1.46949,0.0396 1.49614,-1.579 1.8844,-2.39337 0.41296,-1.25784 0.46541,-2.79523 1.96807,-3.58017 0.89186,-1.37348 0.6728,-3.08666 1.84509,-4.34451 0.69868,0.89674 0.76,1.979 1.44279,2.88121 1.06136,-0.59908 1.46829,0.35476 1.63873,1.04799 0.10831,0.7462 0.94344,1.82888 1.14007,0.46122 0.62725,-1.55086 0.47517,-3.29701 1.47959,-4.74604 1.05869,1.00289 0.96625,2.59937 1.49354,3.8455 0.96569,2.03485 1.76037,4.11711 2.03189,6.28621 0.20896,1.14207 0.40404,2.28748 0.8361,3.39519 1.02876,-1.10451 0.68677,-2.67676 1.08208,-3.97882 0.37703,-2.63969 0.5775,-5.30616 1.33601,-7.90168 1.0035,0.71432 0.59735,2.05072 0.99698,3.02589 0.29772,1.85265 0.37524,3.84645 1.06043,5.58978 0.79783,0.39735 0.89336,-1.37603 1.33242,-1.89283 0.50098,-0.6912 0.79839,-1.74353 1.80349,-2.03276 0.73229,0.50315 0.57676,1.51163 1.44277,1.89557 1.45222,-2.26241 0.75926,-5.2953 3.28305,-7.2184"
       style="fill:none;stroke:#000000;stroke-width:1;stroke-linecap:butt;stroke-linejoin:miter;stroke-miterlimit:3.79999995;stroke-dasharray:none;stroke-opacity:1"
       clip-path="url(#clipPath13027)" />
    <g
       id="g13004"
       transform="rotate(90,152.37164,591.14212)">
      <rect
         y="582.51447"
         x="153.81142"
         height="22"
         width="5.9999995"
         id="rect12874-3"
         style="color:#000000;display:inline;overflow:visible;visibility:visible;opacity:1;fill:#ffbb00;fill-opacity:1;fill-rule:evenodd;stroke:#000000;stroke-width:1.00000036;stroke-linecap:round;stroke-linejoin:round;stroke-miterlimit:4;stroke-dasharray:none;stroke-dashoffset:0;stroke-opacity:1;marker:none;marker-start:none;marker-mid:none;marker-end:none;enable-background:accumulate" />
      <path
         inkscape:connector-curvature="0"
         id="path12876-6"
         d="m 154.31125,590.51459 h 3"
         style="fill:none;fill-rule:evenodd;stroke:#000000;stroke-width:1;stroke-linecap:butt;stroke-linejoin:miter;stroke-miterlimit:4;stroke-dasharray:none;stroke-opacity:1" />
      <path
         sodipodi:nodetypes="cc"
         inkscape:connector-curvature="0"
         id="path12880-7"
         d="m 154.31125,587.51459 h 2.00001"
         style="fill:none;fill-rule:evenodd;stroke:#000000;stroke-width:1;stroke-linecap:butt;stroke-linejoin:miter;stroke-miterlimit:4;stroke-dasharray:none;stroke-opacity:1" />
      <path
         style="fill:none;fill-rule:evenodd;stroke:#000000;stroke-width:1;stroke-linecap:butt;stroke-linejoin:miter;stroke-miterlimit:4;stroke-dasharray:none;stroke-opacity:1"
         d="m 154.31125,584.51459 h 3"
         id="path12882-5"
         inkscape:connector-curvature="0" />
      <path
         sodipodi:nodetypes="cc"
         inkscape:connector-curvature="0"
         id="path12884-3"
         d="m 154.31125,599.51459 h 2.00001"
         style="fill:none;fill-rule:evenodd;stroke:#000000;stroke-width:1;stroke-linecap:butt;stroke-linejoin:miter;stroke-miterlimit:4;stroke-dasharray:none;stroke-opacity:1" />
      <path
         sodipodi:nodetypes="cc"
         inkscape:connector-curvature="0"
         id="path12890-5"
         d="m 154.31125,593.51459 h 2.00001"
         style="fill:none;fill-rule:evenodd;stroke:#000000;stroke-width:1;stroke-linecap:butt;stroke-linejoin:miter;stroke-miterlimit:4;stroke-dasharray:none;stroke-opacity:1" />
      <path
         style="fill:none;fill-rule:evenodd;stroke:#000000;stroke-width:1;stroke-linecap:butt;stroke-linejoin:miter;stroke-miterlimit:4;stroke-dasharray:none;stroke-opacity:1"
         d="m 154.31125,596.51459 h 3"
         id="path12892-6"
         inkscape:connector-curvature="0" />
      <path
         inkscape:connector-curvature="0"
         id="path8091-2"
         d="m 154.31125,602.51459 h 3"
         style="fill:none;fill-rule:evenodd;stroke:#000000;stroke-width:1;stroke-linecap:butt;stroke-linejoin:miter;stroke-miterlimit:4;stroke-dasharray:none;stroke-opacity:1" />
    </g>
    <path
       style="opacity:1;vector-effect:none;fill:none;fill-opacity:1;stroke:#e91616;stroke-width:1.4;stroke-linecap:butt;stroke-linejoin:miter;stroke-miterlimit:4;stroke-dasharray:none;stroke-dashoffset:0;stroke-opacity:1"
       d="m 134.4058,580.57577 c 0.112,-1.33114 1.05092,-0.35815 1.28201,0.38758 0.9116,0.01 0.7733,-1.43766 1.08069,-2.05129 0.24718,-0.61724 0.27117,-2.12683 0.9767,-2.14595 1.08513,2.15942 1.26339,4.55088 1.87377,6.81917 0.40001,1.2454 0.3929,2.67991 1.3725,3.74529 1.46949,0.0396 1.49615,-1.579 1.88441,-2.39337 0.41296,-1.25784 0.4654,-2.79523 1.96807,-3.58017 0.89185,-1.37348 0.6728,-3.08666 1.84509,-4.34451 0.69868,0.89674 0.75998,1.979 1.44279,2.88121 1.06136,-0.59908 1.46828,0.35476 1.63872,1.04799 0.10832,0.7462 0.94345,1.82888 1.14007,0.46122 0.62725,-1.55086 0.47518,-3.29701 1.47959,-4.74604 1.05869,1.00289 0.96626,2.59937 1.49354,3.8455 0.9657,2.03485 1.76038,4.11711 2.0319,6.28621 0.20895,1.14207 0.40403,2.28748 0.83609,3.39519 1.02877,-1.10451 0.68678,-2.67676 1.08208,-3.97882 0.37703,-2.63969 0.57751,-5.30616 1.33602,-7.90168 1.00348,0.71432 0.59733,2.05072 0.99698,3.02589 0.29772,1.85265 0.37524,3.84645 1.06041,5.58978 0.79785,0.39735 0.89337,-1.37603 1.33243,-1.89283 0.50099,-0.6912 0.7984,-1.74353 1.80348,-2.03276 0.7323,0.50315 0.57677,1.51163 1.44278,1.89557 1.45223,-2.26241 0.75926,-5.2953 3.28305,-7.2184"
       id="path928"
       inkscape:connector-curvature="0"
       sodipodi:nodetypes="cccccccccccccccccccccccc"
       clip-path="url(#clipPath13023)" />
  </g>
</svg>
