<?xml version="1.0" encoding="UTF-8" standalone="no"?>
<svg
   xmlns:dc="http://purl.org/dc/elements/1.1/"
   xmlns:cc="http://creativecommons.org/ns#"
   xmlns:rdf="http://www.w3.org/1999/02/22-rdf-syntax-ns#"
   xmlns:svg="http://www.w3.org/2000/svg"
   xmlns="http://www.w3.org/2000/svg"
   xmlns:xlink="http://www.w3.org/1999/xlink"
   xmlns:sodipodi="http://sodipodi.sourceforge.net/DTD/sodipodi-0.dtd"
   xmlns:inkscape="http://www.inkscape.org/namespaces/inkscape"
   inkscape:export-ydpi="96"
   inkscape:export-xdpi="96"
   inkscape:export-filename="gwy_cantilever-24.png"
   sodipodi:docname="gwy_tip_erosion-24.svg"
   inkscape:version="1.0 (4035a4fb49, 2020-05-01)"
   version="1.1"
   id="svg8093"
   viewBox="0 0 24 24"
   height="24"
   width="24">
  <defs
     id="defs8095">
    <linearGradient
       inkscape:collect="always"
       id="linearGradient8423">
      <stop
         style="stop-color:#6c7d92;stop-opacity:1"
         offset="0"
         id="stop8419" />
      <stop
         id="stop8427"
         offset="0.49999958"
         style="stop-color:#a3b8d2;stop-opacity:1" />
      <stop
         style="stop-color:#446a97;stop-opacity:1"
         offset="1"
         id="stop8421" />
    </linearGradient>
    <filter
       inkscape:collect="always"
       style="color-interpolation-filters:sRGB"
       id="filter8458"
       x="-0.12856513"
       width="1.2571303"
       y="-0.11250482"
       height="1.2250096">
      <feGaussianBlur
         inkscape:collect="always"
         stdDeviation="0.16275744"
         id="feGaussianBlur8460" />
    </filter>
    <linearGradient
       inkscape:collect="always"
       xlink:href="#linearGradient8423"
       id="linearGradient8425"
       x1="263.77811"
       y1="602.10724"
       x2="257.77811"
       y2="602.10724"
       gradientUnits="userSpaceOnUse"
       gradientTransform="translate(0,-5)" />
    <defs
       id="defs7146">
      <circle
         r="0.5"
         id="gpDot"
         cx="0"
         cy="0"
         style="stroke-width:0.5" />
      <path
         d="M -1,0 1,0 M 0,-1 0,1"
         id="gpPt0"
         inkscape:connector-curvature="0"
         style="stroke:currentColor;stroke-width:0.222" />
      <path
         d="M -1,-1 1,1 M 1,-1 -1,1"
         id="gpPt1"
         inkscape:connector-curvature="0"
         style="stroke:currentColor;stroke-width:0.222" />
      <path
         d="M -1,0 1,0 M 0,-1 0,1 m -1,-2 2,2 m -2,0 2,-2"
         id="gpPt2"
         inkscape:connector-curvature="0"
         style="stroke:currentColor;stroke-width:0.222" />
      <rect
         height="2"
         width="2"
         y="-1"
         x="-1"
         id="gpPt3"
         style="stroke:currentColor;stroke-width:0.222" />
      <rect
         height="2"
         width="2"
         y="-1"
         x="-1"
         id="gpPt4"
         style="fill:currentColor;stroke:currentColor;stroke-width:0.222" />
      <circle
         r="1"
         cy="0"
         cx="0"
         id="gpPt5"
         style="stroke:currentColor;stroke-width:0.222" />
      <use
         id="gpPt6"
         xlink:href="#gpPt5"
         style="fill:currentColor;stroke:none"
         x="0"
         y="0"
         width="100%"
         height="100%" />
      <path
         d="m 0,-1.33 -1.33,2 2.66,0 z"
         id="gpPt7"
         inkscape:connector-curvature="0"
         style="stroke:currentColor;stroke-width:0.222" />
      <use
         id="gpPt8"
         xlink:href="#gpPt7"
         style="fill:currentColor;stroke:none"
         x="0"
         y="0"
         width="100%"
         height="100%" />
      <use
         transform="scale(-1,-1)"
         id="gpPt9"
         xlink:href="#gpPt7"
         style="stroke:currentColor"
         x="0"
         y="0"
         width="100%"
         height="100%" />
      <use
         id="gpPt10"
         xlink:href="#gpPt9"
         style="fill:currentColor;stroke:none"
         x="0"
         y="0"
         width="100%"
         height="100%" />
      <use
         transform="matrix(0.70710678,0.70710678,-0.70710678,0.70710678,0,0)"
         id="gpPt11"
         xlink:href="#gpPt3"
         style="stroke:currentColor"
         x="0"
         y="0"
         width="100%"
         height="100%" />
      <use
         id="gpPt12"
         xlink:href="#gpPt11"
         style="fill:currentColor;stroke:none"
         x="0"
         y="0"
         width="100%"
         height="100%" />
    </defs>
    <defs
       id="defs6370">
      <circle
         r="0.5"
         id="gpDot-2"
         cx="0"
         cy="0"
         style="stroke-width:0.5" />
      <path
         d="M -1,0 1,0 M 0,-1 0,1"
         id="gpPt0-7"
         inkscape:connector-curvature="0"
         style="stroke:currentColor;stroke-width:0.222" />
      <path
         d="M -1,-1 1,1 M 1,-1 -1,1"
         id="gpPt1-3"
         inkscape:connector-curvature="0"
         style="stroke:currentColor;stroke-width:0.222" />
      <path
         d="M -1,0 1,0 M 0,-1 0,1 m -1,-2 2,2 m -2,0 2,-2"
         id="gpPt2-25"
         inkscape:connector-curvature="0"
         style="stroke:currentColor;stroke-width:0.222" />
      <rect
         height="2"
         width="2"
         y="-1"
         x="-1"
         id="gpPt3-2"
         style="stroke:currentColor;stroke-width:0.222" />
      <rect
         height="2"
         width="2"
         y="-1"
         x="-1"
         id="gpPt4-40"
         style="fill:currentColor;stroke:currentColor;stroke-width:0.222" />
      <circle
         r="1"
         cy="0"
         cx="0"
         id="gpPt5-5"
         style="stroke:currentColor;stroke-width:0.222" />
      <use
         id="gpPt6-0"
         xlink:href="#gpPt5-5"
         style="fill:currentColor;stroke:none"
         x="0"
         y="0"
         width="100%"
         height="100%" />
      <path
         d="m 0,-1.33 -1.33,2 2.66,0 z"
         id="gpPt7-2"
         inkscape:connector-curvature="0"
         style="stroke:currentColor;stroke-width:0.222" />
      <use
         id="gpPt8-8"
         xlink:href="#gpPt7-2"
         style="fill:currentColor;stroke:none"
         x="0"
         y="0"
         width="100%"
         height="100%" />
      <use
         transform="scale(-1,-1)"
         id="gpPt9-2"
         xlink:href="#gpPt7-2"
         style="stroke:currentColor"
         x="0"
         y="0"
         width="100%"
         height="100%" />
      <use
         id="gpPt10-7"
         xlink:href="#gpPt9-2"
         style="fill:currentColor;stroke:none"
         x="0"
         y="0"
         width="100%"
         height="100%" />
      <use
         transform="matrix(0.70710678,0.70710678,-0.70710678,0.70710678,0,0)"
         id="gpPt11-1"
         xlink:href="#gpPt3-2"
         style="stroke:currentColor"
         x="0"
         y="0"
         width="100%"
         height="100%" />
      <use
         id="gpPt12-2"
         xlink:href="#gpPt11-1"
         style="fill:currentColor;stroke:none"
         x="0"
         y="0"
         width="100%"
         height="100%" />
    </defs>
    <defs
       id="defs5302">
      <circle
         r="0.5"
         id="gpDot-16"
         cx="0"
         cy="0"
         style="stroke-width:0.5" />
      <path
         d="M -1,0 1,0 M 0,-1 0,1"
         id="gpPt0-9"
         inkscape:connector-curvature="0"
         style="stroke:currentColor;stroke-width:0.222" />
      <path
         d="M -1,-1 1,1 M 1,-1 -1,1"
         id="gpPt1-15"
         inkscape:connector-curvature="0"
         style="stroke:currentColor;stroke-width:0.222" />
      <path
         d="M -1,0 1,0 M 0,-1 0,1 m -1,-2 2,2 m -2,0 2,-2"
         id="gpPt2-2"
         inkscape:connector-curvature="0"
         style="stroke:currentColor;stroke-width:0.222" />
      <rect
         height="2"
         width="2"
         y="-1"
         x="-1"
         id="gpPt3-8"
         style="stroke:currentColor;stroke-width:0.222" />
      <rect
         height="2"
         width="2"
         y="-1"
         x="-1"
         id="gpPt4-4"
         style="fill:currentColor;stroke:currentColor;stroke-width:0.222" />
      <circle
         r="1"
         cy="0"
         cx="0"
         id="gpPt5-0"
         style="stroke:currentColor;stroke-width:0.222" />
      <use
         id="gpPt6-93"
         xlink:href="#gpPt5-0"
         style="fill:currentColor;stroke:none"
         x="0"
         y="0"
         width="100%"
         height="100%" />
      <path
         d="m 0,-1.33 -1.33,2 2.66,0 z"
         id="gpPt7-4"
         inkscape:connector-curvature="0"
         style="stroke:currentColor;stroke-width:0.222" />
      <use
         id="gpPt8-6"
         xlink:href="#gpPt7-4"
         style="fill:currentColor;stroke:none"
         x="0"
         y="0"
         width="100%"
         height="100%" />
      <use
         transform="scale(-1,-1)"
         id="gpPt9-9"
         xlink:href="#gpPt7-4"
         style="stroke:currentColor"
         x="0"
         y="0"
         width="100%"
         height="100%" />
      <use
         id="gpPt10-0"
         xlink:href="#gpPt9-9"
         style="fill:currentColor;stroke:none"
         x="0"
         y="0"
         width="100%"
         height="100%" />
      <use
         transform="matrix(0.70710678,0.70710678,-0.70710678,0.70710678,0,0)"
         id="gpPt11-5"
         xlink:href="#gpPt3-8"
         style="stroke:currentColor"
         x="0"
         y="0"
         width="100%"
         height="100%" />
      <use
         id="gpPt12-5"
         xlink:href="#gpPt11-5"
         style="fill:currentColor;stroke:none"
         x="0"
         y="0"
         width="100%"
         height="100%" />
    </defs>
  </defs>
  <sodipodi:namedview
     id="base"
     pagecolor="#ffffff"
     bordercolor="#666666"
     borderopacity="1.0"
     inkscape:pageopacity="0.0"
     inkscape:pageshadow="2"
     inkscape:zoom="9.4759014"
     inkscape:cx="10.744916"
     inkscape:cy="22.274133"
     inkscape:document-units="px"
     inkscape:current-layer="layer1"
     showgrid="true"
     inkscape:window-width="1920"
     inkscape:window-height="1149"
     inkscape:window-x="0"
     inkscape:window-y="32"
     inkscape:window-maximized="1"
     inkscape:object-nodes="true"
     inkscape:snap-global="true"
     inkscape:snap-grids="false"
     inkscape:document-rotation="0">
    <inkscape:grid
       type="xygrid"
       id="grid1px"
       originx="0"
       originy="0"
       dotted="false"
       snapvisiblegridlinesonly="false"
       spacingx="1.0"
       spacingy="1.0"
       enabled="true"
       visible="true" />
  </sodipodi:namedview>
  <metadata
     id="metadata8098">
    <rdf:RDF>
      <cc:Work
         rdf:about="">
        <dc:format>image/svg+xml</dc:format>
        <dc:type
           rdf:resource="http://purl.org/dc/dcmitype/StillImage" />
        <dc:title />
      </cc:Work>
    </rdf:RDF>
  </metadata>
  <g
     inkscape:label="Layer 1"
     inkscape:groupmode="layer"
     id="layer1"
     transform="translate(-244.77811,-595.10722)">
    <path
       style="fill:url(#linearGradient8425);fill-opacity:1;fill-rule:evenodd;stroke:#000000;stroke-width:1px;stroke-linecap:butt;stroke-linejoin:miter;stroke-opacity:1"
       d="m 246.27811,595.60722 h 21 v 2 l -6.5,10.5 -6,-10.5 h -8.5 z"
       id="path4763"
       inkscape:connector-curvature="0"
       sodipodi:nodetypes="ccccccc" />
    <path
       style="opacity:0.75;fill:#ffffff;fill-rule:evenodd;stroke:none;stroke-width:1px;stroke-linecap:butt;stroke-linejoin:miter;stroke-opacity:1;filter:url(#filter8458)"
       d="m 260.56574,601.46532 c -0.0435,-1.8491 2.94024,0.22303 6.9605,0.15554 -2.37934,0.87001 -4.78447,3.12651 -6.54699,4.79868 -0.69731,-2.00112 -0.66057,-4.5027 -0.41351,-4.95422 z"
       id="path8400"
       inkscape:connector-curvature="0"
       sodipodi:nodetypes="cccc"
       transform="rotate(96.15813,261.98063,600.60609)" />
    <path
       style="fill:none;fill-opacity:0.498039;fill-rule:evenodd;stroke:#000000;stroke-width:1px;stroke-linecap:butt;stroke-linejoin:miter;stroke-opacity:0.889262"
       d="m 254.77811,597.60722 h 12"
       id="path8429"
       inkscape:connector-curvature="0"
       sodipodi:nodetypes="cc" />
    <path
       sodipodi:nodetypes="ccccccc"
       inkscape:connector-curvature="0"
       id="path8431"
       d="m 246.27811,595.60722 h 21 v 2 l -6.5,10.5 -6,-10.5 h -8.5 z"
       style="fill:none;fill-opacity:1;fill-rule:evenodd;stroke:#000000;stroke-width:1px;stroke-linecap:butt;stroke-linejoin:miter;stroke-opacity:1" />
    <path
       style="color:#ff0000;fill:none;stroke:#000000;stroke-width:2;stroke-linecap:butt;stroke-linejoin:miter;stroke-miterlimit:4;stroke-dasharray:none;stroke-opacity:1"
       d="m 245.77811,614.60722 h 0.84827 l 3.15173,-4.9925 2.5055,-0.004 2.5055,0.004 1.57586,2.49625 h 0.83594 l 1.57586,-2.49625 2.5055,-0.004 2.5055,0.004 3.15173,4.9925 h 0.84827"
       id="path7438"
       inkscape:connector-curvature="0"
       sodipodi:nodetypes="cccccccccccc" />
    <path
       sodipodi:nodetypes="cccccccc"
       id="path8487"
       d="m 267.77684,618.10722 h -4 v -5 h -5 l -0.0364,5 h -2.8892 -0.0728 -3.3e-4"
       inkscape:connector-curvature="0"
       style="color:#ff0000;fill:none;stroke:#e15244;stroke-width:2;stroke-linecap:butt;stroke-linejoin:miter;stroke-miterlimit:4;stroke-dasharray:none;stroke-opacity:1" />
    <path
       style="color:#ff0000;fill:none;stroke:#e15244;stroke-width:2;stroke-linecap:butt;stroke-linejoin:miter;stroke-miterlimit:4;stroke-dasharray:none;stroke-opacity:1"
       inkscape:connector-curvature="0"
       d="m 245.77811,618.10722 h 4 v -5 h 5 l 0.0364,5 h 2.8892 0.0728 3.3e-4"
       id="path7427"
       sodipodi:nodetypes="cccccccc" />
  </g>
</svg>
