<?xml version="1.0" encoding="UTF-8" standalone="no"?>
<!-- Created with Inkscape (http://www.inkscape.org/) -->

<svg
   xmlns:dc="http://purl.org/dc/elements/1.1/"
   xmlns:cc="http://creativecommons.org/ns#"
   xmlns:rdf="http://www.w3.org/1999/02/22-rdf-syntax-ns#"
   xmlns:svg="http://www.w3.org/2000/svg"
   xmlns="http://www.w3.org/2000/svg"
   xmlns:sodipodi="http://sodipodi.sourceforge.net/DTD/sodipodi-0.dtd"
   xmlns:inkscape="http://www.inkscape.org/namespaces/inkscape"
   sodipodi:docname="gwy_polynom-24.svg"
   inkscape:version="0.92.1 r15371"
   version="1.1"
   id="svg8237"
   viewBox="0 0 24 24"
   height="24"
   width="24">
  <sodipodi:namedview
     inkscape:lockguides="true"
     inkscape:window-maximized="1"
     inkscape:window-y="27"
     inkscape:window-x="0"
     inkscape:window-height="1016"
     inkscape:window-width="1920"
     showgrid="false"
     inkscape:current-layer="layer1"
     inkscape:document-units="px"
     inkscape:cy="27.208387"
     inkscape:cx="-30.92511"
     inkscape:zoom="3.8087814"
     inkscape:pageshadow="2"
     inkscape:pageopacity="0.0"
     borderopacity="1.0"
     bordercolor="#666666"
     pagecolor="#ffffff"
     id="base" />
  <defs
     id="defs8239">
    <filter
       inkscape:collect="always"
       style="color-interpolation-filters:sRGB"
       id="filter8458"
       x="-0.12856513"
       width="1.2571303"
       y="-0.11250482"
       height="1.2250096">
      <feGaussianBlur
         inkscape:collect="always"
         stdDeviation="0.16275744"
         id="feGaussianBlur8460" />
    </filter>
  </defs>
  <metadata
     id="metadata8242">
    <rdf:RDF>
      <cc:Work
         rdf:about="">
        <dc:format>image/svg+xml</dc:format>
        <dc:type
           rdf:resource="http://purl.org/dc/dcmitype/StillImage" />
        <dc:title />
      </cc:Work>
    </rdf:RDF>
  </metadata>
  <g
     inkscape:label="Layer 1"
     inkscape:groupmode="layer"
     id="layer1"
     transform="translate(-287.14218,-445.53613)">
    <g
       id="g4873">
      <path
         inkscape:connector-curvature="0"
         id="path4816"
         d="m 309.69736,446.03622 a 0.95817095,0.95763568 0 0 0 -0.94872,0.7537 c -0.8404,3.60655 -1.68173,8.6657 -3.3383,11.58399 a 0.95817095,0.95763568 0 0 0 -0.002,0 c -0.30908,0.54573 -0.75586,1.10226 -1.21819,1.43257 -0.45859,0.32764 -0.86063,0.44639 -1.35664,0.32168 -0.7784,-0.22656 -1.84149,-1.55881 -2.89294,-3.12884 -1.05514,-1.57554 -2.0981,-3.38587 -3.97451,-3.91432 a 0.95817095,0.95763568 0 0 0 -0.0187,-0.006 c -1.11086,-0.28742 -2.17838,0.0571 -2.96217,0.61717 -0.78379,0.56005 -1.35855,1.31784 -1.77207,2.04786 -1.9707,3.47635 -2.72404,8.6061 -3.53664,12.09268 a 0.95817095,0.95763568 0 1 0 1.86562,0.43576 c 0.8428,-3.61611 1.67819,-8.65554 3.3383,-11.58399 0.30913,-0.54576 0.75772,-1.10222 1.22004,-1.43257 0.4592,-0.32811 0.85976,-0.44719 1.35666,-0.32168 0.77838,0.22646 1.83962,1.55882 2.89107,3.12884 1.05512,1.57552 2.09819,3.38567 3.9745,3.91432 a 0.95817095,0.95763568 0 0 0 0.0206,0.006 c 1.1108,0.28739 2.17647,-0.059 2.9603,-0.61905 0.78383,-0.55999 1.35855,-1.31585 1.77207,-2.04599 1.9695,-3.46956 2.72832,-8.61575 3.53851,-12.09267 a 0.95817095,0.95763568 0 0 0 -0.9169,-1.18946 z"
         style="color:#000000;font-style:normal;font-variant:normal;font-weight:normal;font-stretch:normal;font-size:medium;line-height:normal;font-family:sans-serif;font-variant-ligatures:normal;font-variant-position:normal;font-variant-caps:normal;font-variant-numeric:normal;font-variant-alternates:normal;font-feature-settings:normal;text-indent:0;text-align:start;text-decoration:none;text-decoration-line:none;text-decoration-style:solid;text-decoration-color:#000000;letter-spacing:normal;word-spacing:normal;text-transform:none;writing-mode:lr-tb;direction:ltr;text-orientation:mixed;dominant-baseline:auto;baseline-shift:baseline;text-anchor:start;white-space:normal;shape-padding:0;clip-rule:nonzero;display:inline;overflow:visible;visibility:visible;opacity:1;isolation:auto;mix-blend-mode:normal;color-interpolation:sRGB;color-interpolation-filters:linearRGB;solid-color:#000000;solid-opacity:1;vector-effect:none;fill:#7db846;fill-opacity:1;fill-rule:evenodd;stroke:#141e0b;stroke-width:1;stroke-linecap:round;stroke-linejoin:round;stroke-miterlimit:4;stroke-dasharray:none;stroke-dashoffset:0;stroke-opacity:1;marker:none;color-rendering:auto;image-rendering:auto;shape-rendering:auto;text-rendering:auto;enable-background:accumulate" />
      <path
         style="opacity:0.75;fill:#ffffff;fill-rule:evenodd;stroke:none;stroke-width:1px;stroke-linecap:butt;stroke-linejoin:miter;stroke-opacity:1;filter:url(#filter8458)"
         d="m 243.33968,605.23583 c 5.57893,-0.8151 11.50211,-2.74558 15.02129,-0.48276 -5.29889,-1.23284 -10.53031,0.12015 -14.71362,1.41074 -0.47884,-0.33105 -0.55321,-0.4436 -0.30767,-0.92798 z"
         id="path8135"
         inkscape:connector-curvature="0"
         sodipodi:nodetypes="cccc"
         transform="matrix(0.38844941,-0.91797626,0.91020273,0.3827058,-357.24681,459.81503)" />
      <path
         transform="matrix(-0.38844941,0.91797626,-0.91020273,-0.3827058,955.60982,455.28343)"
         sodipodi:nodetypes="cccc"
         inkscape:connector-curvature="0"
         id="path4868"
         d="m 243.33968,605.23583 c 5.57893,-0.8151 6.34564,-1.15156 11.28527,-0.74459 -5.5372,0.30074 -6.8671,0.86416 -11.18356,1.6485 -0.47884,-0.33105 -0.34725,-0.41953 -0.10171,-0.90391 z"
         style="opacity:0.75;fill:#ffffff;fill-rule:evenodd;stroke:none;stroke-width:1px;stroke-linecap:butt;stroke-linejoin:miter;stroke-opacity:1;filter:url(#filter8458)" />
    </g>
  </g>
</svg>
